<?xml version="1.0" encoding="utf-8"?>
<!-- Generator: Adobe Illustrator 16.0.0, SVG Export Plug-In . SVG Version: 6.00 Build 0)  -->
<!DOCTYPE svg PUBLIC "-//W3C//DTD SVG 1.1//EN" "http://www.w3.org/Graphics/SVG/1.1/DTD/svg11.dtd">
<svg version="1.1" xmlns="http://www.w3.org/2000/svg" xmlns:xlink="http://www.w3.org/1999/xlink" x="0px" y="0px" width="1080px"
	 height="1080px" viewBox="0 0 1080 1080" enable-background="new 0 0 1080 1080" xml:space="preserve">
<g id="Layer_1">
</g>
<g id="Isolation_Mode">
	<g>
		<path fill="#A67FB9" d="M471.301,517.843l-0.03-0.163L471.301,517.843z"/>
		<path fill="#A67FB9" d="M471.113,516.658l0.157,1.021c-0.043-0.261-0.089-0.566-0.14-0.892L471.113,516.658z"/>
		<path fill="#A67FB9" d="M471.483,518.905l-0.005-0.033L471.483,518.905z"/>
		<path fill="#A67FB9" d="M471.479,518.872c-0.02-0.174-0.055-0.37-0.103-0.575L471.479,518.872z"/>
		<polygon fill="#A67FB9" points="471.301,517.843 471.376,518.297 471.355,518.124 		"/>
		<path fill="#A67FB9" d="M470.949,515.703l-0.025-0.119L470.949,515.703z"/>
	</g>
	<g>
		<path fill="#010101" d="M558.992,371.917l-0.324,0.042L558.992,371.917z"/>
		<path fill="#010101" d="M556.566,372.297l2.102-0.339c-0.521,0.085-1.156,0.17-1.791,0.282L556.566,372.297z"/>
		<path fill="#010101" d="M561.163,371.565l-0.069,0.028L561.163,371.565z"/>
		<path fill="#010101" d="M561.094,371.593c-0.339,0.042-0.748,0.112-1.17,0.184L561.094,371.593z"/>
		<polygon fill="#010101" points="558.992,371.917 559.924,371.777 559.57,371.818 		"/>
		<path fill="#010101" d="M554.663,372.637l-0.211,0.07C554.452,372.707,554.593,372.665,554.663,372.637z"/>
		<path fill="#A67FB9" d="M720.356,191.846c2.482-1.126,9.66-11.154,16.499-23.495c7.122-12.396,13.977-27.329,17.572-36.58
			c5.428,9.223,9.971,18.769,14.678,28.063c1.201,2.299,2.16,4.724,3.26,7.064l5.641,12.722
			c7.954,19.234,15.272,38.652,20.59,58.495c22.252,78.86,24.255,161.611,6.007,235.82c-10.056,36.623-26.778,71.397-51.459,97.67
			c-12.311,13.032-26.75,23.621-42.688,30.096c-15.851,6.515-33.182,8.87-49.979,7.12c-33.901-3.452-63.896-23.762-87.8-47.875
			c-23.946-24.214-43.984-53.25-59.921-81.596c-6.824-12.932-12.719-26.795-13.114-41.349c-0.593-14.47,6.599-28.993,18.911-36.341
			c12.17-7.517,26.935-8.899,40.642-7.574c13.961,1.721,26.683,5.36,40.179,13.271c53.714,27.882,86.913,82.005,99.378,135.903
			c12.806,54.352,6.712,110.268-15.046,155.664c-22.705,45.395-57.271,81.439-95.628,106.273
			c-38.217,25.229-79.453,40.88-119.123,48.961c-39.727,8.52-77.957,9.041-112.917,5.263
			c-70.215-7.475-126.469-30.278-169.313-51.488c-43.125-21.352-73.346-42.292-93.78-56.04
			c-20.378-13.938-30.586-21.564-31.813-20.706c-1.243,1.298-0.241,4.063,8.264,12.58c8.489,8.462,24.538,22.719,55.393,44.197
			c15.485,10.591,34.721,23.015,59.399,35.861c24.594,12.861,54.521,26.513,91.454,38.005
			c37.019,10.944,81.116,20.224,132.829,19.449c51.39-1.227,110.238-12.607,168.608-44.126
			c40.712-22.255,77.011-52.97,104.02-90.721c13.577-18.813,24.141-39.529,32.504-61.259c7.686-21.929,12.114-44.663,13.99-67.454
			c2.639-45.575-5.417-91.38-25.017-131.939c-9.605-20.265-21.861-39.401-37.189-55.803c-7.179-8.645-15.963-15.75-24.354-23.127
			c-4.314-3.554-9.14-6.474-13.707-9.717c-4.528-3.271-9.236-6.274-14.287-8.645c-17.908-11.099-44.801-19.25-68.662-18.191
			c-12.087,0.425-24.102,2.749-34.776,8.04c-10.576,5.26-19.843,13.382-25.736,23.635c-12.269,20.771-9.576,46.324-0.903,68.154
			c4.032,10.861,10.465,22.509,15.372,30.729c5.203,8.688,10.618,17.15,16.245,25.485c22.746,32.997,49.471,64.024,84.528,85.232
			c17.458,10.449,37.231,17.938,57.807,20.224c20.49,2.327,41.362-0.408,60.244-7.741c38.177-14.936,64.716-45.722,82.37-76.972
			c18.011-31.633,28.574-65.45,34.074-98.9c10.604-66.141,6.769-129.952-5.77-186.814c-6.221-28.484-14.92-55.251-24.96-80.1
			c-2.385-6.29-5.136-12.325-7.855-18.292l-2.003-4.343c-1.367-2.863-2.509-5.726-3.977-8.348
			c-5.542-10.646-10.45-20.208-15.429-28.149c19.842,2.708,57.44,10.931,65.153,8.661c-24.242-20.169-66.915-30.251-93.062-33.494
			c-0.577,2.102-5.034,17.924-10.761,38.173C729.298,154.94,722.303,176.616,720.356,191.846z"/>
	</g>
</g>
</svg>
