<?xml version="1.0" encoding="utf-8"?>
<!-- Generator: Adobe Illustrator 16.0.0, SVG Export Plug-In . SVG Version: 6.00 Build 0)  -->
<!DOCTYPE svg PUBLIC "-//W3C//DTD SVG 1.1//EN" "http://www.w3.org/Graphics/SVG/1.1/DTD/svg11.dtd">
<svg version="1.1" id="Layer_1" xmlns="http://www.w3.org/2000/svg" xmlns:xlink="http://www.w3.org/1999/xlink" x="0px" y="0px"
	 width="1080px" height="600px" viewBox="0 0 1080 600" enable-background="new 0 0 1080 600" xml:space="preserve">
<g>
	<g>
		<defs>
			<rect id="SVGID_1_" x="36.195" y="-54.338" width="1010.724" height="1010.723"/>
		</defs>
		<clipPath id="SVGID_2_">
			<use xlink:href="#SVGID_1_"  overflow="visible"/>
		</clipPath>
		<path clip-path="url(#SVGID_2_)" fill="#E1E1E1" d="M105.36,268.622c0.092-0.085,1.331,1.019,3.012,3.107
			c1.68,2.081,3.736,5.195,5.413,8.938c1.67,3.746,2.619,7.355,3.049,9.996c0.434,2.642,0.432,4.304,0.307,4.314
			c-0.336,0.056-0.995-6.546-4.315-13.882C109.575,273.729,105.093,268.835,105.36,268.622"/>
		<path clip-path="url(#SVGID_2_)" fill="#E1E1E1" d="M119.697,245.782c0.071-0.013,0.261,0.688,0.544,1.967
			c0.285,1.279,0.652,3.138,1.069,5.443c0.837,4.604,1.859,10.994,2.77,18.08c0.912,7.089,1.544,13.529,1.898,18.197
			c0.18,2.333,0.294,4.226,0.346,5.534c0.05,1.31,0.044,2.036-0.029,2.042c-0.073,0.006-0.204-0.708-0.379-2.005
			c-0.19-1.535-0.415-3.364-0.678-5.499c-0.596-4.913-1.359-11.191-2.202-18.135c-0.942-6.928-1.794-13.196-2.462-18.099
			c-0.287-2.129-0.532-3.959-0.738-5.492C119.68,246.519,119.625,245.793,119.697,245.782"/>
		<path clip-path="url(#SVGID_2_)" fill="#E1E1E1" d="M133.415,256.032c0.158,0.048-0.392,2.143-1.082,5.555
			c-0.694,3.411-1.457,8.16-1.776,13.454c-0.306,5.297-0.112,10.105,0.175,13.575c0.285,3.471,0.582,5.613,0.42,5.642
			c-0.123,0.024-0.684-2.08-1.161-5.563c-0.479-3.478-0.796-8.35-0.486-13.715c0.324-5.365,1.215-10.164,2.101-13.56
			C132.492,258.017,133.294,255.993,133.415,256.032"/>
		<path clip-path="url(#SVGID_2_)" fill="#E1E1E1" d="M146.339,271.46c0.279,0.194-3.442,4.582-5.426,11.208
			c-2.069,6.604-1.442,12.322-1.782,12.329c-0.124,0.014-0.45-1.386-0.504-3.699c-0.06-2.312,0.245-5.541,1.279-8.937
			c1.045-3.392,2.6-6.236,3.944-8.117C145.193,272.355,146.247,271.378,146.339,271.46"/>
		<path clip-path="url(#SVGID_2_)" fill="#E1E1E1" d="M400.758,234.648c0.191-0.185,3.271,3.048,5.614,7.97
			c2.375,4.909,2.972,9.333,2.708,9.366c-0.309,0.07-1.346-4.142-3.657-8.911C403.15,238.29,400.509,234.845,400.758,234.648"/>
		<path clip-path="url(#SVGID_2_)" fill="#E1E1E1" d="M414.852,235.311c0.292,0.018,0.336,2.992,0.101,6.638
			c-0.235,3.649-0.661,6.59-0.952,6.572c-0.291-0.018-0.336-2.99-0.101-6.64C414.137,238.234,414.562,235.292,414.852,235.311"/>
		<path clip-path="url(#SVGID_2_)" fill="#E1E1E1" d="M428.449,232.526c0.257,0.208-3.054,3.965-5.316,9.587
			c-2.327,5.597-2.6,10.597-2.93,10.566c-0.252,0.036-0.45-5.157,1.956-10.966C424.512,235.888,428.293,232.322,428.449,232.526"/>
		<path clip-path="url(#SVGID_2_)" fill="#E1E1E1" d="M662.188,242.276c0.203-0.169,2.966,3.167,4.916,8.087
			c1.978,4.908,2.282,9.23,2.016,9.248c-0.311,0.05-1.067-4.09-2.995-8.858C664.235,245.975,661.925,242.454,662.188,242.276"/>
		<path clip-path="url(#SVGID_2_)" fill="#E1E1E1" d="M675.628,239.161c0.138,0.108-0.542,1.041-1.221,2.71
			c-0.685,1.659-1.242,4.125-1.031,6.857c0.226,2.733,1.166,5.078,2.106,6.608c0.932,1.542,1.755,2.355,1.63,2.484
			c-0.065,0.087-1.093-0.54-2.249-2.067c-1.159-1.51-2.3-4.008-2.539-6.942c-0.226-2.934,0.501-5.579,1.408-7.251
			C674.636,239.865,675.548,239.084,675.628,239.161"/>
		<path clip-path="url(#SVGID_2_)" fill="#E1E1E1" d="M694.044,232.545c0.133,0.076-0.667,1.706-1.938,4.34
			c-1.274,2.633-2.987,6.289-4.697,10.405c-1.708,4.118-3.091,7.912-4.056,10.671c-0.974,2.759-1.563,4.477-1.71,4.437
			c-0.131-0.036,0.205-1.827,0.996-4.661c0.795-2.832,2.075-6.699,3.794-10.851c1.728-4.148,3.563-7.786,5.013-10.344
			C692.896,233.979,693.924,232.477,694.044,232.545"/>
		<path clip-path="url(#SVGID_2_)" fill="#E1E1E1" d="M916.543,259.842c0.054-0.044,0.513,0.421,1.295,1.304
			c0.788,0.875,1.845,2.221,3.059,3.946c2.439,3.44,5.371,8.549,7.592,14.619c2.207,6.077,3.252,11.874,3.594,16.079
			c0.181,2.104,0.24,3.812,0.196,4.989c-0.027,1.181-0.079,1.83-0.15,1.83c-0.179,0.004-0.242-2.595-0.783-6.738
			c-0.529-4.14-1.674-9.814-3.843-15.799c-2.189-5.976-4.966-11.055-7.222-14.566C918.024,261.988,916.405,259.955,916.543,259.842"
			/>
		<path clip-path="url(#SVGID_2_)" fill="#E1E1E1" d="M937.847,248.597c0.072-0.006,0.2,0.762,0.372,2.157
			c0.171,1.395,0.371,3.416,0.591,5.919c0.434,5.001,0.906,11.922,1.224,19.575c0.313,7.658,0.421,14.595,0.397,19.617
			c-0.01,2.511-0.043,4.54-0.1,5.944c-0.054,1.406-0.116,2.18-0.188,2.18c-0.072,0.002-0.148-0.773-0.221-2.178
			c-0.065-1.63-0.142-3.611-0.234-5.938c-0.192-5.267-0.437-12.063-0.707-19.581c-0.352-7.511-0.669-14.304-0.916-19.568
			c-0.098-2.325-0.183-4.307-0.256-5.938C937.767,249.38,937.776,248.602,937.847,248.597"/>
		<path clip-path="url(#SVGID_2_)" fill="#E1E1E1" d="M975.562,235.826c0.155,0.192-3.674,2.391-8.133,7.72
			c-4.492,5.252-9.126,13.896-11.382,24.246c-2.258,10.358-2.279,20.053-2.282,27.002c0.027,3.339,0.051,6.117,0.073,8.259
			c0.01,1.955-0.016,3.031-0.089,3.037c-0.071,0.002-0.187-1.072-0.32-3.021c-0.138-1.949-0.301-4.769-0.408-8.26
			c-0.187-6.964-0.286-16.735,1.997-27.246c2.29-10.511,7.126-19.284,11.845-24.5c2.337-2.636,4.514-4.496,6.118-5.627
			c0.771-0.6,1.448-0.964,1.878-1.248C975.303,235.922,975.54,235.796,975.562,235.826"/>
		<path clip-path="url(#SVGID_2_)" fill="#9280B2" d="M98.956,222.048l18.072-81.663h9.659c0,0,5.902-79.949,10.73-81.558
			c4.831-1.609,57.949-2.147,58.486,0c0.536,2.147,0,5.368,0,5.368l12.876-14.489c0,0,15.562,3.219,17.171,2.683
			c1.611-0.535,8.049,61.17,8.049,61.17s9.12-3.756,10.73,0.535c1.61,4.292,0,48.29,0,48.29s28.438-1.072,29.51,3.756
			c1.074,4.829,26.496,55.908,26.496,55.908"/>
		<path clip-path="url(#SVGID_2_)" fill="#9280B2" d="M778.961,222.048c0,0,20.788-38.774,21.434-42.081
			c0.646-3.31,0.67-58.433,0.658-62.841c-0.013-4.411-0.824-6.064,2.612-9.922c3.436-3.859,3.398-7.324,8.377-6.693
			c4.98,0.629,10.461,4.486,10.461,4.486s6.646,61.188,8.3,60.638c1.654-0.551,4.058-6.616,4.058-6.616s-9.337-73.314-6.42-79.928
			c2.916-6.616,4.412-14.883,6.42-22.049c2.006-7.167,30.12-18.191,30.12-18.191s7.719,21.497,9.925,22.601
			c2.204,1.102,13.227,17.087,13.227,17.087s1.104,67.333,3.309,67.017c2.204-0.316,3.834-13.547,3.834-13.547V95.077
			c0,0-1.131-26.46,0-28.113c1.127-1.656,6.638-23.704,6.638-28.114s5.515-6.614,5.515-6.614v94.259c0,0,11.574,58.433,18.74,59.533
			c7.165,1.104,20.397,11.578,20.397,11.578l38.65,24.442"/>
		<path clip-path="url(#SVGID_2_)" fill="#9280B2" d="M416.822,220.348c0-75.448,61.164-136.612,136.614-136.612
			c75.446,0,136.612,61.165,136.612,136.612"/>
		<path clip-path="url(#SVGID_2_)" fill="#9280B2" d="M965.87,222.048c0,0.291-196.268,0.525-438.316,0.525
			c-242.134,0-438.358-0.234-438.358-0.525c0-0.292,196.224-0.529,438.358-0.529C769.603,221.519,965.87,221.756,965.87,222.048"/>
	</g>
	<g>
		<defs>
			<rect id="SVGID_3_" x="36.195" y="-54.338" width="1010.724" height="1010.723"/>
		</defs>
		<clipPath id="SVGID_4_">
			<use xlink:href="#SVGID_3_"  overflow="visible"/>
		</clipPath>
	</g>
	<g>
		<defs>
			<rect id="SVGID_5_" x="36.195" y="-51.811" width="1010.724" height="1010.723"/>
		</defs>
		<clipPath id="SVGID_6_">
			<use xlink:href="#SVGID_5_"  overflow="visible"/>
		</clipPath>
		<path clip-path="url(#SVGID_6_)" fill="#1D1635" d="M381.273,192.965v32.62c2.787,0,5.049-2.261,5.049-5.049v-14.266
			c0-2.183,1.77-3.952,3.951-3.952c2.183,0,3.951,1.769,3.951,3.952v12.38c0,6.981-5.663,12.64-12.64,12.64h-0.091v40.387h-10.756
			v-16.241h-3.368c-5.817,0-10.572-4.643-10.71-10.457l-0.521-21.504c-0.056-2.454,1.917-4.476,4.371-4.476
			c2.466,0,4.443,2.033,4.371,4.498c-0.206,6.778-0.476,19.233,0.152,23.159c0.875,5.487,5.488,3.95,5.488,3.95
			s-1.785-39.901-2.147-57.515c-0.073-3.611,2.838-6.576,6.451-6.576C378.385,186.516,381.273,189.403,381.273,192.965"/>
		<path clip-path="url(#SVGID_6_)" fill="#1B2F36" d="M369.944,193.871c0,0.078-0.574,0.14-1.278,0.14
			c-0.708,0-1.282-0.062-1.282-0.14c0-0.076,0.574-0.138,1.282-0.138C369.37,193.733,369.944,193.795,369.944,193.871"/>
		<path clip-path="url(#SVGID_6_)" fill="#1B2F36" d="M369.479,196.821c0,0.077-0.504,0.138-1.125,0.138
			c-0.621,0-1.125-0.061-1.125-0.138c0-0.077,0.504-0.14,1.125-0.14C368.975,196.682,369.479,196.745,369.479,196.821"/>
		<path clip-path="url(#SVGID_6_)" fill="#1B2F36" d="M382.597,194.804c0,0.076-0.522,0.139-1.164,0.139
			c-0.646,0-1.164-0.063-1.164-0.139c0-0.078,0.519-0.141,1.164-0.141C382.075,194.663,382.597,194.726,382.597,194.804"/>
		<path clip-path="url(#SVGID_6_)" fill="#1B2F36" d="M382.52,191.465c0,0.077-0.382,0.139-0.853,0.139
			c-0.473,0-0.855-0.062-0.855-0.139c0-0.077,0.382-0.139,0.855-0.139C382.137,191.326,382.52,191.388,382.52,191.465"/>
		<path clip-path="url(#SVGID_6_)" fill="#1B2F36" d="M369.785,191.473c-0.04,0.066-0.661-0.229-1.389-0.66
			c-0.729-0.428-1.287-0.83-1.248-0.896c0.036-0.065,0.66,0.229,1.389,0.658C369.266,191.006,369.825,191.406,369.785,191.473"/>
		<path clip-path="url(#SVGID_6_)" fill="#1B2F36" d="M372.218,188.808c-0.06,0.048-0.534-0.445-1.057-1.102
			c-0.525-0.658-0.901-1.229-0.84-1.275c0.06-0.048,0.532,0.445,1.057,1.101C371.902,188.189,372.278,188.761,372.218,188.808"/>
		<path clip-path="url(#SVGID_6_)" fill="#1B2F36" d="M375.195,187.973c-0.077,0.002-0.154-0.762-0.172-1.705
			c-0.018-0.944,0.029-1.71,0.106-1.71c0.078-0.002,0.152,0.763,0.172,1.705C375.318,187.206,375.271,187.973,375.195,187.973"/>
		<path clip-path="url(#SVGID_6_)" fill="#1B2F36" d="M379.428,185.576c0.066,0.041-0.263,0.682-0.736,1.432
			c-0.474,0.749-0.909,1.324-0.973,1.283c-0.065-0.043,0.265-0.683,0.738-1.432C378.927,186.11,379.364,185.534,379.428,185.576"/>
		<path clip-path="url(#SVGID_6_)" fill="#1B2F36" d="M380.97,188.442c0.05,0.059-0.273,0.431-0.729,0.834
			c-0.455,0.402-0.864,0.682-0.915,0.625c-0.05-0.057,0.275-0.43,0.731-0.832C380.51,188.665,380.92,188.386,380.97,188.442"/>
		<path clip-path="url(#SVGID_6_)" fill="#1B2F36" d="M370.254,201.104c0,0.076-0.853,0.122-1.905,0.099
			c-1.049-0.02-1.899-0.099-1.897-0.177c0.002-0.077,0.854-0.121,1.904-0.1C369.407,200.945,370.256,201.026,370.254,201.104"/>
		<path clip-path="url(#SVGID_6_)" fill="#1B2F36" d="M384.305,198.063c0,0.077-1.043,0.14-2.33,0.14
			c-1.285,0-2.328-0.063-2.328-0.14s1.043-0.14,2.328-0.14C383.261,197.923,384.305,197.986,384.305,198.063"/>
		<path clip-path="url(#SVGID_6_)" fill="#1B2F36" d="M381.975,200.858c0,0.077-0.347,0.137-0.776,0.137
			c-0.428,0-0.776-0.06-0.776-0.137c0-0.078,0.348-0.14,0.776-0.14C381.628,200.718,381.975,200.78,381.975,200.858"/>
		<path clip-path="url(#SVGID_6_)" fill="#1B2F36" d="M371.109,204.351c0,0.077-0.922,0.138-2.058,0.138
			c-1.136,0-2.055-0.061-2.055-0.138c0-0.077,0.919-0.14,2.055-0.14C370.187,204.211,371.109,204.273,371.109,204.351"/>
		<path clip-path="url(#SVGID_6_)" fill="#1B2F36" d="M372.508,206.812c0,0.078-1.114,0.139-2.486,0.139
			c-1.373,0-2.487-0.062-2.487-0.139c0-0.077,1.114-0.14,2.487-0.14C371.394,206.671,372.508,206.734,372.508,206.812"/>
		<path clip-path="url(#SVGID_6_)" fill="#1B2F36" d="M383.627,205.365c0,0.076-0.807,0.139-1.809,0.139
			c-0.999,0-1.808-0.063-1.808-0.139c0-0.078,0.809-0.138,1.808-0.138C382.82,205.227,383.627,205.287,383.627,205.365"/>
		<path clip-path="url(#SVGID_6_)" fill="#1B2F36" d="M382.36,208.078c0,0.076-0.363,0.139-0.812,0.139
			c-0.451,0-0.814-0.063-0.814-0.139c0-0.078,0.363-0.139,0.814-0.139C381.998,207.939,382.36,208,382.36,208.078"/>
		<path clip-path="url(#SVGID_6_)" fill="#1B2F36" d="M370.247,210.608c0,0.077-0.709,0.14-1.581,0.14
			c-0.874,0-1.582-0.063-1.582-0.14c0-0.076,0.708-0.14,1.582-0.14C369.538,210.468,370.247,210.532,370.247,210.608"/>
		<path clip-path="url(#SVGID_6_)" fill="#1B2F36" d="M370.337,213.049c0,0.078-0.505,0.14-1.13,0.14c-0.625,0-1.13-0.062-1.13-0.14
			c0-0.077,0.505-0.14,1.13-0.14C369.832,212.91,370.337,212.973,370.337,213.049"/>
		<path clip-path="url(#SVGID_6_)" fill="#1B2F36" d="M382.273,212.31c-0.005,0.077-0.471,0.12-1.048,0.094
			c-0.573-0.025-1.034-0.106-1.032-0.182c0.004-0.079,0.471-0.119,1.046-0.096C381.811,212.15,382.274,212.233,382.273,212.31"/>
		<path clip-path="url(#SVGID_6_)" fill="#1B2F36" d="M371.965,216.756c0,0.076-0.951,0.139-2.124,0.139s-2.125-0.063-2.125-0.139
			c0-0.077,0.953-0.138,2.125-0.138S371.965,216.679,371.965,216.756"/>
		<path clip-path="url(#SVGID_6_)" fill="#1B2F36" d="M383.084,217.66c0,0.078-0.849,0.14-1.898,0.14
			c-1.049,0-1.898-0.062-1.898-0.14c0-0.077,0.849-0.137,1.898-0.137C382.235,217.522,383.084,217.583,383.084,217.66"/>
		<path clip-path="url(#SVGID_6_)" fill="#1B2F36" d="M381.006,219.74c0.053,0.054,0.036,0.159-0.038,0.233
			c-0.076,0.075-0.179,0.09-0.233,0.037c-0.055-0.054-0.038-0.158,0.037-0.232C380.846,219.701,380.952,219.684,381.006,219.74"/>
		<path clip-path="url(#SVGID_6_)" fill="#1B2F36" d="M388.87,206.36c-0.024,0.066-0.881-0.215-1.775-0.858
			c-0.898-0.639-1.444-1.358-1.389-1.403c0.059-0.056,0.681,0.561,1.549,1.177C388.12,205.896,388.903,206.285,388.87,206.36"/>
		<path clip-path="url(#SVGID_6_)" fill="#1B2F36" d="M389.069,205.354c-0.062,0.041-0.636-0.802-1.104-1.963
			c-0.471-1.157-0.642-2.162-0.571-2.177c0.078-0.02,0.368,0.938,0.831,2.074C388.681,204.427,389.138,205.315,389.069,205.354"/>
		<path clip-path="url(#SVGID_6_)" fill="#1B2F36" d="M390.436,205.275c-0.076,0-0.13-0.972-0.119-2.171
			c0.01-1.199,0.079-2.168,0.159-2.168c0.077,0.001,0.129,0.972,0.119,2.17C390.583,204.304,390.512,205.275,390.436,205.275"/>
		<path clip-path="url(#SVGID_6_)" fill="#1B2F36" d="M394.208,201.117c0.068,0.035-0.332,0.962-0.988,2.016
			c-0.655,1.055-1.312,1.82-1.371,1.774c-0.064-0.046,0.488-0.879,1.136-1.922C393.635,201.943,394.138,201.081,394.208,201.117"/>
		<path clip-path="url(#SVGID_6_)" fill="#1B2F36" d="M396.104,204.645c0.048,0.058-0.547,0.623-1.329,1.263
			c-0.781,0.637-1.457,1.108-1.504,1.05c-0.047-0.062,0.547-0.627,1.33-1.267C395.384,205.054,396.056,204.583,396.104,204.645"/>
		<path clip-path="url(#SVGID_6_)" fill="#1B2F36" d="M396.295,208.105c0.026,0.072-0.598,0.377-1.394,0.676
			c-0.8,0.304-1.471,0.488-1.496,0.419c-0.026-0.073,0.598-0.376,1.396-0.678C395.6,208.22,396.27,208.032,396.295,208.105"/>
		<path clip-path="url(#SVGID_6_)" fill="#1B2F36" d="M395.742,210.97c0.034,0.064-0.442,0.35-1.104,0.4
			c-0.666,0.058-1.179-0.148-1.156-0.22c0.021-0.078,0.522-0.004,1.132-0.057C395.227,211.048,395.709,210.895,395.742,210.97"/>
		<path clip-path="url(#SVGID_6_)" fill="#1B2F36" d="M387.604,209.162c-0.015,0.074-0.757-0.027-1.656-0.227
			c-0.899-0.198-1.612-0.423-1.598-0.496c0.016-0.076,0.758,0.025,1.658,0.226C386.906,208.865,387.623,209.086,387.604,209.162"/>
		<path clip-path="url(#SVGID_6_)" fill="#1B2F36" d="M387.963,210.815c-0.014,0.076-0.731,0.014-1.605-0.138
			c-0.876-0.152-1.571-0.336-1.558-0.41c0.011-0.077,0.731-0.016,1.604,0.136S387.976,210.74,387.963,210.815"/>
		<path clip-path="url(#SVGID_6_)" fill="#1B2F36" d="M387.966,212.236c0.016,0.076-0.457,0.237-1.055,0.362
			c-0.6,0.125-1.098,0.166-1.113,0.091c-0.018-0.074,0.457-0.238,1.057-0.363C387.454,212.202,387.95,212.162,387.966,212.236"/>
		<path clip-path="url(#SVGID_6_)" fill="#1B2F36" d="M359.578,221.186c-0.071,0.028-0.416-0.655-0.767-1.527
			c-0.354-0.872-0.582-1.602-0.512-1.63c0.071-0.03,0.415,0.652,0.768,1.526C359.421,220.429,359.649,221.159,359.578,221.186"/>
		<path clip-path="url(#SVGID_6_)" fill="#1B2F36" d="M361.531,221.449c-0.075-0.019,0.044-0.801,0.267-1.75
			c0.222-0.95,0.464-1.704,0.536-1.688c0.077,0.018-0.044,0.801-0.265,1.75C361.847,220.711,361.606,221.465,361.531,221.449"/>
		<path clip-path="url(#SVGID_6_)" fill="#1B2F36" d="M357.955,222.9c-0.049,0.058-0.735-0.418-1.534-1.068
			c-0.797-0.648-1.407-1.223-1.358-1.282c0.048-0.06,0.733,0.418,1.534,1.066C357.395,222.268,358.003,222.841,357.955,222.9"/>
		<path clip-path="url(#SVGID_6_)" fill="#1B2F36" d="M357.681,223.981c-0.01,0.076-0.709,0.036-1.557-0.089
			c-0.849-0.125-1.527-0.289-1.517-0.363c0.011-0.077,0.709-0.037,1.558,0.088C357.012,223.742,357.694,223.904,357.681,223.981"/>
		<path clip-path="url(#SVGID_6_)" fill="#1B2F36" d="M357.5,226.334c-0.008,0.076-0.645,0.059-1.418-0.035
			c-0.775-0.095-1.396-0.235-1.385-0.31c0.008-0.077,0.645-0.063,1.419,0.034C356.89,226.12,357.51,226.257,357.5,226.334"/>
		<path clip-path="url(#SVGID_6_)" fill="#1B2F36" d="M357.59,228.919c0,0.077-0.508,0.135-1.133,0.129
			c-0.625-0.003-1.127-0.07-1.127-0.147c0-0.078,0.507-0.136,1.13-0.13C357.084,228.775,357.59,228.843,357.59,228.919"/>
		<path clip-path="url(#SVGID_6_)" fill="#1B2F36" d="M365.365,228.525c-0.002,0.077-0.511,0.119-1.136,0.094
			c-0.625-0.022-1.129-0.104-1.124-0.179c0.002-0.077,0.512-0.121,1.134-0.098C364.863,228.368,365.366,228.448,365.365,228.525"/>
		<path clip-path="url(#SVGID_6_)" fill="#1B2F36" d="M365.727,226.119c0,0.076-0.527,0.135-1.176,0.134
			c-0.649-0.002-1.176-0.065-1.176-0.143c0-0.076,0.528-0.137,1.177-0.135C365.202,225.977,365.727,226.042,365.727,226.119"/>
		<path clip-path="url(#SVGID_6_)" fill="#1B2F36" d="M366.085,222.988c0.033,0.068-0.548,0.408-1.297,0.759
			c-0.748,0.349-1.382,0.575-1.415,0.507c-0.033-0.071,0.549-0.41,1.298-0.76C365.42,223.145,366.054,222.917,366.085,222.988"/>
		<path clip-path="url(#SVGID_6_)" fill="#1B2F36" d="M365.204,220.667c0.05,0.057-0.378,0.522-0.96,1.037
			c-0.582,0.519-1.093,0.889-1.146,0.831c-0.051-0.057,0.379-0.521,0.962-1.038C364.639,220.979,365.154,220.607,365.204,220.667"/>
		<path clip-path="url(#SVGID_6_)" fill="#1B2F36" d="M371.154,219.565c0.022,0.069-0.604,0.301-1.414,0.322
			c-0.813,0.024-1.451-0.172-1.433-0.242c0.015-0.079,0.648-0.011,1.424-0.037C370.508,219.591,371.134,219.486,371.154,219.565"/>
		<path clip-path="url(#SVGID_6_)" fill="#1B2F36" d="M371.659,222.337c0.017,0.072-0.885,0.323-2.029,0.431
			c-1.146,0.112-2.078,0.037-2.078-0.039c0.001-0.079,0.922-0.127,2.049-0.236C370.731,222.386,371.644,222.259,371.659,222.337"/>
		<path clip-path="url(#SVGID_6_)" fill="#1B2F36" d="M372.158,224.664c0.013,0.074-0.97,0.293-2.195,0.484
			c-1.224,0.193-2.228,0.287-2.24,0.21c-0.011-0.074,0.971-0.293,2.196-0.484C371.144,224.683,372.146,224.587,372.158,224.664"/>
		<path clip-path="url(#SVGID_6_)" fill="#1B2F36" d="M382.211,221.339c-0.002,0.076-0.491,0.125-1.094,0.104
			c-0.601-0.017-1.088-0.094-1.084-0.169c0.001-0.077,0.492-0.125,1.093-0.106C381.729,221.185,382.213,221.262,382.211,221.339"/>
		<path clip-path="url(#SVGID_6_)" fill="#1B2F36" d="M382.548,222.594c0.004,0.076-0.366,0.157-0.831,0.181
			c-0.462,0.022-0.841-0.021-0.846-0.098c-0.004-0.077,0.368-0.158,0.831-0.181C382.166,222.474,382.544,222.517,382.548,222.594"/>
		<path clip-path="url(#SVGID_6_)" fill="#1B2F36" d="M388.41,215.204c0,0.072-0.967,0.132-2.138-0.057
			c-1.171-0.183-2.074-0.54-2.05-0.607c0.022-0.078,0.944,0.153,2.095,0.333C387.468,215.058,388.41,215.123,388.41,215.204"/>
		<path clip-path="url(#SVGID_6_)" fill="#1B2F36" d="M396.707,213.72c0.01,0.077-0.676,0.23-1.532,0.344
			c-0.854,0.114-1.558,0.145-1.568,0.068c-0.012-0.074,0.677-0.23,1.532-0.343C395.993,213.677,396.697,213.644,396.707,213.72"/>
		<path clip-path="url(#SVGID_6_)" fill="#1B2F36" d="M371.318,230.05c-0.014,0.075-0.794-0.013-1.743-0.197
			c-0.949-0.184-1.707-0.393-1.691-0.47c0.015-0.075,0.796,0.014,1.743,0.198C370.576,229.763,371.334,229.973,371.318,230.05"/>
		<path clip-path="url(#SVGID_6_)" fill="#1D1635" d="M720.986,214.106v18.65c-1.596,0-2.889-1.294-2.889-2.887v-8.156
			c0-1.247-1.011-2.258-2.26-2.258c-1.243,0-2.257,1.011-2.257,2.258v7.079c0,3.99,3.234,7.228,7.226,7.228h0.053v23.09h6.146
			v-9.289h1.93c3.322,0,6.043-2.652,6.124-5.977l0.294-12.294c0.035-1.403-1.093-2.559-2.496-2.559c-1.41,0-2.542,1.163-2.499,2.571
			c0.117,3.875,0.271,10.999-0.086,13.243c-0.501,3.135-3.138,2.258-3.138,2.258s1.021-22.812,1.225-32.883
			c0.045-2.066-1.62-3.76-3.688-3.76C722.634,210.418,720.986,212.069,720.986,214.106"/>
		<path clip-path="url(#SVGID_6_)" fill="#1B2F36" d="M727.462,214.624c0,0.044,0.326,0.081,0.732,0.081
			c0.402,0,0.733-0.036,0.733-0.081c0-0.042-0.331-0.078-0.733-0.078C727.788,214.545,727.462,214.582,727.462,214.624"/>
		<path clip-path="url(#SVGID_6_)" fill="#1B2F36" d="M727.729,216.311c0,0.042,0.288,0.079,0.642,0.079
			c0.355,0,0.646-0.037,0.646-0.079c0-0.044-0.29-0.081-0.646-0.081C728.018,216.23,727.729,216.267,727.729,216.311"/>
		<path clip-path="url(#SVGID_6_)" fill="#1B2F36" d="M720.23,215.157c0,0.042,0.296,0.078,0.663,0.078
			c0.368,0,0.665-0.036,0.665-0.078c0-0.044-0.297-0.081-0.665-0.081C720.526,215.077,720.23,215.113,720.23,215.157"/>
		<path clip-path="url(#SVGID_6_)" fill="#1B2F36" d="M720.273,213.25c0,0.042,0.218,0.078,0.487,0.078s0.487-0.036,0.487-0.078
			c0-0.044-0.218-0.082-0.487-0.082S720.273,213.205,720.273,213.25"/>
		<path clip-path="url(#SVGID_6_)" fill="#1B2F36" d="M727.554,213.253c0.023,0.038,0.377-0.132,0.796-0.376
			c0.416-0.247,0.735-0.476,0.712-0.513c-0.023-0.036-0.376,0.131-0.793,0.375C727.85,212.985,727.53,213.215,727.554,213.253"/>
		<path clip-path="url(#SVGID_6_)" fill="#1B2F36" d="M726.165,211.729c0.031,0.028,0.301-0.254,0.604-0.631
			c0.297-0.375,0.514-0.701,0.479-0.728c-0.032-0.028-0.303,0.254-0.605,0.63C726.345,211.375,726.128,211.702,726.165,211.729"/>
		<path clip-path="url(#SVGID_6_)" fill="#1B2F36" d="M724.46,211.252c0.044,0.001,0.089-0.436,0.1-0.975
			c0.011-0.54-0.017-0.977-0.061-0.979c-0.045,0-0.088,0.437-0.098,0.977C724.392,210.812,724.418,211.252,724.46,211.252"/>
		<path clip-path="url(#SVGID_6_)" fill="#1B2F36" d="M722.04,209.882c-0.039,0.023,0.149,0.389,0.423,0.818
			c0.27,0.428,0.52,0.756,0.555,0.733c0.037-0.024-0.153-0.391-0.423-0.818C722.326,210.186,722.078,209.857,722.04,209.882"/>
		<path clip-path="url(#SVGID_6_)" fill="#1B2F36" d="M721.159,211.521c-0.031,0.033,0.156,0.247,0.418,0.475
			c0.26,0.233,0.49,0.392,0.522,0.357c0.027-0.032-0.158-0.243-0.419-0.474C721.423,211.648,721.188,211.488,721.159,211.521"/>
		<path clip-path="url(#SVGID_6_)" fill="#1B2F36" d="M727.286,218.759c0.001,0.042,0.487,0.068,1.09,0.056
			c0.599-0.012,1.083-0.056,1.083-0.1c-0.002-0.043-0.488-0.07-1.09-0.058C727.77,218.669,727.286,218.715,727.286,218.759"/>
		<path clip-path="url(#SVGID_6_)" fill="#1B2F36" d="M719.253,217.021c0,0.044,0.596,0.081,1.33,0.081s1.33-0.037,1.33-0.081
			c0-0.042-0.596-0.079-1.33-0.079S719.253,216.978,719.253,217.021"/>
		<path clip-path="url(#SVGID_6_)" fill="#1B2F36" d="M720.585,218.619c0,0.042,0.198,0.078,0.442,0.078
			c0.246,0,0.443-0.036,0.443-0.078c0-0.045-0.197-0.082-0.443-0.082C720.783,218.537,720.585,218.574,720.585,218.619"/>
		<path clip-path="url(#SVGID_6_)" fill="#1B2F36" d="M726.798,220.615c0,0.042,0.527,0.079,1.177,0.079
			c0.646,0,1.174-0.037,1.174-0.079s-0.527-0.079-1.174-0.079C727.325,220.537,726.798,220.573,726.798,220.615"/>
		<path clip-path="url(#SVGID_6_)" fill="#1B2F36" d="M725.998,222.022c0,0.044,0.635,0.081,1.42,0.081
			c0.787,0,1.421-0.036,1.421-0.081c0-0.042-0.634-0.079-1.421-0.079C726.633,221.943,725.998,221.979,725.998,222.022"/>
		<path clip-path="url(#SVGID_6_)" fill="#1B2F36" d="M719.641,221.195c0,0.043,0.461,0.078,1.034,0.078
			c0.57,0,1.031-0.035,1.031-0.078c0-0.043-0.461-0.08-1.031-0.08C720.102,221.116,719.641,221.152,719.641,221.195"/>
		<path clip-path="url(#SVGID_6_)" fill="#1B2F36" d="M720.364,222.747c0,0.042,0.207,0.079,0.463,0.079
			c0.258,0,0.466-0.036,0.466-0.079c0-0.044-0.208-0.081-0.466-0.081C720.571,222.666,720.364,222.702,720.364,222.747"/>
		<path clip-path="url(#SVGID_6_)" fill="#1B2F36" d="M727.29,224.193c0,0.042,0.403,0.079,0.904,0.079
			c0.498,0,0.905-0.036,0.905-0.079c0-0.042-0.407-0.079-0.905-0.079C727.693,224.114,727.29,224.151,727.29,224.193"/>
		<path clip-path="url(#SVGID_6_)" fill="#1B2F36" d="M727.238,225.589c0,0.042,0.291,0.078,0.645,0.078
			c0.358,0,0.648-0.036,0.648-0.078c0-0.044-0.29-0.081-0.648-0.081C727.529,225.508,727.238,225.544,727.238,225.589"/>
		<path clip-path="url(#SVGID_6_)" fill="#1B2F36" d="M720.415,225.167c0.002,0.042,0.271,0.068,0.599,0.053
			c0.328-0.013,0.592-0.062,0.59-0.104c-0.001-0.045-0.268-0.068-0.598-0.054C720.678,225.075,720.414,225.121,720.415,225.167"/>
		<path clip-path="url(#SVGID_6_)" fill="#1B2F36" d="M726.309,227.708c0,0.042,0.546,0.079,1.214,0.079
			c0.672,0,1.214-0.037,1.214-0.079c0-0.044-0.542-0.079-1.214-0.079C726.854,227.629,726.309,227.664,726.309,227.708"/>
		<path clip-path="url(#SVGID_6_)" fill="#1B2F36" d="M719.949,228.225c0,0.042,0.486,0.079,1.086,0.079s1.083-0.036,1.083-0.079
			c0-0.044-0.483-0.081-1.083-0.081S719.949,228.181,719.949,228.225"/>
		<path clip-path="url(#SVGID_6_)" fill="#1B2F36" d="M721.14,229.414c-0.032,0.029-0.023,0.09,0.02,0.133
			c0.041,0.042,0.103,0.053,0.132,0.021c0.035-0.03,0.024-0.09-0.021-0.133C721.23,229.391,721.17,229.383,721.14,229.414"/>
		<path clip-path="url(#SVGID_6_)" fill="#1B2F36" d="M716.644,221.764c0.014,0.039,0.502-0.123,1.015-0.491
			c0.512-0.365,0.823-0.775,0.792-0.803c-0.031-0.031-0.391,0.322-0.886,0.673C717.07,221.499,716.621,221.721,716.644,221.764"/>
		<path clip-path="url(#SVGID_6_)" fill="#1B2F36" d="M716.529,221.19c0.035,0.021,0.363-0.459,0.629-1.122
			c0.27-0.664,0.369-1.237,0.327-1.246c-0.043-0.012-0.208,0.536-0.476,1.187C716.749,220.658,716.487,221.167,716.529,221.19"/>
		<path clip-path="url(#SVGID_6_)" fill="#1B2F36" d="M715.747,221.143c0.043,0,0.073-0.557,0.066-1.242
			c-0.006-0.685-0.045-1.24-0.091-1.24c-0.04,0.001-0.072,0.557-0.064,1.242C715.665,220.588,715.703,221.143,715.747,221.143"/>
		<path clip-path="url(#SVGID_6_)" fill="#1B2F36" d="M713.592,218.766c-0.042,0.018,0.187,0.55,0.562,1.152
			c0.378,0.604,0.751,1.042,0.786,1.015c0.037-0.026-0.28-0.5-0.648-1.099C713.917,219.24,713.63,218.746,713.592,218.766"/>
		<path clip-path="url(#SVGID_6_)" fill="#1B2F36" d="M712.508,220.784c-0.033,0.034,0.31,0.356,0.758,0.721
			c0.448,0.365,0.833,0.633,0.86,0.601c0.025-0.035-0.313-0.358-0.761-0.724C712.918,221.017,712.534,220.749,712.508,220.784"/>
		<path clip-path="url(#SVGID_6_)" fill="#1B2F36" d="M712.396,222.763c-0.016,0.042,0.345,0.213,0.8,0.386
			c0.456,0.173,0.84,0.281,0.852,0.237c0.016-0.039-0.342-0.214-0.795-0.386C712.793,222.828,712.412,222.719,712.396,222.763"/>
		<path clip-path="url(#SVGID_6_)" fill="#1B2F36" d="M712.715,224.399c-0.022,0.039,0.251,0.2,0.629,0.229
			c0.381,0.032,0.676-0.085,0.661-0.125c-0.009-0.044-0.299-0.002-0.648-0.033C713.009,224.444,712.732,224.357,712.715,224.399"/>
		<path clip-path="url(#SVGID_6_)" fill="#1B2F36" d="M717.365,223.366c0.01,0.043,0.435-0.015,0.947-0.13
			c0.516-0.115,0.926-0.242,0.915-0.284c-0.01-0.042-0.435,0.016-0.95,0.129C717.762,223.197,717.356,223.324,717.365,223.366"/>
		<path clip-path="url(#SVGID_6_)" fill="#1B2F36" d="M717.163,224.312c0.007,0.042,0.418,0.008,0.916-0.079
			s0.897-0.192,0.891-0.235c-0.008-0.044-0.42-0.007-0.919,0.079C717.551,224.162,717.152,224.269,717.163,224.312"/>
		<path clip-path="url(#SVGID_6_)" fill="#1B2F36" d="M717.158,225.124c-0.008,0.042,0.262,0.135,0.604,0.208
			c0.345,0.07,0.626,0.094,0.636,0.051c0.008-0.042-0.263-0.136-0.604-0.206C717.454,225.103,717.169,225.081,717.158,225.124"/>
		<path clip-path="url(#SVGID_6_)" fill="#1B2F36" d="M733.389,230.241c0.043,0.016,0.236-0.375,0.44-0.874
			c0.2-0.5,0.333-0.915,0.29-0.932c-0.038-0.017-0.235,0.374-0.438,0.873C733.479,229.806,733.348,230.224,733.389,230.241"/>
		<path clip-path="url(#SVGID_6_)" fill="#1B2F36" d="M732.274,230.391c0.039-0.012-0.027-0.459-0.152-1.001
			c-0.13-0.543-0.264-0.974-0.31-0.964c-0.042,0.01,0.024,0.457,0.152,1C732.091,229.97,732.229,230.401,732.274,230.391"/>
		<path clip-path="url(#SVGID_6_)" fill="#1B2F36" d="M734.319,231.222c0.027,0.034,0.42-0.242,0.876-0.612
			c0.454-0.372,0.806-0.699,0.775-0.732c-0.027-0.035-0.42,0.241-0.875,0.61C734.638,230.858,734.289,231.187,734.319,231.222"/>
		<path clip-path="url(#SVGID_6_)" fill="#1B2F36" d="M734.475,231.839c0.006,0.042,0.402,0.02,0.89-0.052
			c0.486-0.072,0.874-0.165,0.867-0.208c-0.009-0.044-0.405-0.022-0.891,0.05C734.854,231.701,734.467,231.796,734.475,231.839"/>
		<path clip-path="url(#SVGID_6_)" fill="#1B2F36" d="M734.577,233.184c0.006,0.042,0.37,0.035,0.81-0.02
			c0.446-0.055,0.799-0.134,0.794-0.178c-0.005-0.043-0.37-0.035-0.813,0.02C734.927,233.06,734.571,233.142,734.577,233.184"/>
		<path clip-path="url(#SVGID_6_)" fill="#1B2F36" d="M734.526,234.662c0,0.044,0.29,0.078,0.645,0.074
			c0.36-0.004,0.648-0.041,0.648-0.085c0-0.044-0.29-0.077-0.649-0.073C734.816,234.579,734.526,234.62,734.526,234.662"/>
		<path clip-path="url(#SVGID_6_)" fill="#1B2F36" d="M730.081,234.438c0,0.042,0.295,0.068,0.647,0.053
			c0.359-0.011,0.647-0.058,0.645-0.104c-0.001-0.044-0.294-0.068-0.652-0.054C730.368,234.346,730.08,234.393,730.081,234.438"/>
		<path clip-path="url(#SVGID_6_)" fill="#1B2F36" d="M729.874,233.06c0,0.043,0.3,0.079,0.672,0.077c0.371,0,0.675-0.038,0.67-0.08
			c0-0.045-0.299-0.079-0.67-0.079C730.174,232.979,729.874,233.019,729.874,233.06"/>
		<path clip-path="url(#SVGID_6_)" fill="#1B2F36" d="M729.669,231.27c-0.02,0.041,0.313,0.233,0.742,0.435
			c0.429,0.199,0.791,0.33,0.81,0.289c0.017-0.041-0.314-0.234-0.744-0.433C730.05,231.362,729.688,231.23,729.669,231.27"/>
		<path clip-path="url(#SVGID_6_)" fill="#1B2F36" d="M730.174,229.943c-0.033,0.031,0.216,0.298,0.546,0.593
			c0.336,0.295,0.628,0.507,0.657,0.475c0.027-0.034-0.218-0.298-0.551-0.592C730.495,230.124,730.203,229.909,730.174,229.943"/>
		<path clip-path="url(#SVGID_6_)" fill="#1B2F36" d="M726.771,229.313c-0.014,0.041,0.346,0.173,0.808,0.184
			c0.467,0.013,0.829-0.097,0.822-0.139c-0.012-0.045-0.374-0.004-0.817-0.019C727.141,229.328,726.782,229.27,726.771,229.313"/>
		<path clip-path="url(#SVGID_6_)" fill="#1B2F36" d="M726.483,230.899c-0.011,0.042,0.506,0.184,1.159,0.247
			c0.653,0.062,1.187,0.02,1.187-0.023c0-0.044-0.527-0.073-1.17-0.137C727.015,230.927,726.491,230.855,726.483,230.899"/>
		<path clip-path="url(#SVGID_6_)" fill="#1B2F36" d="M726.196,232.229c-0.004,0.043,0.554,0.168,1.256,0.276
			c0.702,0.112,1.274,0.165,1.283,0.122c0.004-0.042-0.561-0.167-1.256-0.276C726.778,232.239,726.203,232.187,726.196,232.229"/>
		<path clip-path="url(#SVGID_6_)" fill="#1B2F36" d="M720.45,230.328c0,0.045,0.28,0.07,0.625,0.06
			c0.341-0.01,0.619-0.054,0.617-0.099c0-0.042-0.277-0.071-0.621-0.059C720.726,230.241,720.45,230.285,720.45,230.328"/>
		<path clip-path="url(#SVGID_6_)" fill="#1B2F36" d="M720.257,231.047c-0.001,0.042,0.211,0.088,0.474,0.102
			c0.265,0.012,0.483-0.012,0.485-0.057c0.002-0.044-0.21-0.088-0.479-0.103C720.474,230.977,720.259,231.002,720.257,231.047"/>
		<path clip-path="url(#SVGID_6_)" fill="#1B2F36" d="M716.907,226.821c0,0.042,0.548,0.075,1.219-0.033
			c0.673-0.106,1.186-0.307,1.175-0.348c-0.014-0.044-0.54,0.087-1.198,0.19C717.446,226.736,716.907,226.774,716.907,226.821"/>
		<path clip-path="url(#SVGID_6_)" fill="#1B2F36" d="M712.161,225.971c-0.004,0.045,0.386,0.131,0.878,0.198
			c0.489,0.065,0.89,0.081,0.896,0.04c0.007-0.045-0.388-0.132-0.879-0.196C712.566,225.945,712.168,225.93,712.161,225.971"/>
		<path clip-path="url(#SVGID_6_)" fill="#1B2F36" d="M726.677,235.308c0.009,0.043,0.454-0.007,0.996-0.113
			c0.544-0.104,0.977-0.224,0.969-0.266c-0.009-0.043-0.455,0.005-0.998,0.11C727.102,235.145,726.67,235.266,726.677,235.308"/>
		<path clip-path="url(#SVGID_6_)" fill="#1B2F36" d="M105.272,328.025c0.055-0.047,0.689,0.59,1.792,1.783
			c1.112,1.186,2.632,2.984,4.4,5.291c1.799,2.293,3.732,5.174,5.743,8.457c1.947,3.326,3.887,7.104,5.581,11.219
			c3.409,8.238,5.03,16.197,5.813,21.949c0.359,2.883,0.583,5.225,0.633,6.852c0.075,1.623,0.083,2.523,0.01,2.527
			c-0.188,0.012-0.454-3.568-1.38-9.27c-0.965-5.684-2.683-13.523-6.051-21.662c-1.676-4.064-3.563-7.807-5.443-11.127
			c-1.945-3.275-3.796-6.174-5.503-8.502c-1.68-2.35-3.105-4.209-4.118-5.471C105.748,328.801,105.218,328.076,105.272,328.025"/>
		<path clip-path="url(#SVGID_6_)" fill="#1B2F36" d="M133.494,341.174c0.163,0.02-0.088,2.539-0.322,6.613
			c-0.239,4.074-0.393,9.711-0.088,15.926c0.317,6.215,1.03,11.807,1.67,15.838c0.639,4.029,1.138,6.514,0.98,6.553
			c-0.069,0.014-0.276-0.584-0.589-1.691c-0.319-1.102-0.708-2.719-1.122-4.73c-0.835-4.018-1.672-9.648-1.99-15.918
			c-0.307-6.266-0.034-11.951,0.397-16.035c0.212-2.041,0.436-3.689,0.646-4.816C133.278,341.783,133.421,341.162,133.494,341.174"
			/>
		<path clip-path="url(#SVGID_6_)" fill="#1B2F36" d="M159.22,335.232c0.156,0.156-2.132,2.094-4.813,6.014
			c-1.395,1.918-2.683,4.445-3.989,7.289c-1.219,2.893-2.302,6.174-3.171,9.695c-1.696,7.059-2.252,13.656-2.541,18.42
			c-0.272,4.77-0.299,7.732-0.465,7.732c-0.073,0-0.146-0.738-0.217-2.076c-0.076-1.342-0.107-3.287-0.063-5.686
			c0.099-4.795,0.54-11.467,2.262-18.639c0.881-3.578,2.013-6.91,3.307-9.836c1.38-2.883,2.768-5.426,4.268-7.332
			c0.682-1.002,1.418-1.814,2.062-2.527c0.62-0.73,1.206-1.314,1.728-1.748C158.598,335.643,159.173,335.176,159.22,335.232"/>
		<path clip-path="url(#SVGID_6_)" fill="#1B2F36" d="M324.742,285.109c0.064-0.085,1.474,0.792,3.31,2.733
			c1.823,1.94,3.921,5.062,5.368,8.861c1.468,3.793,2.22,7.38,2.726,9.957c0.491,2.588,0.722,4.195,0.58,4.23
			c-0.143,0.037-0.63-1.525-1.306-4.061c-0.689-2.531-1.55-6.052-2.979-9.742c-1.412-3.705-3.321-6.748-4.953-8.759
			C325.853,286.321,324.623,285.249,324.742,285.109"/>
		<path clip-path="url(#SVGID_6_)" fill="#1B2F36" d="M337.465,281.446c0.291-0.023,0.988,5.956,1.56,13.352
			c0.573,7.396,0.799,13.41,0.51,13.433c-0.288,0.021-0.988-5.955-1.56-13.352C337.405,287.482,337.175,281.467,337.465,281.446"/>
		<path clip-path="url(#SVGID_6_)" fill="#1B2F36" d="M353.847,264.32c0.149,0.174-2.043,1.612-4.202,5.067
			c-2.175,3.437-3.908,8.882-4.778,15.064c-0.879,6.189-1.075,11.88-1.253,15.994c-0.153,4.115-0.269,6.667-0.421,6.667
			c-0.137,0-0.286-2.551-0.323-6.681c-0.013-4.125,0.065-9.854,0.955-16.135c0.88-6.265,2.777-11.862,5.197-15.314
			c1.196-1.724,2.403-2.94,3.314-3.665C353.275,264.615,353.805,264.261,353.847,264.32"/>
		<path clip-path="url(#SVGID_6_)" fill="#1B2F36" d="M215.499,281.457c-0.15,0.062-0.91-1.559-2.357-4.045
			c-1.432-2.494-3.604-5.826-6.292-9.294c-2.699-3.462-5.391-6.391-7.455-8.393c-2.053-2.016-3.437-3.152-3.339-3.283
			c0.072-0.104,1.629,0.83,3.843,2.735c2.222,1.889,5.048,4.784,7.783,8.294c2.724,3.516,4.833,6.969,6.118,9.589
			C215.097,279.673,215.619,281.413,215.499,281.457"/>
		<path clip-path="url(#SVGID_6_)" fill="#1B2F36" d="M223.343,280.868c-0.145,0.05-0.926-1.82-2.205-4.828
			c-1.277-3.007-3.087-7.14-5.264-11.617c-2.186-4.478-4.325-8.447-5.907-11.308c-1.58-2.86-2.571-4.629-2.442-4.712
			c0.114-0.073,1.329,1.557,3.083,4.334c1.753,2.773,4.012,6.716,6.211,11.224c2.193,4.508,3.905,8.714,5.011,11.808
			C222.939,278.86,223.472,280.824,223.343,280.868"/>
		<path clip-path="url(#SVGID_6_)" fill="#1B2F36" d="M227.75,280.868c-0.121,0.019-0.666-2.201-1.052-5.872
			c-0.384-3.664-0.533-8.813,0.352-14.41c0.465-2.793,1.166-5.408,1.979-7.724c0.853-2.302,1.796-4.312,2.755-5.9
			c0.947-1.593,1.813-2.822,2.499-3.599c0.671-0.789,1.063-1.2,1.12-1.153c0.153,0.119-1.276,1.896-2.967,5.111
			c-1.706,3.206-3.462,7.953-4.348,13.433c-0.864,5.482-0.841,10.543-0.647,14.187C227.633,278.586,227.917,280.841,227.75,280.868"
			/>
		<path clip-path="url(#SVGID_6_)" fill="#1B2F36" d="M773.974,309.121c-0.25,0.152-3.413-4.541-7.059-10.484
			c-3.652-5.941-6.407-10.88-6.162-11.033c0.25-0.152,3.404,4.542,7.056,10.486C771.46,304.031,774.218,308.971,773.974,309.121"/>
		<path clip-path="url(#SVGID_6_)" fill="#1B2F36" d="M780.463,307.033c-0.28,0.086-2.414-5.953-4.772-13.487
			c-2.361-7.535-4.045-13.712-3.772-13.799c0.282-0.087,2.418,5.949,4.776,13.484C779.053,300.766,780.739,306.945,780.463,307.033"
			/>
		<path clip-path="url(#SVGID_6_)" fill="#1B2F36" d="M788.489,275.742c0.147,0.02,0.002,1.933-0.25,5.011
			c-0.254,3.079-0.587,7.33-0.824,12.032c-0.232,4.705-0.325,8.968-0.383,12.056c-0.054,3.09-0.1,5.006-0.25,5.012
			c-0.139,0.004-0.357-1.902-0.492-5.002c-0.136-3.098-0.16-7.386,0.072-12.121c0.237-4.727,0.693-8.992,1.138-12.061
			C787.94,277.6,788.352,275.721,788.489,275.742"/>
		<path clip-path="url(#SVGID_6_)" fill="#B684BA" d="M965.866,353.814c3.148,1.367,5.465,4.279,6.627,7.512
			s1.266,6.76,0.881,10.174c-0.746,6.598-4.5,13.264-8.539,18.537c-5.559-4.85-6.838-13.311-7.216-17.646
			C957.02,365.539,960.096,352.795,965.866,353.814"/>
		<path clip-path="url(#SVGID_6_)" fill="#B684BA" d="M971.299,400.932c-0.892-3.729,0.663-7.82,3.526-10.373
			c2.863-2.551,6.866-3.631,10.688-3.34c1.771,0.137,3.682,0.65,4.694,2.107c0.945,1.361,0.842,3.264,0.073,4.73
			c-0.77,1.471-2.098,2.568-3.502,3.449C981.959,400.529,976.742,402.57,971.299,400.932"/>
		<path clip-path="url(#SVGID_6_)" fill="#1B2F36" d="M964.169,421.178c-0.035-0.008,0.042-0.49,0.199-1.355
			c0.175-0.953,0.399-2.184,0.672-3.668c0.612-3.063,1.402-7.451,3.783-11.709c2.348-4.25,5.638-7.381,8.405-8.934
			c1.374-0.795,2.575-1.27,3.425-1.516c0.42-0.141,0.761-0.193,0.989-0.252c0.227-0.049,0.347-0.063,0.351-0.049
			c0.042,0.109-1.926,0.463-4.588,2.107c-2.675,1.6-5.853,4.695-8.162,8.877c-2.335,4.168-3.175,8.498-3.87,11.545
			c-0.336,1.539-0.61,2.781-0.824,3.637C964.34,420.715,964.202,421.186,964.169,421.178"/>
		<path clip-path="url(#SVGID_6_)" fill="#1B2F36" d="M964.38,363.727c0.015,0,0.038,0.207,0.064,0.592
			c0.027,0.441,0.059,1.006,0.102,1.703c0.08,1.479,0.167,3.619,0.251,6.262c0.171,5.289,0.305,12.602,0.273,20.676
			c-0.037,8.08-0.233,15.393-0.453,20.682c-0.108,2.643-0.21,4.781-0.304,6.256c-0.049,0.699-0.084,1.264-0.116,1.703
			c-0.031,0.389-0.056,0.592-0.074,0.592c-0.017,0-0.025-0.205-0.025-0.596c0.009-0.441,0.017-1.006,0.028-1.705
			c0.039-1.537,0.088-3.664,0.15-6.262c0.132-5.289,0.276-12.598,0.312-20.672c0.03-8.066-0.045-15.377-0.13-20.666
			c-0.04-2.6-0.073-4.725-0.101-6.262c-0.005-0.697-0.009-1.266-0.01-1.709C964.351,363.936,964.358,363.727,964.38,363.727"/>
		<path clip-path="url(#SVGID_6_)" fill="#B684BA" d="M961.681,404.955c-1.266-7.99-6.649-15.211-13.944-18.705
			c-1.854-0.889-4.282-1.469-5.808-0.088c-1.53,1.383-1.187,3.867-0.438,5.789c3.113,8.002,11.476,13.648,20.059,13.547"/>
		<path clip-path="url(#SVGID_6_)" fill="#1B2F36" d="M948.64,392.512c0.014-0.029,0.433,0.154,1.179,0.518
			c0.376,0.176,0.832,0.393,1.331,0.707c0.502,0.314,1.104,0.617,1.699,1.066c0.605,0.426,1.282,0.883,1.943,1.459
			c0.688,0.539,1.36,1.189,2.063,1.877c1.369,1.414,2.75,3.098,3.929,5.045c1.16,1.961,1.998,3.969,2.585,5.85
			c0.264,0.947,0.52,1.848,0.652,2.717c0.188,0.854,0.258,1.668,0.332,2.406c0.104,0.736,0.069,1.414,0.093,2.002
			c0.03,0.588-0.011,1.098-0.042,1.508c-0.059,0.83-0.111,1.285-0.143,1.281c-0.109-0.004,0.08-1.84-0.245-4.756
			c-0.095-0.727-0.184-1.529-0.385-2.365c-0.148-0.848-0.415-1.734-0.685-2.662c-0.604-1.84-1.439-3.809-2.577-5.732
			c-1.159-1.91-2.502-3.576-3.832-4.98c-0.684-0.688-1.333-1.34-2.004-1.879c-0.637-0.59-1.297-1.053-1.882-1.49
			C950.264,393.367,948.59,392.604,948.64,392.512"/>
		<path clip-path="url(#SVGID_6_)" fill="#935DA6" d="M223.941,322.551c-2.407,2.936-6.549,1.588-8.362-0.457
			c-1.813-2.039-2.43-4.846-2.984-7.52c-1.265-6.107-2.522-12.512-0.782-18.501c0.522-1.791,1.34-3.553,2.723-4.808
			c1.381-1.252,3.408-1.907,5.171-1.295c2.086,0.726,3.248,2.909,4.055,4.965c2.365,6.042,3.362,12.614,2.891,19.086
			C226.431,317.041,225.835,320.184,223.941,322.551"/>
		<g opacity="0.2" clip-path="url(#SVGID_6_)">
			<g>
				<defs>
					<rect id="SVGID_7_" x="210.958" y="289.738" width="15.807" height="34.51"/>
				</defs>
				<clipPath id="SVGID_8_">
					<use xlink:href="#SVGID_7_"  overflow="visible"/>
				</clipPath>
				<path clip-path="url(#SVGID_8_)" fill="#B684BA" d="M223.941,322.551c-2.407,2.936-6.549,1.588-8.362-0.457
					c-1.813-2.039-2.43-4.846-2.984-7.52c-1.265-6.107-2.522-12.512-0.782-18.501c0.522-1.791,1.34-3.553,2.723-4.808
					c1.381-1.252,3.408-1.907,5.171-1.295c2.086,0.726,3.248,2.909,4.055,4.965c2.365,6.042,3.362,12.614,2.891,19.086
					C226.431,317.041,225.835,320.184,223.941,322.551"/>
			</g>
		</g>
		<path clip-path="url(#SVGID_6_)" fill="#B684BA" d="M214.611,337.635c-3.412-2.102-7.577-2.658-11.567-2.307
			c-2.145,0.189-4.4,0.656-5.963,2.139c-1.562,1.48-2.047,4.258-0.497,5.75c0.924,0.889,2.287,1.119,3.566,1.197
			c3.088,0.201,6.554-0.082,8.877,1.963c1.326,1.168,2.129,3,3.772,3.648c1.605,0.635,3.538-0.193,4.523-1.615
			c0.986-1.418,1.156-3.271,0.874-4.977C218.196,343.434,218.047,339.754,214.611,337.635"/>
		<path clip-path="url(#SVGID_6_)" fill="#B684BA" d="M229.565,327.453c-2.145-2.977-2.28-7.094-0.967-10.518
			c1.317-3.426,3.914-6.229,6.831-8.453c3.419-2.611,7.352-4.547,11.509-5.662c1.635-0.438,3.347-0.752,5.017-0.465
			c1.667,0.289,3.295,1.277,3.966,2.832c0.99,2.299-0.327,4.896-1.694,6.992c-2.412,3.691-5.113,7.195-8.072,10.463
			c-2.381,2.633-5.076,5.201-8.476,6.211c-3.4,1.014-6.82,0.604-8.4-1.82"/>
		<path clip-path="url(#SVGID_6_)" fill="#1B2F36" d="M220.529,369.344c-0.042,0-0.068-0.51-0.088-1.428
			c-0.022-1.029-0.051-2.326-0.083-3.871c-0.055-1.633-0.146-3.576-0.435-5.707c-0.289-2.127-0.819-4.447-1.545-6.813
			c-0.758-2.359-1.738-4.521-2.94-6.283c-1.192-1.773-2.636-3.098-4.027-3.902c-1.384-0.816-2.651-1.207-3.533-1.402
			c-0.894-0.16-1.391-0.27-1.389-0.311c0.004-0.039,0.509-0.008,1.431,0.088c0.909,0.131,2.236,0.463,3.7,1.27
			c1.469,0.789,3.003,2.139,4.259,3.949c1.267,1.801,2.283,4.014,3.055,6.414c0.738,2.41,1.255,4.75,1.521,6.918
			c0.265,2.168,0.313,4.127,0.317,5.771c-0.004,1.645-0.059,2.971-0.105,3.885C220.616,368.836,220.569,369.344,220.529,369.344"/>
		<path clip-path="url(#SVGID_6_)" fill="#1B2F36" d="M220.489,366.363c-0.02,0-0.014-0.229,0.012-0.658
			c0.039-0.49,0.087-1.107,0.147-1.867c0.127-1.625,0.306-3.971,0.439-6.879c0.297-5.811,0.408-13.854,0.113-22.725
			c-0.301-8.877-0.986-16.895-1.729-22.664c-0.17-1.445-0.352-2.748-0.528-3.889c-0.165-1.145-0.306-2.131-0.453-2.93
			c-0.123-0.756-0.218-1.367-0.298-1.854c-0.063-0.422-0.085-0.65-0.065-0.654c0.019-0.004,0.081,0.215,0.181,0.631
			c0.106,0.486,0.239,1.09,0.406,1.834c0.181,0.797,0.354,1.777,0.552,2.918c0.208,1.139,0.42,2.443,0.615,3.889
			c0.848,5.768,1.6,13.801,1.904,22.695c0.294,8.893,0.119,16.953-0.286,22.77c-0.185,2.91-0.425,5.262-0.626,6.881
			c-0.103,0.756-0.188,1.369-0.256,1.857C220.554,366.146,220.509,366.365,220.489,366.363"/>
		<path clip-path="url(#SVGID_6_)" fill="#1B2F36" d="M221.627,350.873c-0.041-0.004,0.021-0.697,0.164-1.953
			c0.168-1.248,0.478-3.049,1.001-5.242c0.544-2.191,1.266-4.783,2.307-7.58c1-2.814,2.313-5.83,3.919-8.881
			c3.157-6.139,7.184-11.049,10.59-14.021c0.804-0.797,1.678-1.35,2.385-1.902c0.362-0.262,0.687-0.527,1.012-0.734
			c0.326-0.188,0.629-0.363,0.911-0.527c1.093-0.631,1.705-0.963,1.724-0.928c0.083,0.133-2.451,1.377-5.757,4.398
			c-3.295,3.016-7.219,7.898-10.35,13.988c-1.593,3.021-2.909,6.01-3.93,8.791c-1.061,2.77-1.821,5.332-2.414,7.498
			c-0.57,2.166-0.939,3.945-1.176,5.182C221.804,350.195,221.668,350.879,221.627,350.873"/>
	</g>
	<g>
		<defs>
			<rect id="SVGID_9_" x="36.195" y="-54.338" width="1010.724" height="1010.723"/>
		</defs>
		<clipPath id="SVGID_10_">
			<use xlink:href="#SVGID_9_"  overflow="visible"/>
		</clipPath>
		<path clip-path="url(#SVGID_10_)" fill="#1B2F36" d="M540.577,21.082c-0.006,0.074-1.187,0.053-3.325,0.004
			c-2.136-0.024-5.236-0.059-9.05,0.282c-3.804,0.327-8.334,1.124-13.053,2.983c-2.346,0.949-4.734,2.137-7.09,3.592
			c-2.334,1.484-4.634,3.212-6.885,5.129l-0.416,0.356l-0.356-0.448c-0.486-0.612-1.008-1.272-1.531-1.936
			c-2.02-2.305-4.336-4.238-6.767-5.829c-2.472-1.516-4.984-2.785-7.495-3.719c-5.008-1.922-9.818-2.768-13.852-3.221
			c-4.044-0.42-7.351-0.43-9.628-0.327c-2.277,0.097-3.539,0.208-3.552,0.122c-0.004-0.037,0.305-0.105,0.904-0.201
			c0.597-0.078,1.476-0.257,2.622-0.329c2.284-0.231,5.623-0.335,9.727-0.007c4.089,0.364,8.986,1.146,14.118,3.053
			c2.574,0.93,5.161,2.209,7.713,3.759c2.508,1.624,4.913,3.619,7.009,6.014c0.545,0.689,1.086,1.375,1.591,2.011l-0.772-0.092
			c2.288-1.947,4.64-3.702,7.034-5.203c2.416-1.474,4.872-2.669,7.282-3.613c4.851-1.852,9.481-2.582,13.341-2.82
			c3.867-0.247,6.984-0.099,9.124,0.046c1.071,0.073,1.898,0.175,2.459,0.237C540.288,20.996,540.579,21.045,540.577,21.082"/>
		<path clip-path="url(#SVGID_10_)" fill="#1B2F36" d="M431.865,58.928c-0.006,0.191-2.906-0.094-7.549,0.314
			c-2.314,0.218-5.061,0.718-7.917,1.854c-2.858,1.132-5.757,2.957-8.47,5.312l-0.415,0.358l-0.358-0.452
			c-0.293-0.37-0.609-0.766-0.927-1.165c-2.425-2.815-5.599-4.635-8.62-5.792c-3.038-1.175-5.958-1.705-8.41-1.997
			c-4.93-0.553-8.023-0.071-8.039-0.271c-0.008-0.063,0.751-0.243,2.147-0.406c1.396-0.162,3.443-0.249,5.961-0.065
			c2.512,0.204,5.519,0.669,8.679,1.833c3.144,1.147,6.498,3.017,9.082,6.014c0.336,0.425,0.671,0.85,0.984,1.244l-0.774-0.093
			c2.79-2.413,5.823-4.285,8.813-5.405c2.988-1.129,5.837-1.561,8.206-1.69c2.373-0.134,4.281-0.021,5.588,0.092
			C431.155,58.739,431.869,58.86,431.865,58.928"/>
	</g>
	<g>
		<defs>
			<rect id="SVGID_11_" x="36.195" y="-54.338" width="1010.724" height="1010.723"/>
		</defs>
		<clipPath id="SVGID_12_">
			<use xlink:href="#SVGID_11_"  overflow="visible"/>
		</clipPath>
		<path clip-path="url(#SVGID_12_)" fill="#1D1635" d="M533.761,237.319c0.126,0.263-108.19,52.01-241.895,115.568
			C158.115,416.467,49.625,467.779,49.499,467.516c-0.125-0.258,108.167-51.998,241.917-115.58
			C425.121,288.378,533.635,237.057,533.761,237.319"/>
		<path clip-path="url(#SVGID_12_)" fill="#1D1635" d="M521.834,247.541c0.253,0.326-5.904,4.216-17.349,10.557
			c-11.429,6.381-28.094,15.384-48.756,26.372c-41.325,21.981-98.634,51.917-162.04,84.763
			c-63.431,32.857-120.942,62.416-162.601,83.746c-20.824,10.623-37.684,19.227-49.372,25.188
			c-5.819,2.941-10.342,5.225-13.452,6.797c-1.521,0.754-2.688,1.33-3.508,1.74c-0.795,0.387-1.214,0.563-1.214,0.563
			s0.387-0.238,1.164-0.66c0.812-0.426,1.964-1.037,3.462-1.834c3.089-1.609,7.583-3.957,13.362-6.969
			c11.651-6.035,28.458-14.736,49.216-25.488c41.6-21.512,99.021-51.207,162.457-84.014c63.408-32.85,120.768-62.678,162.176-84.49
			c20.704-10.903,37.422-19.804,48.908-26.072c5.744-3.134,10.18-5.609,13.15-7.349c1.486-0.868,2.614-1.546,3.336-2.047
			C521.533,247.882,521.794,247.516,521.834,247.541"/>
		<path clip-path="url(#SVGID_12_)" fill="#1D1635" d="M546.201,231.678c0.125-0.264,108.64,51.06,242.345,114.619
			c133.751,63.578,242.043,115.316,241.917,115.578c-0.125,0.262-108.615-51.051-242.367-114.631
			C654.39,283.688,546.076,231.94,546.201,231.678"/>
		<path clip-path="url(#SVGID_12_)" fill="#1D1635" d="M558.127,241.9c0.04-0.025,0.298,0.341,1.058,0.802
			c0.725,0.5,1.852,1.179,3.337,2.047c2.974,1.739,7.41,4.214,13.152,7.349c11.483,6.268,28.202,15.168,48.905,26.074
			c41.409,21.809,98.77,51.64,162.178,84.486c63.437,32.811,120.861,62.502,162.458,84.018
			c20.756,10.746,37.566,19.453,49.215,25.484c5.783,3.016,10.273,5.361,13.362,6.973c1.5,0.793,2.649,1.404,3.463,1.834
			c0.775,0.42,1.164,0.66,1.164,0.66s-0.419-0.176-1.214-0.564c-0.823-0.41-1.989-0.988-3.509-1.744
			c-3.108-1.568-7.633-3.854-13.452-6.793c-11.688-5.961-28.547-14.564-49.369-25.188c-41.663-21.332-99.174-50.889-162.604-83.746
			c-63.408-32.846-120.716-62.781-162.042-84.762c-20.662-10.989-37.326-19.992-48.755-26.373
			C564.033,246.116,557.875,242.226,558.127,241.9"/>
		<rect x="542.604" y="399.289" clip-path="url(#SVGID_12_)" fill="#9280B2" width="37.126" height="168.047"/>
		<path clip-path="url(#SVGID_12_)" fill="#1B2F36" d="M358.393,482.732c0.206,0.203-23.813,24.555-53.638,54.383
			c-29.837,29.836-54.184,53.85-54.39,53.645c-0.206-0.209,23.806-24.555,53.646-54.391
			C333.836,506.541,358.187,482.521,358.393,482.732"/>
		<path clip-path="url(#SVGID_12_)" fill="#1B2F36" d="M359.701,451.025c0.204,0.209-14.063,14.496-31.86,31.91
			c-17.802,17.424-32.395,31.375-32.597,31.168c-0.205-0.209,14.059-14.496,31.861-31.918
			C344.902,464.771,359.497,450.814,359.701,451.025"/>
		<path clip-path="url(#SVGID_12_)" fill="#1B2F36" d="M782.466,483.365c-0.21,0.207-19.489-18.807-43.062-42.461
			c-23.58-23.66-42.521-43.002-42.314-43.209c0.203-0.203,19.48,18.805,43.061,42.465
			C763.724,463.813,782.671,483.158,782.466,483.365"/>
		<path clip-path="url(#SVGID_12_)" fill="#1B2F36" d="M813.802,533.049c-0.207,0.205-16.518-15.727-36.429-35.586
			c-19.92-19.861-35.896-36.127-35.693-36.332c0.208-0.205,16.517,15.725,36.436,35.586
			C798.026,516.576,814.008,532.842,813.802,533.049"/>
	</g>
	<g>
		<defs>
			<rect id="SVGID_13_" x="36.195" y="-54.338" width="1010.724" height="1010.723"/>
		</defs>
		<clipPath id="SVGID_14_">
			<use xlink:href="#SVGID_13_"  overflow="visible"/>
		</clipPath>
	</g>
	<g>
		<defs>
			<rect id="SVGID_15_" x="230.783" y="-17.194" width="634.733" height="634.737"/>
		</defs>
		<clipPath id="SVGID_16_">
			<use xlink:href="#SVGID_15_"  overflow="visible"/>
		</clipPath>
		<path clip-path="url(#SVGID_16_)" fill="#FABAA0" d="M598.919,257.886c0,0,4.521,13.009,11.71,12.138
			c5.608-0.682,8.411-4.334,9.812-7.819c1.277-3.167,1.433-6.674,0.733-10.02c-2.632-12.632-8.587-40.436-8.587-40.436
			l-20.478,3.379L598.919,257.886"/>
		<polygon clip-path="url(#SVGID_16_)" fill="#B684BA" points="538.828,491.641 540.446,529.801 561.054,529.334 559.509,491.104 		
			"/>
		<path clip-path="url(#SVGID_16_)" fill="#1B2F36" d="M550.566,528.133c0.17-0.008-0.148-8.365-0.714-18.66
			c-0.568-10.301-1.165-18.643-1.337-18.631c-0.172,0.008,0.148,8.363,0.712,18.664
			C549.797,519.807,550.394,528.143,550.566,528.133"/>
		<polygon clip-path="url(#SVGID_16_)" fill="#E1E1E1" points="540.337,527.168 560.944,526.641 561.051,529.334 540.446,529.801 		
			"/>
		<path clip-path="url(#SVGID_16_)" fill="#1B2F36" d="M560.56,517.123c0.027-0.031-0.16-0.324-0.565-0.813
			c-0.406-0.49-1.045-1.156-1.927-1.879c-0.882-0.717-2.024-1.488-3.426-2.074c-1.397-0.604-3.075-0.984-4.852-0.893
			c-3.559,0.176-6.473,2.061-7.864,3.863c-0.727,0.898-1.16,1.723-1.402,2.311c-0.239,0.592-0.321,0.936-0.285,0.947
			c0.115,0.059,0.549-1.314,2.018-2.969c1.426-1.654,4.194-3.361,7.573-3.527c3.363-0.178,6.218,1.398,7.969,2.689
			C559.584,516.102,560.477,517.197,560.56,517.123"/>
		<g opacity="0.3" clip-path="url(#SVGID_16_)">
			<g>
				<defs>
					<rect id="SVGID_17_" x="539.326" y="501.984" width="20.793" height="4.574"/>
				</defs>
				<clipPath id="SVGID_18_">
					<use xlink:href="#SVGID_17_"  overflow="visible"/>
				</clipPath>
				<polygon clip-path="url(#SVGID_18_)" fill="#010101" points="559.95,501.984 560.119,506.193 539.462,506.559 539.326,503.393 
									"/>
			</g>
		</g>
		<path clip-path="url(#SVGID_16_)" fill="#FABAA0" d="M542.397,174.142l28.371-0.364l-3.168-24.154c0,0,1.939-0.416,2.069-10.923
			c0.13-10.509,0.614-28.365,0.614-28.365c-12.168-5.227-26.208-3.462-36.702,4.615l-1.559,1.198L542.397,174.142z"/>
		<path clip-path="url(#SVGID_16_)" fill="#FABAA0" d="M535.318,129.074c-0.18-0.077-7.221-2.135-6.991,5.048
			c0.231,7.184,7.395,5.472,7.401,5.266C535.734,139.181,535.318,129.074,535.318,129.074"/>
		<path clip-path="url(#SVGID_16_)" fill="#FABAA0" d="M569.063,127.573c0.178-0.078,6.583-1.805,6.352,5.38
			c-0.229,7.184-7.394,5.472-7.399,5.266C568.007,138.013,569.063,127.573,569.063,127.573"/>
		<path clip-path="url(#SVGID_16_)" fill="#1D1635" d="M577.122,106.82c0.114-1.303-0.371-2.701-1.431-3.465
			c-1.062-0.766-2.702-0.716-3.565,0.267c0.495-1.755-0.942-3.78-2.759-3.894c-1.716-0.109-3.178,1.185-4.832,1.641
			c-1.619,0.442-3.351,0.057-4.906-0.568c-1.558-0.625-3.008-1.49-4.585-2.066c-3.284-1.197-7.04-1.048-10.217,0.411
			c-3.177,1.459-5.737,4.208-6.97,7.479c-2.298-0.717-4.908,0.449-6.327,2.396c-1.415,1.947-1.78,4.503-1.498,6.895
			c0.19,1.616,0.659,3.177,1.201,4.714c0,0.136-0.015,0.269-0.01,0.404c0.107,5.779,3.121,24.04,5.584,24.078
			c4.297,0.065,0.916-19.505,0.916-19.505c5.273-2.038,3.308-9.939,4.627-11.137c1.314-1.198,4.075-3.984,15.117,1.659
			c4.288,2.191,9.984,2.123,13.097,1.417c0.093-0.019,0.185-0.033,0.276-0.056c0.017-0.005,0.045-0.007,0.063-0.012
			c0.034-0.009,0.058-0.027,0.093-0.038c0.992-0.257,1.947-0.642,2.827-1.201c1.002-0.633,1.912-1.489,2.336-2.595
			c0.425-1.104,0.266-2.484-0.603-3.289C576.372,109.332,577.011,108.122,577.122,106.82"/>
		<path clip-path="url(#SVGID_16_)" fill="#1D1635" d="M532.988,128.272c1.075,6.02,0.862,9.183,1.856,13.204
			c1.571,6.363,4.73,11.24,10.463,14.417c5.733,3.178,13.487,3.122,18.41-1.204c3.415-3.003,5.84-6.396,6.346-10.914
			c0.509-4.521,1.017-12.524,1.047-17.071c0.057-8.203,0.606-16.045,0.606-16.045l-23.433-4.239l-13.336,7.929L532.988,128.272z"/>
		<path clip-path="url(#SVGID_16_)" fill="#1B2F36" d="M557.165,159.522c0.03,0.166-1.813,0.623-4.109,0.363
			c-2.299-0.247-4.001-1.094-3.928-1.25c0.066-0.181,1.803,0.364,3.999,0.597C555.326,159.484,557.136,159.333,557.165,159.522"/>
		<path clip-path="url(#SVGID_16_)" fill="#385A65" d="M563.257,105.365c0,0-0.378,0.168-1.113,0.204
			c-0.73,0.033-1.816-0.13-2.999-0.699c-1.202-0.538-2.436-1.515-3.796-2.546c-1.354-1.031-2.988-2.05-4.954-2.283
			c-1.936-0.258-3.848,0.128-5.333,0.934c-1.504,0.795-2.568,1.964-3.252,3.043c-1.366,2.216-1.314,3.936-1.394,3.901
			c0,0-0.017-0.405,0.113-1.125c0.143-0.714,0.439-1.749,1.121-2.875c0.679-1.114,1.754-2.326,3.294-3.158
			c1.525-0.843,3.491-1.248,5.488-0.979c2.021,0.237,3.715,1.303,5.061,2.349c1.362,1.048,2.564,2.022,3.73,2.571
			c1.152,0.58,2.2,0.766,2.916,0.766C562.861,105.463,563.25,105.335,563.257,105.365"/>
		<path clip-path="url(#SVGID_16_)" fill="#385A65" d="M540.748,108.325c-0.03,0.049-0.603-0.383-1.686-0.631
			c-1.063-0.255-2.701-0.237-4.143,0.65c-1.438,0.896-2.181,2.36-2.425,3.421c-0.26,1.083-0.127,1.787-0.185,1.789
			c-0.012,0.002-0.057-0.169-0.085-0.486c-0.027-0.316-0.021-0.782,0.088-1.343c0.206-1.107,0.951-2.657,2.469-3.605
			c1.52-0.934,3.242-0.917,4.324-0.607c0.551,0.152,0.974,0.351,1.242,0.518C540.619,108.198,540.755,108.311,540.748,108.325"/>
		<path clip-path="url(#SVGID_16_)" fill="#385A65" d="M540.049,133.944c-0.164,0.071-1.042-1.577-1.964-3.684
			c-0.917-2.107-1.529-3.873-1.362-3.945c0.163-0.072,1.043,1.578,1.963,3.683C539.607,132.104,540.219,133.871,540.049,133.944"/>
		<path clip-path="url(#SVGID_16_)" fill="#385A65" d="M546.191,138.071c-0.096,0.137-1.884-1.099-3.318-3.315
			c-1.454-2.206-1.864-4.34-1.699-4.372c0.187-0.058,0.857,1.906,2.248,4.013C544.796,136.516,546.318,137.922,546.191,138.071"/>
		<path clip-path="url(#SVGID_16_)" fill="#385A65" d="M552.25,139.398c-0.092,0.149-1.427-0.524-2.804-1.729
			c-1.381-1.203-2.232-2.434-2.091-2.545c0.14-0.121,1.181,0.886,2.522,2.051C551.211,138.343,552.352,139.24,552.25,139.398"/>
		<path clip-path="url(#SVGID_16_)" fill="#385A65" d="M562.95,129.66c0.17,0.009,0.152,1.692-0.634,3.58
			c-0.778,1.893-1.958,3.094-2.085,2.979c-0.15-0.119,0.742-1.437,1.477-3.231C562.458,131.203,562.759,129.637,562.95,129.66"/>
		<path clip-path="url(#SVGID_16_)" fill="#385A65" d="M566.579,123.985c0.169-0.013,0.341,2.031-0.416,4.403
			c-0.736,2.38-2.047,3.957-2.177,3.852c-0.16-0.107,0.854-1.778,1.553-4.047C566.261,125.931,566.383,123.98,566.579,123.985"/>
		<path clip-path="url(#SVGID_16_)" fill="#385A65" d="M569.364,109.463c0,0-0.285,0.325-0.938,0.726
			c-0.651,0.404-1.713,0.833-3.086,0.951c-1.37,0.132-3.035-0.084-4.734-0.727c-1.709-0.62-3.438-1.611-5.25-2.618
			c-1.809-1.005-3.594-1.877-5.334-2.299c-1.729-0.445-3.38-0.371-4.667,0.023c-1.291,0.382-2.211,1.03-2.736,1.566
			c-0.533,0.535-0.736,0.914-0.761,0.896c0,0,0.169-0.396,0.688-0.967c0.513-0.567,1.439-1.259,2.757-1.673
			c1.307-0.426,3.009-0.523,4.777-0.08c1.777,0.417,3.586,1.295,5.401,2.303c1.815,1.01,3.529,1.999,5.211,2.62
			c1.666,0.646,3.287,0.876,4.631,0.77C568.071,110.764,569.347,109.376,569.364,109.463"/>
		<path clip-path="url(#SVGID_16_)" fill="#385A65" d="M571.447,112.87c0.009,0.016-0.126,0.105-0.381,0.253
			c-0.25,0.153-0.633,0.344-1.118,0.551c-0.964,0.417-2.376,0.842-3.984,0.993c-1.606,0.144-3.068-0.021-4.093-0.254
			c-0.517-0.116-0.925-0.235-1.202-0.338c-0.275-0.1-0.425-0.164-0.418-0.183c0.013-0.043,0.633,0.156,1.652,0.338
			c1.022,0.186,2.461,0.316,4.042,0.175c1.575-0.147,2.965-0.535,3.936-0.903C570.852,113.136,571.425,112.829,571.447,112.87"/>
		<path clip-path="url(#SVGID_16_)" fill="#FABAA0" d="M524.688,223.61l-20.475-3.378c0,0-9.849,35.969-11.933,46.137
			c-2.086,10.167-3.922,42.746-3.922,42.746c-0.584,3.598-2.854,16.924-1.624,18.666c1.403,1.988,3.747,2.109,4.684,2.109
			c0,0,0.467,2.688,2.458,2.688c0,0,0.819,2.344,2.812,2.576c1.99,0.236,9.832,0,9.832,0s0.118-2.924-2.342-3.16
			c0,0-0.232-1.875-4.214-1.988c0,0,1.055-2.58-2.226-3.279l-1.291-0.662l2.23-5.322l1.053,1.002c1.053,1,1.991,6.152,3.277,6.268
			c1.287,0.121,2.926-0.934,2.926-0.934l-2.906-18.902l-2.537-3.018l13.219-40.726L524.688,223.61z"/>
		<path clip-path="url(#SVGID_16_)" fill="#F7986F" d="M491.865,324.789c0.051-0.07,0.94,0.621,2.704,0.789
			c0.864,0.115,1.944,0.115,3.14,0.469c0.596,0.18,1.215,0.488,1.722,0.977c0.507,0.48,0.925,1.17,0.93,1.988
			c-0.009,0.4-0.119,0.811-0.402,1.145c-0.282,0.348-0.77,0.48-1.115,0.469c-0.692-0.02-1.275-0.07-1.873-0.1
			c-1.109-0.084-2.155-0.158-3.129-0.23c-1.779-0.146-2.878-0.285-2.874-0.373c0.006-0.092,1.11-0.119,2.897-0.09
			c0.976,0.025,2.021,0.053,3.135,0.082c0.593,0.021,1.201,0.041,1.827,0.064c0.288-0.01,0.485-0.078,0.636-0.25
			c0.148-0.176,0.234-0.449,0.236-0.727c-0.022-1.176-1.159-2.057-2.174-2.375c-1.067-0.352-2.141-0.41-3.028-0.588
			C492.662,325.742,491.774,324.844,491.865,324.789"/>
		<path clip-path="url(#SVGID_16_)" fill="#F7986F" d="M503.934,331.582c-0.015-0.037,0.264-0.055,0.39,0.301
			c0.056,0.166,0.06,0.385-0.053,0.619c-0.124,0.242-0.389,0.41-0.669,0.486c-0.583,0.139-1.158,0.076-1.834,0.1
			c-0.721-0.006-1.431-0.018-2.175-0.023c-3.092-0.074-5.591-0.277-5.586-0.459c0.002-0.184,2.511-0.277,5.6-0.203
			c0.744,0.025,1.457,0.051,2.176,0.076c0.661,0.016,1.301,0.111,1.715,0.051c0.439-0.045,0.583-0.354,0.574-0.596
			C504.068,331.707,503.913,331.629,503.934,331.582"/>
		<path clip-path="url(#SVGID_16_)" fill="#F7986F" d="M491.8,320.26c0.182,0.018,0.229,0.967,0.104,2.115
			c-0.123,1.148-0.371,2.064-0.555,2.045c-0.181-0.016-0.226-0.967-0.104-2.117C491.373,321.154,491.619,320.238,491.8,320.26"/>
		<path clip-path="url(#SVGID_16_)" fill="#F7986F" d="M498.029,314.555c0.152,0.086-0.508,1.377-1.896,2.438
			c-1.386,1.07-2.8,1.375-2.845,1.209c-0.063-0.18,1.157-0.74,2.442-1.736C497.022,315.482,497.871,314.447,498.029,314.555"/>
		<path clip-path="url(#SVGID_16_)" fill="#F7986F" d="M498.723,320.273c-0.134,0.123-0.684-0.285-1.051-1.012
			c-0.369-0.723-0.369-1.404-0.193-1.443c0.181-0.041,0.453,0.5,0.784,1.145C498.587,319.607,498.864,320.15,498.723,320.273"/>
		<path clip-path="url(#SVGID_16_)" fill="#1D1635" d="M599.841,292.409h-36.285l-43.259,5.841c0,0,3.466,61.894,4.538,80.841
			c1.072,18.945,1.689,51.125,1.689,51.125l8.106,74.938l28.063-2.994v-14.332c16.669-3.994,23.607,5.66,23.607,5.66
			s10.389-49.332,11.818-58.629c1.431-9.291,0-44.336,0-44.336L599.841,292.409z M562.694,429.885v-75.73l0.861-24.436v5.541
			l1.678,61.977L562.694,429.885z"/>
		<path clip-path="url(#SVGID_16_)" fill="#385A65" d="M548.097,390.469c-0.053,0.207-3.729-1.277-8.471-1.018
			c-4.749,0.199-8.258,2.035-8.338,1.834c-0.036-0.068,0.782-0.617,2.256-1.209c1.468-0.592,3.619-1.164,6.046-1.285
			c2.435-0.115,4.626,0.246,6.144,0.697C547.261,389.93,548.127,390.396,548.097,390.469"/>
		<path clip-path="url(#SVGID_16_)" fill="#385A65" d="M593.957,397.236c-0.028,0.1-1.447-0.25-3.763-0.664
			c-2.314-0.42-5.539-0.834-9.123-0.902c-3.586-0.057-6.823,0.25-9.15,0.586c-2.328,0.33-3.759,0.637-3.785,0.533
			c-0.019-0.072,1.374-0.541,3.707-1c2.329-0.455,5.607-0.838,9.24-0.779c3.629,0.068,6.893,0.563,9.201,1.104
			C592.604,396.648,593.98,397.164,593.957,397.236"/>
		<path clip-path="url(#SVGID_16_)" fill="#385A65" d="M594.562,390.473c-0.024,0.098-1.391-0.193-3.613-0.525
			c-2.222-0.338-5.307-0.66-8.73-0.66c-3.425,0.014-6.513,0.352-8.732,0.697c-2.22,0.344-3.584,0.639-3.608,0.539
			c-0.019-0.074,1.307-0.537,3.525-1.002s5.344-0.881,8.813-0.895c3.47-0.004,6.597,0.402,8.815,0.861
			C593.254,389.941,594.586,390.395,594.562,390.473"/>
		<path clip-path="url(#SVGID_16_)" fill="#385A65" d="M586.302,486.715c-0.088,0.088-1.099-1.092-3.138-2.477
			c-2.012-1.379-5.174-2.867-8.901-3.18c-3.734-0.305-7.095,0.641-9.307,1.672c-2.237,1.023-3.432,2.023-3.503,1.93
			c-0.029-0.037,0.248-0.32,0.791-0.756c0.544-0.438,1.391-1.018,2.508-1.6c2.212-1.164,5.686-2.225,9.563-1.906
			c3.876,0.324,7.131,1.943,9.12,3.459c1.006,0.756,1.742,1.465,2.208,1.99C586.113,486.371,586.333,486.693,586.302,486.715"/>
		<path clip-path="url(#SVGID_16_)" fill="#385A65" d="M533.683,306.143c-0.01-0.01,0.092-0.025,0.297-0.059
			c0.253-0.035,0.562-0.076,0.933-0.129c0.885-0.111,2.082-0.264,3.577-0.453c3.187-0.377,7.625-0.902,12.919-1.529l0.237-0.027
			l0.016,0.234c0.269,4.279,0.574,9.213,0.902,14.471l0.009,0.131l-0.109,0.082c-0.443,0.35-0.92,0.725-1.402,1.1
			c-2.471,1.926-4.86,3.787-7.131,5.557l-0.122,0.094l-0.143-0.066c-3.257-1.535-6.293-2.973-9.033-4.264l-0.114-0.057l-0.009-0.121
			c-0.266-4.496-0.488-8.24-0.65-10.924c-0.063-1.258-0.115-2.262-0.151-3.008C533.677,306.486,533.664,306.129,533.683,306.143
			c0.01,0.008,0.024,0.107,0.045,0.295c0.024,0.223,0.05,0.488,0.082,0.813c0.067,0.756,0.155,1.775,0.271,3.043
			c0.212,2.652,0.506,6.348,0.861,10.783l-0.124-0.178c2.751,1.273,5.796,2.691,9.065,4.209l-0.263,0.025
			c2.262-1.77,4.649-3.637,7.116-5.568c0.482-0.377,0.959-0.748,1.404-1.096l-0.098,0.213c-0.303-5.258-0.593-10.189-0.84-14.473
			l0.253,0.207c-5.244,0.531-9.643,0.975-12.799,1.291c-1.521,0.143-2.742,0.26-3.643,0.342c-0.391,0.033-0.715,0.063-0.976,0.08
			C533.815,306.146,533.692,306.15,533.683,306.143"/>
		<path clip-path="url(#SVGID_16_)" fill="#385A65" d="M571.121,302.42c-0.007-0.01,0.097-0.018,0.304-0.023
			c0.255-0.002,0.561-0.004,0.936-0.01c0.89,0,2.095-0.002,3.598-0.002c3.194,0.023,7.649,0.055,12.961,0.092l0.24,0.002
			l-0.02,0.236c-0.267,4.268-0.574,9.184-0.902,14.416l-0.01,0.133l-0.115,0.07c-0.483,0.289-1.002,0.598-1.526,0.912
			c-2.681,1.596-5.28,3.141-7.738,4.605l-0.136,0.08l-0.134-0.082c-3.027-1.928-5.855-3.725-8.401-5.342l-0.105-0.066l0.01-0.123
			c0.291-4.48,0.538-8.207,0.712-10.887c0.094-1.248,0.169-2.246,0.226-2.992C571.073,302.756,571.107,302.402,571.121,302.42
			c0.011,0.006,0.016,0.107,0.011,0.295c-0.006,0.225-0.012,0.49-0.021,0.813c-0.027,0.758-0.064,1.777-0.113,3.045
			c-0.118,2.648-0.285,6.34-0.487,10.768l-0.098-0.188c2.559,1.602,5.396,3.379,8.442,5.285l-0.268-0.004
			c2.456-1.471,5.048-3.021,7.726-4.621c0.526-0.313,1.046-0.619,1.53-0.91l-0.124,0.197c0.352-5.232,0.682-10.148,0.971-14.416
			l0.224,0.24c-5.251-0.133-9.66-0.24-12.816-0.316c-1.525-0.049-2.746-0.086-3.646-0.115c-0.391-0.018-0.71-0.029-0.975-0.043
			C571.251,302.439,571.132,302.426,571.121,302.42"/>
		<path clip-path="url(#SVGID_16_)" fill="#385A65" d="M563.556,335.252c-0.185,0.002-0.523-7.943-0.764-17.748
			c-0.237-9.807-0.281-17.757-0.099-17.761c0.184-0.005,0.522,7.939,0.762,17.746C563.69,327.293,563.737,335.246,563.556,335.252"
			/>
		<path clip-path="url(#SVGID_16_)" fill="#385A65" d="M562.582,330.402c0.036,0.07-1.051,0.771-2.953,1.652
			c-1.901,0.877-4.635,1.879-7.766,2.549c-3.137,0.658-6.042,0.852-8.136,0.82c-2.092-0.029-3.374-0.23-3.367-0.309
			c0.004-0.104,1.294-0.072,3.363-0.16c2.065-0.088,4.916-0.35,8-0.998c3.082-0.662,5.795-1.574,7.718-2.334
			C561.37,330.865,562.534,330.311,562.582,330.402"/>
		<path clip-path="url(#SVGID_16_)" fill="#385A65" d="M588.88,325.98c0,0.096-1.424,0.223-3.726,0.416
			c-2.297,0.197-5.473,0.479-8.972,0.867c-3.498,0.391-6.656,0.818-8.942,1.135c-2.291,0.314-3.703,0.508-3.724,0.412
			c-0.016-0.086,1.373-0.439,3.647-0.875c2.273-0.434,5.433-0.936,8.944-1.328c3.514-0.391,6.706-0.598,9.02-0.674
			C587.44,325.855,588.873,325.893,588.88,325.98"/>
		<path clip-path="url(#SVGID_16_)" fill="#385A65" d="M586.302,492.637c-0.008,0.01-0.153-0.09-0.432-0.295
			c-0.301-0.221-0.705-0.525-1.221-0.904c-0.268-0.203-0.564-0.426-0.892-0.672c-0.354-0.211-0.738-0.441-1.156-0.689
			c-0.418-0.252-0.873-0.516-1.35-0.801c-0.509-0.236-1.056-0.482-1.626-0.744c-2.308-0.998-5.324-1.875-8.908-1.939
			c-3.558-0.088-7.71,0.619-11.738,2.559l-0.397,0.189l0.043-0.432c1.716-16.105,3.734-37.961,4.888-62.051
			c1.249-25.277,1.291-48.199,0.917-64.773c-0.186-8.287-0.435-14.994-0.629-19.627c-0.091-2.285-0.164-4.074-0.218-5.334
			c-0.013-0.584-0.027-1.043-0.036-1.391c-0.007-0.313-0.003-0.473,0.009-0.473s0.032,0.158,0.06,0.471
			c0.024,0.344,0.06,0.803,0.103,1.383c0.079,1.26,0.194,3.049,0.342,5.334c0.271,4.627,0.59,11.334,0.833,19.623
			c0.497,16.584,0.534,39.523-0.721,64.816c-1.155,24.107-3.242,45.979-5.064,62.076l-0.357-0.24
			c4.166-1.973,8.355-2.629,11.977-2.512c3.64,0.098,6.691,1.031,9.007,2.074c0.574,0.275,1.12,0.531,1.629,0.777
			c0.479,0.301,0.928,0.58,1.347,0.84c0.414,0.26,0.796,0.498,1.148,0.723c0.32,0.254,0.611,0.49,0.875,0.701
			c0.499,0.404,0.89,0.725,1.183,0.965C586.177,492.514,586.31,492.627,586.302,492.637"/>
		<path clip-path="url(#SVGID_16_)" fill="#385A65" d="M595.291,383.311c0.022,0.039-0.301,0.266-0.917,0.641
			c-0.604,0.385-1.531,0.869-2.708,1.385c-2.349,1.039-5.803,2.084-9.732,2.389c-3.935,0.285-7.507-0.232-9.984-0.916
			c-1.237-0.336-2.227-0.672-2.882-0.965c-0.662-0.279-1.015-0.455-0.998-0.498c0.041-0.107,1.52,0.461,3.991,1.01
			c2.472,0.559,5.97,0.99,9.821,0.711c3.854-0.299,7.25-1.244,9.606-2.166C593.854,383.986,595.231,383.207,595.291,383.311"/>
		<path clip-path="url(#SVGID_16_)" fill="#385A65" d="M556.574,392.338c0.002,0.092-1.226,0.199-3.217,0.338
			c-2.219,0.16-4.85,0.35-7.753,0.557c-2.902,0.248-5.531,0.475-7.749,0.666c-1.983,0.174-3.215,0.262-3.225,0.17
			c-0.015-0.09,1.193-0.34,3.17-0.631c1.976-0.299,4.716-0.623,7.752-0.861c3.035-0.238,5.792-0.35,7.79-0.369
			C555.335,392.188,556.574,392.248,556.574,392.338"/>
		<path clip-path="url(#SVGID_16_)" fill="#B684BA" d="M584.299,499.377l0.735-7.277c0,0-7.952-8.402-22.624-4.293l-4.107,20.117
			c0,0-3.809,4.977-6.228,10.012c-0.726,0.758-1.318,1.602-1.646,2.611c-0.751,2.322-0.799,7.885,0.777,9.75
			c1.571,1.859,1.482,2.482,3.594,3.705c2.998,1.73,9.703,1.174,12.973,0.039c2.654-0.922,4.319-3.492,5.701-5.938
			c3.71-6.572,6.83-13.477,9.311-20.604c0.38-1.107,0.75-2.236,1.035-3.381l0,0v-0.002
			C584.209,502.547,584.428,500.957,584.299,499.377"/>
		<g opacity="0.5" clip-path="url(#SVGID_16_)">
			<g>
				<defs>
					<rect id="SVGID_19_" x="549.925" y="489.695" width="34.415" height="45.41"/>
				</defs>
				<clipPath id="SVGID_20_">
					<use xlink:href="#SVGID_19_"  overflow="visible"/>
				</clipPath>
				<path clip-path="url(#SVGID_20_)" fill="#010101" d="M572.188,489.855c-5.754-0.482-10.519,7.414-11.554,13.887
					c-0.402,2.527-0.545,4.752-1.444,7.143c-1.551,4.141-7.399,5.457-8.761,9.668c-0.751,2.316-0.799,7.879,0.777,9.744
					c1.571,1.859,1.482,2.482,3.594,3.705c2.998,1.73,9.703,1.174,12.973,0.039c2.654-0.922,4.324-3.492,5.701-5.938
					c3.71-6.572,6.83-13.477,9.311-20.604c1.035-2.982,1.97-6.15,1.361-9.25c-0.707-3.594-3.562-6.609-7.025-7.807
					c-3.466-1.195-6.352-0.98-9.537,0.83"/>
			</g>
		</g>
		<path clip-path="url(#SVGID_16_)" fill="#FAFBFC" d="M550.704,529.969c-0.048,0.027-0.209-0.229-0.476-0.746
			c-0.147-0.254-0.285-0.58-0.42-0.984c-0.161-0.393-0.289-0.867-0.398-1.414c-0.458-2.135-0.325-5.613,2.036-8.961l0.01-0.01
			l0.023-0.025c1.041-1.082,2.306-2.082,3.596-3.111c1.283-1.027,2.574-2.156,3.399-3.654c0.839-1.508,1.231-3.326,1.476-5.254
			c0.254-1.932,0.369-3.994,0.931-6.1c1.242-4.785,4.806-8.652,8.934-9.992c4.11-1.389,8.323-0.402,10.839,1.654
			c2.554,2.064,3.5,4.697,3.729,6.432c0.237,1.781-0.113,2.744-0.165,2.729c-0.125-0.012,0.035-0.982-0.339-2.635
			c-0.368-1.611-1.4-3.998-3.796-5.787c-2.336-1.764-6.175-2.559-9.873-1.24c-3.684,1.256-6.911,4.795-8.056,9.18
			c-0.512,1.928-0.64,3.951-0.914,5.934c-0.266,1.979-0.701,3.977-1.684,5.691c-0.99,1.725-2.453,2.932-3.772,3.943
			c-1.334,1.014-2.563,1.939-3.583,2.93l0.035-0.037c-1.08,1.406-1.755,3.029-2.066,4.451c-0.333,1.438-0.316,2.734-0.194,3.773
			C550.266,528.82,550.842,529.914,550.704,529.969"/>
		<path clip-path="url(#SVGID_16_)" fill="#1B2F36" d="M577.23,517.811c0.016,0.025-0.251,0.254-0.758,0.652
			c-0.501,0.4-1.245,0.949-2.189,1.596c-1.889,1.299-4.604,2.953-7.761,4.465c-3.16,1.51-6.148,2.58-8.348,3.232
			c-1.098,0.332-1.994,0.566-2.618,0.707c-0.625,0.141-0.974,0.211-0.98,0.18c-0.006-0.023,0.328-0.143,0.94-0.328
			c0.613-0.186,1.492-0.463,2.576-0.824c2.162-0.717,5.117-1.826,8.261-3.326c3.135-1.5,5.854-3.105,7.771-4.342
			c0.961-0.615,1.729-1.125,2.258-1.484C576.912,517.977,577.212,517.791,577.23,517.811"/>
		<path clip-path="url(#SVGID_16_)" fill="#1B2F36" d="M570.911,517.133c0.023,0.049-0.603,0.393-1.647,0.871
			c-1.049,0.479-2.522,1.08-4.188,1.641c-1.668,0.561-3.205,0.971-4.331,1.221c-1.121,0.252-1.829,0.354-1.84,0.299
			c-0.014-0.057,0.672-0.252,1.772-0.568c1.099-0.316,2.618-0.77,4.271-1.322c1.654-0.561,3.136-1.117,4.206-1.531
			C570.226,517.332,570.887,517.082,570.911,517.133"/>
		<path clip-path="url(#SVGID_16_)" fill="#1B2F36" d="M566.872,528.604c-0.047,0.016-0.331-0.752-0.661-2.033
			c-0.334-1.277-0.688-3.074-0.895-5.076c-0.2-2.012-0.207-3.84-0.134-5.158c0.071-1.322,0.197-2.127,0.244-2.121
			c0.063,0.004,0.035,0.816,0.035,2.127c0,1.313,0.055,3.125,0.25,5.109c0.201,1.992,0.514,3.771,0.771,5.059
			S566.933,528.588,566.872,528.604"/>
		<path clip-path="url(#SVGID_16_)" fill="#1B2F36" d="M577.982,500.311c0.038,0.104-2.041,0.922-4.641,1.828
			c-2.601,0.904-4.739,1.555-4.773,1.451c-0.038-0.102,2.042-0.924,4.64-1.826C575.812,500.859,577.947,500.207,577.982,500.311"/>
		<polygon clip-path="url(#SVGID_16_)" fill="#B684BA" points="521.956,268.079 523.022,226.597 515.898,197.008 518.031,176.749 
			540.811,165.257 569.329,162.791 593.681,169.122 593.75,248.994 601.381,295.838 518.979,300.016 		"/>
		<path clip-path="url(#SVGID_16_)" fill="#1B2F36" d="M583.451,261.051c0.035,0.03-0.403,0.563-1.23,1.503
			c-0.404,0.48-0.918,1.046-1.577,1.647c-0.652,0.607-1.354,1.344-2.247,2.025c-0.86,0.717-1.815,1.491-2.922,2.216
			c-1.061,0.788-2.292,1.479-3.569,2.236c-2.604,1.416-5.605,2.745-8.884,3.746c-3.296,0.961-6.528,1.493-9.487,1.74
			c-1.483,0.064-2.892,0.163-4.213,0.084c-1.321-0.002-2.543-0.124-3.656-0.253c-1.119-0.081-2.11-0.311-2.99-0.462
			c-0.878-0.14-1.619-0.334-2.22-0.512c-1.209-0.334-1.866-0.54-1.855-0.583c0.035-0.146,2.691,0.684,7.109,1.097
			c1.106,0.097,2.317,0.193,3.623,0.171c1.302,0.053,2.691-0.065,4.156-0.146c2.912-0.275,6.096-0.816,9.345-1.763
			c3.233-0.988,6.196-2.281,8.787-3.648c1.266-0.733,2.489-1.396,3.551-2.155c1.102-0.696,2.061-1.441,2.933-2.126
			C581.576,263.097,583.342,260.949,583.451,261.051"/>
		<path clip-path="url(#SVGID_16_)" fill="#B684BA" d="M520.995,176.436c0,0-8.079-1.564-11.991,12.775
			c-3.91,14.339-9.983,38.396-9.983,38.396l27.084-1.009l-3.284-49.12"/>
		<path clip-path="url(#SVGID_16_)" fill="#B684BA" d="M593.681,169.122c0,0,15.156,0.675,18.091,26.413
			c0.089,0.773,5.202,27.96,5.202,27.96h-26.757L593.681,169.122z"/>
		<path clip-path="url(#SVGID_16_)" fill="#1B2F36" d="M520.297,194.773c0.045,0,0.114,0.509,0.198,1.436
			c0.096,1.065,0.212,2.374,0.35,3.918c0.289,3.464,0.667,7.961,1.083,12.935c0.401,5.056,0.724,9.637,0.89,12.958
			c0.084,1.661,0.129,3.005,0.142,3.937c0.005,0.93-0.016,1.446-0.061,1.447c-0.044,0.001-0.114-0.509-0.199-1.434
			c-0.095-1.067-0.21-2.376-0.348-3.918c-0.292-3.464-0.668-7.962-1.082-12.938c-0.402-5.054-0.725-9.634-0.894-12.956
			c-0.082-1.66-0.124-3.005-0.138-3.936C520.233,195.29,520.252,194.774,520.297,194.773"/>
		<path clip-path="url(#SVGID_16_)" fill="#1B2F36" d="M595.938,193.576c0.045,0.001,0.063,0.495,0.052,1.386
			c-0.013,0.891-0.059,2.178-0.132,3.767c-0.151,3.18-0.452,7.567-0.82,12.404c-0.342,4.757-0.646,9.059-0.885,12.389
			c-0.097,1.472-0.184,2.725-0.252,3.757c-0.066,0.887-0.122,1.377-0.17,1.376c-0.045-0.001-0.076-0.495-0.089-1.385
			c-0.016-0.891-0.005-2.179,0.041-3.771c0.084-3.181,0.33-7.576,0.696-12.416c0.387-4.755,0.739-9.055,1.012-12.386
			c0.136-1.471,0.247-2.721,0.342-3.75C595.82,194.062,595.895,193.573,595.938,193.576"/>
		<path clip-path="url(#SVGID_16_)" fill="#1B2F36" d="M594.001,169.549c0.162-0.067,1.019,1.702,1.44,4.072
			c0.436,2.366,0.259,4.325,0.083,4.316c-0.19,0-0.309-1.902-0.734-4.199C594.383,171.44,593.819,169.616,594.001,169.549"/>
		<path clip-path="url(#SVGID_16_)" fill="#1B2F36" d="M566.916,260.664c0.032,0.077-1.088,0.691-2.98,1.524
			c-1.885,0.833-4.557,1.862-7.574,2.774c-3.016,0.909-5.811,1.527-7.844,1.877c-2.036,0.351-3.305,0.46-3.32,0.377
			c-0.017-0.096,1.229-0.371,3.229-0.836c1.997-0.466,4.749-1.151,7.746-2.053c2.995-0.904,5.665-1.855,7.591-2.573
			C565.687,261.038,566.877,260.575,566.916,260.664"/>
		<path clip-path="url(#SVGID_16_)" fill="#FAFBFC" d="M522.069,217.69c0.034,0.178-4.865,1.291-10.94,2.483
			c-6.08,1.192-11.036,2.013-11.07,1.833c-0.034-0.18,4.864-1.292,10.942-2.482C517.079,218.331,522.033,217.511,522.069,217.69"/>
		<path clip-path="url(#SVGID_16_)" fill="#FAFBFC" d="M519.94,205.08c-0.029,0.18-3.045-0.132-6.735-0.699
			c-3.692-0.566-6.66-1.172-6.633-1.352c0.029-0.181,3.042,0.132,6.733,0.7C516.996,204.294,519.966,204.899,519.94,205.08"/>
		<path clip-path="url(#SVGID_16_)" fill="#FAFBFC" d="M598.934,186.284c-0.002,0.182-19.229,0.088-42.936-0.208
			c-23.715-0.297-42.933-0.688-42.932-0.87c0.004-0.182,19.223-0.089,42.94,0.208C579.712,185.713,598.935,186.101,598.934,186.284"
			/>
		<path clip-path="url(#SVGID_16_)" fill="#FAFBFC" d="M591.368,168.447c0.002,0.021-0.218,0.071-0.641,0.146
			c-0.498,0.081-1.113,0.178-1.858,0.296c-1.614,0.245-3.957,0.565-6.854,0.934c-5.792,0.742-13.809,1.652-22.683,2.464
			c-8.877,0.811-16.927,1.368-22.757,1.687c-2.916,0.162-5.277,0.271-6.907,0.323c-0.754,0.019-1.376,0.032-1.881,0.045
			c-0.43,0.003-0.656-0.005-0.658-0.03c0-0.02,0.226-0.056,0.65-0.102c0.503-0.048,1.118-0.102,1.873-0.17
			c1.726-0.133,4.058-0.314,6.894-0.532c5.816-0.439,13.856-1.07,22.725-1.878c8.868-0.812,16.889-1.647,22.69-2.269
			c2.829-0.3,5.152-0.542,6.877-0.726c0.751-0.069,1.369-0.126,1.87-0.173C591.137,168.429,591.367,168.422,591.368,168.447"/>
		<path clip-path="url(#SVGID_16_)" fill="#FAFBFC" d="M596.074,205.938c0.01,0.183-16.462,1.321-36.789,2.542
			c-20.33,1.222-36.816,2.064-36.825,1.883c-0.013-0.183,16.455-1.322,36.788-2.542C579.574,206.6,596.061,205.756,596.074,205.938"
			/>
		<path clip-path="url(#SVGID_16_)" fill="#FAFBFC" d="M592.503,219.209c0.032,0.179-15.147,3.122-33.898,6.573
			c-18.756,3.453-33.985,6.105-34.018,5.925c-0.033-0.178,15.141-3.123,33.898-6.573
			C577.238,221.681,592.472,219.028,592.503,219.209"/>
		<path clip-path="url(#SVGID_16_)" fill="#FAFBFC" d="M591,243.353c-0.003,0.184-15.354,0.131-34.274-0.115
			c-18.937-0.248-34.275-0.595-34.272-0.779c0.002-0.181,15.348-0.131,34.28,0.116C575.657,242.822,591,243.17,591,243.353"/>
		<path clip-path="url(#SVGID_16_)" fill="#FAFBFC" d="M615.889,211.822c0,0.183-4.607,0.263-10.286,0.179
			c-5.677-0.084-10.274-0.299-10.273-0.482c0-0.182,4.609-0.261,10.287-0.178C611.291,211.424,615.891,211.639,615.889,211.822"/>
		<path clip-path="url(#SVGID_16_)" fill="#FAFBFC" d="M610.826,197.866c0.032,0.178-3.403,1.009-7.679,1.854
			c-4.271,0.844-7.766,1.383-7.803,1.204c-0.033-0.177,3.399-1.008,7.678-1.854C607.293,198.226,610.792,197.686,610.826,197.866"/>
		<path clip-path="url(#SVGID_16_)" fill="#FAFBFC" d="M559.624,263.111c0.008,0.182-8.226,0.725-18.387,1.215
			c-10.163,0.488-18.408,0.738-18.417,0.556c-0.009-0.183,8.22-0.728,18.386-1.217C551.366,263.176,559.611,262.928,559.624,263.111
			"/>
		<path clip-path="url(#SVGID_16_)" fill="#FAFBFC" d="M594.222,256.244c0.027,0.181-5.68,1.246-12.746,2.383
			c-7.063,1.136-12.818,1.913-12.846,1.73c-0.03-0.18,5.674-1.247,12.744-2.382C588.437,256.837,594.193,256.063,594.222,256.244"/>
		<path clip-path="url(#SVGID_16_)" fill="#FAFBFC" d="M554.917,276.229c0.063,0.173-7.584,3.079-17.071,6.491
			c-9.493,3.415-17.236,6.042-17.301,5.87c-0.059-0.171,7.582-3.079,17.077-6.492C547.109,278.687,554.854,276.059,554.917,276.229"
			/>
		<path clip-path="url(#SVGID_16_)" fill="#FAFBFC" d="M593.485,265.565c0.031,0.181-4.303,1.134-9.681,2.129
			c-5.38,0.996-9.768,1.66-9.803,1.479c-0.03-0.18,4.3-1.133,9.682-2.128C589.064,266.048,593.452,265.386,593.485,265.565"/>
		<path clip-path="url(#SVGID_16_)" fill="#FAFBFC" d="M598.607,290.769c0.012,0.184-17.514,1.523-39.136,2.998
			c-21.632,1.476-39.173,2.523-39.183,2.341c-0.014-0.182,17.504-1.526,39.138-3C581.051,291.633,598.593,290.585,598.607,290.769"
			/>
		<g opacity="0.3" clip-path="url(#SVGID_16_)">
			<g>
				<defs>
					<rect id="SVGID_21_" x="541.004" y="259.2" width="39.258" height="16.791"/>
				</defs>
				<clipPath id="SVGID_22_">
					<use xlink:href="#SVGID_21_"  overflow="visible"/>
				</clipPath>
				<path clip-path="url(#SVGID_22_)" fill="#010101" d="M541.683,275.322c-1.283-0.95-0.597-3.177,0.813-3.92
					c1.41-0.741,3.108-0.498,4.694-0.348c9.808,0.934,19.955-2.653,26.997-9.542c0.861-0.843,1.726-1.763,2.867-2.159
					c1.143-0.394,2.649-0.032,3.082,1.096c0.341,0.889-0.09,1.875-0.567,2.698c-3.514,6.036-9.995,9.914-16.771,11.596
					c-6.778,1.681-13.886,1.394-20.834,0.699"/>
			</g>
		</g>
		<g opacity="0.3" clip-path="url(#SVGID_16_)">
			<g>
				<defs>
					<rect id="SVGID_23_" x="514.271" y="197.392" width="8.751" height="29.722"/>
				</defs>
				<clipPath id="SVGID_24_">
					<use xlink:href="#SVGID_23_"  overflow="visible"/>
				</clipPath>
				<path clip-path="url(#SVGID_24_)" fill="#010101" d="M520.383,197.392c-1.441,10.017-3.482,19.947-6.111,29.722l8.751-0.517
					L520.383,197.392z"/>
			</g>
		</g>
	</g>
</g>
</svg>
