<?xml version="1.0" encoding="utf-8"?>
<!-- Generator: Adobe Illustrator 16.0.0, SVG Export Plug-In . SVG Version: 6.00 Build 0)  -->
<!DOCTYPE svg PUBLIC "-//W3C//DTD SVG 1.1//EN" "http://www.w3.org/Graphics/SVG/1.1/DTD/svg11.dtd">
<svg version="1.1" id="Layer_1" xmlns="http://www.w3.org/2000/svg" xmlns:xlink="http://www.w3.org/1999/xlink" x="0px" y="0px"
	 width="500px" height="500px" viewBox="0 0 500 500" enable-background="new 0 0 500 500" xml:space="preserve">
<g>
	<g>
		<defs>
			<rect id="SVGID_1_" width="500" height="500"/>
		</defs>
		<clipPath id="SVGID_2_">
			<use xlink:href="#SVGID_1_"  overflow="visible"/>
		</clipPath>
		<path clip-path="url(#SVGID_2_)" fill="#E0E0E0" d="M34.215,159.767c0.045-0.042,0.658,0.504,1.49,1.537
			c0.831,1.029,1.848,2.57,2.678,4.421c0.826,1.853,1.295,3.639,1.508,4.945c0.215,1.307,0.214,2.129,0.152,2.135
			c-0.166,0.027-0.492-3.239-2.135-6.868C36.3,162.293,34.083,159.872,34.215,159.767"/>
		<path clip-path="url(#SVGID_2_)" fill="#E0E0E0" d="M41.308,148.468c0.035-0.006,0.129,0.341,0.269,0.974
			c0.141,0.632,0.322,1.552,0.529,2.692c0.414,2.278,0.919,5.439,1.37,8.944c0.451,3.507,0.764,6.693,0.939,9.002
			c0.089,1.155,0.146,2.091,0.171,2.738c0.025,0.648,0.022,1.007-0.014,1.01s-0.101-0.35-0.188-0.992
			c-0.094-0.759-0.205-1.664-0.335-2.72c-0.295-2.43-0.672-5.536-1.089-8.971c-0.466-3.428-0.888-6.528-1.218-8.953
			c-0.142-1.054-0.263-1.959-0.365-2.717C41.299,148.833,41.272,148.474,41.308,148.468"/>
		<path clip-path="url(#SVGID_2_)" fill="#E0E0E0" d="M48.094,153.539c0.078,0.024-0.194,1.06-0.536,2.748
			c-0.343,1.687-0.72,4.037-0.878,6.656c-0.152,2.62-0.056,4.999,0.086,6.716c0.141,1.716,0.288,2.776,0.208,2.791
			c-0.061,0.011-0.338-1.029-0.574-2.752c-0.237-1.721-0.394-4.131-0.24-6.785c0.16-2.654,0.601-5.028,1.039-6.708
			C47.637,154.521,48.034,153.52,48.094,153.539"/>
		<path clip-path="url(#SVGID_2_)" fill="#E0E0E0" d="M54.488,161.171c0.138,0.096-1.703,2.267-2.684,5.545
			c-1.024,3.267-0.714,6.096-0.882,6.099c-0.061,0.007-0.222-0.686-0.249-1.831c-0.03-1.143,0.121-2.74,0.633-4.42
			c0.517-1.678,1.286-3.085,1.951-4.016C53.921,161.614,54.442,161.13,54.488,161.171"/>
		<path clip-path="url(#SVGID_2_)" fill="#E0E0E0" d="M180.348,142.96c0.095-0.091,1.618,1.508,2.777,3.943
			c1.175,2.428,1.47,4.617,1.34,4.633c-0.153,0.035-0.666-2.049-1.809-4.408C181.531,144.762,180.225,143.058,180.348,142.96"/>
		<path clip-path="url(#SVGID_2_)" fill="#E0E0E0" d="M187.32,143.288c0.144,0.009,0.166,1.48,0.049,3.284
			c-0.116,1.805-0.327,3.26-0.47,3.251c-0.144-0.009-0.166-1.479-0.05-3.285C186.966,144.734,187.176,143.279,187.32,143.288"/>
		<path clip-path="url(#SVGID_2_)" fill="#E0E0E0" d="M194.046,141.91c0.127,0.103-1.511,1.962-2.63,4.743
			c-1.151,2.769-1.286,5.242-1.449,5.227c-0.125,0.018-0.223-2.551,0.967-5.425C192.098,143.573,193.969,141.809,194.046,141.91"/>
		<path clip-path="url(#SVGID_2_)" fill="#E0E0E0" d="M309.675,146.733c0.101-0.084,1.468,1.567,2.433,4.001
			c0.979,2.428,1.129,4.566,0.997,4.575c-0.154,0.025-0.528-2.023-1.481-4.382C310.688,148.563,309.545,146.821,309.675,146.733"/>
		<path clip-path="url(#SVGID_2_)" fill="#E0E0E0" d="M316.324,145.192c0.068,0.054-0.269,0.515-0.604,1.341
			c-0.339,0.821-0.615,2.041-0.511,3.392c0.111,1.352,0.577,2.512,1.042,3.269c0.462,0.763,0.868,1.165,0.807,1.229
			c-0.032,0.043-0.54-0.267-1.112-1.023c-0.573-0.747-1.138-1.982-1.257-3.434c-0.111-1.451,0.248-2.759,0.697-3.587
			C315.833,145.541,316.284,145.154,316.324,145.192"/>
		<path clip-path="url(#SVGID_2_)" fill="#E0E0E0" d="M325.435,141.92c0.065,0.038-0.33,0.844-0.959,2.147
			c-0.63,1.303-1.478,3.111-2.323,5.147c-0.845,2.037-1.529,3.914-2.007,5.279c-0.48,1.365-0.772,2.215-0.846,2.195
			c-0.064-0.018,0.103-0.904,0.493-2.306c0.393-1.401,1.026-3.314,1.877-5.368c0.854-2.052,1.763-3.851,2.479-5.117
			C324.866,142.629,325.375,141.886,325.435,141.92"/>
		<path clip-path="url(#SVGID_2_)" fill="#E0E0E0" d="M435.504,155.423c0.026-0.022,0.253,0.208,0.64,0.645
			c0.391,0.433,0.913,1.099,1.514,1.952c1.207,1.702,2.657,4.229,3.756,7.232c1.092,3.006,1.608,5.874,1.778,7.954
			c0.089,1.04,0.118,1.885,0.097,2.468c-0.014,0.584-0.039,0.905-0.074,0.905c-0.089,0.002-0.12-1.284-0.388-3.333
			c-0.262-2.048-0.828-4.855-1.901-7.816c-1.083-2.956-2.456-5.469-3.572-7.206C436.237,156.485,435.436,155.479,435.504,155.423"/>
		<path clip-path="url(#SVGID_2_)" fill="#E0E0E0" d="M446.043,149.86c0.035-0.003,0.1,0.377,0.184,1.067
			c0.085,0.69,0.184,1.69,0.292,2.928c0.215,2.474,0.448,5.898,0.605,9.684c0.155,3.788,0.208,7.22,0.197,9.704
			c-0.005,1.242-0.021,2.246-0.05,2.941c-0.026,0.695-0.058,1.078-0.093,1.078c-0.036,0.001-0.074-0.383-0.11-1.077
			c-0.031-0.807-0.069-1.787-0.115-2.937c-0.095-2.606-0.216-5.968-0.35-9.687c-0.174-3.716-0.331-7.076-0.453-9.681
			c-0.049-1.15-0.091-2.13-0.127-2.937C446.003,150.248,446.008,149.863,446.043,149.86"/>
		<path clip-path="url(#SVGID_2_)" fill="#E0E0E0" d="M464.7,143.543c0.076,0.095-1.817,1.183-4.023,3.819
			c-2.223,2.598-4.515,6.874-5.631,11.994c-1.116,5.124-1.127,9.92-1.129,13.358c0.014,1.652,0.025,3.026,0.036,4.086
			c0.005,0.966-0.008,1.5-0.044,1.502c-0.035,0.001-0.092-0.53-0.158-1.494c-0.068-0.964-0.148-2.36-0.202-4.087
			c-0.092-3.445-0.142-8.279,0.988-13.478c1.133-5.2,3.525-9.54,5.859-12.12c1.156-1.304,2.233-2.224,3.026-2.784
			c0.382-0.297,0.717-0.477,0.93-0.617C464.572,143.59,464.689,143.528,464.7,143.543"/>
		<path clip-path="url(#SVGID_2_)" fill="#E0E0E0" d="M31.047,136.727l8.94-40.398h4.778c0,0,2.92-39.55,5.308-40.346
			c2.39-0.796,28.667-1.062,28.933,0c0.265,1.062,0,2.655,0,2.655l6.37-7.167c0,0,7.698,1.592,8.494,1.327
			c0.797-0.265,3.982,30.26,3.982,30.26s4.512-1.858,5.308,0.265c0.797,2.123,0,23.889,0,23.889s14.068-0.531,14.599,1.858
			c0.531,2.389,13.107,27.657,13.107,27.657"/>
		<path clip-path="url(#SVGID_2_)" fill="#E0E0E0" d="M367.442,136.727c0,0,10.284-19.181,10.604-20.817
			c0.318-1.637,0.331-28.906,0.325-31.087c-0.007-2.182-0.407-3,1.293-4.909c1.699-1.909,1.681-3.623,4.144-3.311
			c2.464,0.311,5.175,2.22,5.175,2.22s3.288,30.269,4.106,29.997c0.818-0.273,2.007-3.273,2.007-3.273s-4.619-36.268-3.176-39.54
			c1.442-3.273,2.183-7.363,3.176-10.908c0.992-3.545,14.9-8.999,14.9-8.999s3.818,10.635,4.909,11.181
			c1.091,0.545,6.544,8.453,6.544,8.453s0.546,33.309,1.637,33.153c1.09-0.157,1.896-6.702,1.896-6.702v-18.27
			c0,0-0.56-13.089,0-13.907c0.558-0.819,3.283-11.726,3.283-13.908c0-2.181,2.729-3.272,2.729-3.272v46.63
			c0,0,5.726,28.906,9.271,29.451c3.545,0.546,10.091,5.727,10.091,5.727l19.12,12.091"/>
		<path clip-path="url(#SVGID_2_)" fill="#F5F5F5" d="M188.294,135.886c0-37.324,30.257-67.582,67.583-67.582
			c37.323,0,67.581,30.258,67.581,67.582"/>
		<path clip-path="url(#SVGID_2_)" fill="#E0E0E0" d="M459.906,136.727c0,0.144-97.093,0.26-216.833,0.26
			c-119.783,0-216.854-0.116-216.854-0.26s97.071-0.261,216.854-0.261C362.813,136.465,459.906,136.583,459.906,136.727"/>
	</g>
	<g>
		<defs>
			<rect id="SVGID_3_" width="500" height="500"/>
		</defs>
		<clipPath id="SVGID_4_">
			<use xlink:href="#SVGID_3_"  overflow="visible"/>
		</clipPath>
	</g>
	<g>
		<defs>
			<rect id="SVGID_5_" y="1.25" width="500" height="500"/>
		</defs>
		<clipPath id="SVGID_6_">
			<use xlink:href="#SVGID_5_"  overflow="visible"/>
		</clipPath>
		<path clip-path="url(#SVGID_6_)" fill="#211D37" d="M170.708,122.34v16.137c1.379,0,2.498-1.119,2.498-2.498v-7.057
			c0-1.08,0.875-1.955,1.954-1.955c1.08,0,1.955,0.875,1.955,1.955v6.124c0,3.454-2.801,6.253-6.254,6.253h-0.044v19.979h-5.321
			v-8.034h-1.666c-2.878,0-5.23-2.297-5.299-5.173l-0.257-10.638c-0.028-1.214,0.948-2.214,2.162-2.214
			c1.22,0,2.198,1.006,2.162,2.225c-0.102,3.353-0.235,9.515,0.075,11.456c0.434,2.715,2.715,1.955,2.715,1.955
			s-0.883-19.739-1.062-28.453c-0.036-1.786,1.404-3.253,3.191-3.253C169.28,119.149,170.708,120.578,170.708,122.34"/>
		<path clip-path="url(#SVGID_6_)" fill="#263238" d="M165.104,122.788c0,0.038-0.284,0.069-0.633,0.069
			c-0.35,0-0.634-0.031-0.634-0.069s0.284-0.068,0.634-0.068C164.82,122.72,165.104,122.75,165.104,122.788"/>
		<path clip-path="url(#SVGID_6_)" fill="#263238" d="M164.874,124.248c0,0.038-0.249,0.068-0.557,0.068
			c-0.307,0-0.556-0.03-0.556-0.068s0.249-0.069,0.556-0.069C164.625,124.178,164.874,124.209,164.874,124.248"/>
		<path clip-path="url(#SVGID_6_)" fill="#263238" d="M171.363,123.249c0,0.038-0.258,0.069-0.576,0.069
			c-0.319,0-0.576-0.031-0.576-0.069c0-0.038,0.257-0.069,0.576-0.069C171.105,123.18,171.363,123.211,171.363,123.249"/>
		<path clip-path="url(#SVGID_6_)" fill="#263238" d="M171.325,121.598c0,0.038-0.189,0.069-0.422,0.069
			c-0.234,0-0.423-0.031-0.423-0.069s0.189-0.068,0.423-0.068C171.136,121.529,171.325,121.56,171.325,121.598"/>
		<path clip-path="url(#SVGID_6_)" fill="#263238" d="M165.025,121.602c-0.02,0.033-0.327-0.113-0.687-0.326
			c-0.361-0.212-0.637-0.411-0.618-0.444c0.019-0.032,0.327,0.114,0.687,0.326C164.769,121.371,165.044,121.568,165.025,121.602"/>
		<path clip-path="url(#SVGID_6_)" fill="#263238" d="M166.229,120.283c-0.03,0.024-0.264-0.22-0.523-0.545
			c-0.26-0.325-0.446-0.608-0.416-0.631c0.03-0.024,0.264,0.22,0.523,0.545C166.072,119.977,166.258,120.26,166.229,120.283"/>
		<path clip-path="url(#SVGID_6_)" fill="#263238" d="M167.702,119.87c-0.038,0.001-0.076-0.377-0.085-0.843
			c-0.009-0.467,0.014-0.846,0.052-0.846c0.038-0.001,0.076,0.377,0.085,0.843C167.763,119.491,167.74,119.87,167.702,119.87"/>
		<path clip-path="url(#SVGID_6_)" fill="#263238" d="M169.796,118.685c0.032,0.02-0.131,0.337-0.365,0.708
			c-0.234,0.371-0.449,0.655-0.481,0.635c-0.032-0.021,0.131-0.338,0.365-0.708C169.548,118.948,169.764,118.664,169.796,118.685"/>
		<path clip-path="url(#SVGID_6_)" fill="#263238" d="M170.559,120.103c0.025,0.029-0.136,0.213-0.361,0.412
			c-0.225,0.2-0.427,0.338-0.452,0.31c-0.025-0.029,0.136-0.213,0.361-0.412C170.331,120.212,170.534,120.074,170.559,120.103"/>
		<path clip-path="url(#SVGID_6_)" fill="#263238" d="M165.257,126.366c0,0.038-0.422,0.06-0.942,0.049
			c-0.519-0.01-0.94-0.049-0.939-0.088c0.001-0.038,0.423-0.06,0.942-0.049C164.838,126.288,165.258,126.328,165.257,126.366"/>
		<path clip-path="url(#SVGID_6_)" fill="#263238" d="M172.208,124.862c0,0.038-0.516,0.069-1.152,0.069
			c-0.636,0-1.152-0.031-1.152-0.069c0-0.038,0.516-0.069,1.152-0.069C171.692,124.792,172.208,124.824,172.208,124.862"/>
		<path clip-path="url(#SVGID_6_)" fill="#263238" d="M171.056,126.244c0,0.038-0.172,0.068-0.384,0.068s-0.384-0.03-0.384-0.068
			s0.172-0.069,0.384-0.069S171.056,126.206,171.056,126.244"/>
		<path clip-path="url(#SVGID_6_)" fill="#263238" d="M165.68,127.972c0,0.038-0.456,0.068-1.018,0.068s-1.017-0.03-1.017-0.068
			c0-0.038,0.455-0.069,1.017-0.069S165.68,127.934,165.68,127.972"/>
		<path clip-path="url(#SVGID_6_)" fill="#263238" d="M166.372,129.189c0,0.038-0.551,0.069-1.23,0.069
			c-0.68,0-1.23-0.031-1.23-0.069s0.55-0.069,1.23-0.069C165.821,129.12,166.372,129.151,166.372,129.189"/>
		<path clip-path="url(#SVGID_6_)" fill="#263238" d="M171.873,128.474c0,0.038-0.4,0.069-0.895,0.069
			c-0.494,0-0.894-0.031-0.894-0.069c0-0.038,0.4-0.068,0.894-0.068C171.473,128.405,171.873,128.436,171.873,128.474"/>
		<path clip-path="url(#SVGID_6_)" fill="#263238" d="M171.247,129.815c0,0.038-0.18,0.069-0.402,0.069
			c-0.223,0-0.403-0.031-0.403-0.069c0-0.038,0.18-0.068,0.403-0.068C171.067,129.747,171.247,129.777,171.247,129.815"/>
		<path clip-path="url(#SVGID_6_)" fill="#263238" d="M165.254,131.068c0,0.038-0.351,0.069-0.783,0.069
			c-0.432,0-0.782-0.031-0.782-0.069c0-0.038,0.35-0.069,0.782-0.069C164.903,130.999,165.254,131.03,165.254,131.068"/>
		<path clip-path="url(#SVGID_6_)" fill="#263238" d="M165.298,132.275c0,0.038-0.25,0.069-0.559,0.069
			c-0.309,0-0.559-0.031-0.559-0.069s0.25-0.069,0.559-0.069C165.048,132.206,165.298,132.237,165.298,132.275"/>
		<path clip-path="url(#SVGID_6_)" fill="#263238" d="M171.203,131.91c-0.002,0.038-0.233,0.059-0.518,0.046
			c-0.284-0.012-0.512-0.052-0.511-0.09c0.002-0.039,0.233-0.059,0.517-0.047C170.975,131.831,171.204,131.872,171.203,131.91"/>
		<path clip-path="url(#SVGID_6_)" fill="#263238" d="M166.104,134.109c0,0.038-0.471,0.069-1.051,0.069s-1.051-0.031-1.051-0.069
			c0-0.038,0.471-0.068,1.051-0.068S166.104,134.071,166.104,134.109"/>
		<path clip-path="url(#SVGID_6_)" fill="#263238" d="M171.604,134.556c0,0.038-0.42,0.069-0.939,0.069s-0.939-0.031-0.939-0.069
			s0.42-0.068,0.939-0.068S171.604,134.518,171.604,134.556"/>
		<path clip-path="url(#SVGID_6_)" fill="#263238" d="M170.576,135.585c0.026,0.027,0.018,0.079-0.019,0.116
			c-0.037,0.037-0.088,0.045-0.115,0.018c-0.027-0.027-0.019-0.078,0.018-0.115C170.497,135.566,170.549,135.558,170.576,135.585"/>
		<path clip-path="url(#SVGID_6_)" fill="#263238" d="M174.467,128.966c-0.012,0.033-0.436-0.106-0.878-0.424
			c-0.445-0.316-0.715-0.672-0.687-0.694c0.029-0.028,0.336,0.277,0.766,0.582C174.096,128.737,174.483,128.929,174.467,128.966"/>
		<path clip-path="url(#SVGID_6_)" fill="#263238" d="M174.565,128.469c-0.031,0.02-0.315-0.397-0.546-0.971
			c-0.233-0.573-0.318-1.07-0.283-1.077c0.039-0.01,0.182,0.464,0.411,1.026C174.373,128.01,174.599,128.449,174.565,128.469"/>
		<path clip-path="url(#SVGID_6_)" fill="#263238" d="M175.241,128.429c-0.038,0-0.064-0.481-0.059-1.074
			c0.005-0.593,0.04-1.073,0.079-1.073c0.038,0.001,0.064,0.481,0.059,1.074C175.314,127.949,175.279,128.429,175.241,128.429"/>
		<path clip-path="url(#SVGID_6_)" fill="#263238" d="M177.107,126.373c0.033,0.017-0.164,0.476-0.489,0.997
			c-0.324,0.522-0.649,0.901-0.678,0.878c-0.032-0.023,0.241-0.435,0.562-0.951C176.824,126.781,177.073,126.354,177.107,126.373"/>
		<path clip-path="url(#SVGID_6_)" fill="#263238" d="M178.045,128.117c0.024,0.029-0.271,0.309-0.658,0.625
			c-0.386,0.315-0.72,0.548-0.744,0.519c-0.024-0.03,0.271-0.31,0.658-0.626C177.688,128.32,178.021,128.087,178.045,128.117"/>
		<path clip-path="url(#SVGID_6_)" fill="#263238" d="M178.14,129.83c0.013,0.036-0.296,0.186-0.69,0.334
			c-0.395,0.15-0.727,0.242-0.74,0.207c-0.013-0.036,0.296-0.186,0.691-0.335C177.796,129.886,178.127,129.793,178.14,129.83"/>
		<path clip-path="url(#SVGID_6_)" fill="#263238" d="M177.866,131.247c0.017,0.032-0.218,0.173-0.546,0.198
			c-0.329,0.028-0.583-0.074-0.572-0.109c0.01-0.038,0.259-0.002,0.56-0.028C177.611,131.285,177.85,131.209,177.866,131.247"/>
		<path clip-path="url(#SVGID_6_)" fill="#263238" d="M173.841,130.352c-0.008,0.037-0.375-0.013-0.82-0.112
			c-0.445-0.098-0.798-0.209-0.79-0.246c0.008-0.037,0.375,0.013,0.82,0.112C173.495,130.205,173.849,130.315,173.841,130.352"/>
		<path clip-path="url(#SVGID_6_)" fill="#263238" d="M174.018,131.17c-0.007,0.038-0.362,0.007-0.794-0.068
			c-0.433-0.075-0.777-0.166-0.771-0.203c0.006-0.038,0.362-0.007,0.794,0.068C173.679,131.042,174.024,131.133,174.018,131.17"/>
		<path clip-path="url(#SVGID_6_)" fill="#263238" d="M174.02,131.873c0.008,0.037-0.226,0.117-0.522,0.179
			c-0.297,0.062-0.543,0.082-0.551,0.045c-0.008-0.037,0.226-0.118,0.523-0.18C173.766,131.856,174.012,131.836,174.02,131.873"/>
		<path clip-path="url(#SVGID_6_)" fill="#263238" d="M159.976,136.301c-0.036,0.014-0.206-0.324-0.38-0.755
			c-0.175-0.432-0.288-0.793-0.253-0.807c0.035-0.015,0.205,0.323,0.38,0.755C159.898,135.926,160.011,136.287,159.976,136.301"/>
		<path clip-path="url(#SVGID_6_)" fill="#263238" d="M160.942,136.431c-0.037-0.009,0.022-0.396,0.132-0.866
			c0.11-0.47,0.229-0.843,0.265-0.835c0.038,0.009-0.022,0.396-0.131,0.866C161.098,136.065,160.979,136.438,160.942,136.431"/>
		<path clip-path="url(#SVGID_6_)" fill="#263238" d="M159.173,137.148c-0.024,0.029-0.364-0.207-0.759-0.528
			c-0.395-0.321-0.696-0.605-0.672-0.635c0.024-0.029,0.363,0.207,0.759,0.528C158.896,136.835,159.197,137.119,159.173,137.148"/>
		<path clip-path="url(#SVGID_6_)" fill="#263238" d="M159.038,137.683c-0.005,0.038-0.351,0.018-0.77-0.044
			c-0.42-0.062-0.756-0.143-0.751-0.18c0.006-0.038,0.351-0.018,0.771,0.044C158.707,137.565,159.044,137.645,159.038,137.683"/>
		<path clip-path="url(#SVGID_6_)" fill="#263238" d="M158.948,138.847c-0.004,0.038-0.319,0.03-0.702-0.017
			c-0.383-0.047-0.69-0.116-0.685-0.153c0.004-0.038,0.319-0.031,0.702,0.017C158.646,138.741,158.953,138.809,158.948,138.847"/>
		<path clip-path="url(#SVGID_6_)" fill="#263238" d="M158.992,140.126c0,0.038-0.251,0.067-0.56,0.064
			c-0.309-0.002-0.558-0.035-0.558-0.073s0.251-0.067,0.559-0.064C158.742,140.055,158.992,140.088,158.992,140.126"/>
		<path clip-path="url(#SVGID_6_)" fill="#263238" d="M162.838,139.931c-0.001,0.038-0.253,0.059-0.562,0.047
			c-0.309-0.011-0.558-0.051-0.556-0.089c0.001-0.038,0.253-0.06,0.561-0.048C162.59,139.853,162.839,139.893,162.838,139.931"/>
		<path clip-path="url(#SVGID_6_)" fill="#263238" d="M163.018,138.741c0,0.038-0.261,0.067-0.582,0.066
			c-0.321-0.001-0.581-0.032-0.581-0.07c0-0.038,0.261-0.068,0.582-0.067C162.758,138.67,163.018,138.703,163.018,138.741"/>
		<path clip-path="url(#SVGID_6_)" fill="#263238" d="M163.195,137.192c0.016,0.034-0.271,0.202-0.642,0.375
			c-0.37,0.173-0.684,0.285-0.7,0.251c-0.016-0.035,0.272-0.203,0.642-0.376C162.866,137.27,163.179,137.157,163.195,137.192"/>
		<path clip-path="url(#SVGID_6_)" fill="#263238" d="M162.759,136.043c0.025,0.028-0.187,0.258-0.475,0.513
			c-0.288,0.256-0.541,0.44-0.567,0.411c-0.025-0.028,0.188-0.258,0.476-0.513C162.48,136.198,162.734,136.014,162.759,136.043"/>
		<path clip-path="url(#SVGID_6_)" fill="#263238" d="M165.703,135.499c0.011,0.035-0.299,0.149-0.7,0.16
			c-0.402,0.012-0.717-0.085-0.709-0.12c0.008-0.039,0.321-0.005,0.705-0.018C165.383,135.511,165.693,135.459,165.703,135.499"/>
		<path clip-path="url(#SVGID_6_)" fill="#263238" d="M165.952,136.87c0.008,0.036-0.438,0.16-1.004,0.213
			c-0.567,0.056-1.028,0.018-1.028-0.019c0.001-0.039,0.456-0.063,1.014-0.117C165.493,136.894,165.944,136.831,165.952,136.87"/>
		<path clip-path="url(#SVGID_6_)" fill="#263238" d="M166.199,138.021c0.006,0.037-0.48,0.145-1.086,0.24
			c-0.606,0.095-1.102,0.142-1.108,0.104c-0.006-0.037,0.48-0.145,1.086-0.24C165.697,138.03,166.193,137.983,166.199,138.021"/>
		<path clip-path="url(#SVGID_6_)" fill="#263238" d="M171.172,136.376c-0.001,0.038-0.243,0.062-0.541,0.052
			c-0.297-0.009-0.538-0.047-0.537-0.084c0.001-0.038,0.244-0.062,0.541-0.053C170.934,136.3,171.173,136.338,171.172,136.376"/>
		<path clip-path="url(#SVGID_6_)" fill="#263238" d="M171.339,136.997c0.002,0.038-0.182,0.078-0.411,0.089
			c-0.229,0.012-0.416-0.01-0.418-0.048c-0.002-0.038,0.182-0.078,0.411-0.089C171.15,136.937,171.337,136.959,171.339,136.997"/>
		<path clip-path="url(#SVGID_6_)" fill="#263238" d="M174.239,133.341c0,0.036-0.478,0.065-1.058-0.028
			c-0.58-0.091-1.026-0.267-1.014-0.301c0.011-0.038,0.467,0.076,1.036,0.165C173.772,133.269,174.239,133.301,174.239,133.341"/>
		<path clip-path="url(#SVGID_6_)" fill="#263238" d="M178.343,132.607c0.005,0.038-0.334,0.114-0.758,0.17
			c-0.423,0.057-0.771,0.072-0.776,0.034c-0.005-0.037,0.335-0.114,0.758-0.17C177.99,132.585,178.338,132.569,178.343,132.607"/>
		<path clip-path="url(#SVGID_6_)" fill="#263238" d="M165.784,140.686c-0.007,0.037-0.394-0.006-0.863-0.097
			c-0.469-0.091-0.844-0.195-0.837-0.233c0.008-0.037,0.394,0.007,0.863,0.098C165.417,140.543,165.792,140.647,165.784,140.686"/>
		<path clip-path="url(#SVGID_6_)" fill="#211D37" d="M338.763,132.798v9.226c-0.789,0-1.429-0.64-1.429-1.428v-4.035
			c0-0.617-0.5-1.117-1.118-1.117c-0.615,0-1.116,0.5-1.116,1.117v3.502c0,1.974,1.6,3.575,3.574,3.575h0.026v11.423h3.041v-4.595
			h0.954c1.644,0,2.989-1.312,3.029-2.957l0.146-6.082c0.018-0.694-0.541-1.266-1.234-1.266c-0.698,0-1.258,0.575-1.236,1.272
			c0.058,1.917,0.134,5.441-0.043,6.551c-0.248,1.551-1.552,1.117-1.552,1.117s0.505-11.285,0.605-16.267
			c0.022-1.022-0.802-1.86-1.824-1.86C339.578,130.974,338.763,131.791,338.763,132.798"/>
		<path clip-path="url(#SVGID_6_)" fill="#263238" d="M341.967,133.054c0,0.022,0.161,0.04,0.361,0.04s0.363-0.018,0.363-0.04
			c0-0.021-0.163-0.039-0.363-0.039S341.967,133.033,341.967,133.054"/>
		<path clip-path="url(#SVGID_6_)" fill="#263238" d="M342.099,133.889c0,0.021,0.143,0.039,0.317,0.039
			c0.176,0,0.319-0.018,0.319-0.039c0-0.022-0.144-0.04-0.319-0.04C342.241,133.849,342.099,133.867,342.099,133.889"/>
		<path clip-path="url(#SVGID_6_)" fill="#263238" d="M338.389,133.318c0,0.021,0.146,0.039,0.328,0.039
			c0.183,0,0.329-0.018,0.329-0.039c0-0.022-0.146-0.04-0.329-0.04C338.535,133.278,338.389,133.296,338.389,133.318"/>
		<path clip-path="url(#SVGID_6_)" fill="#263238" d="M338.41,132.374c0,0.021,0.107,0.039,0.241,0.039s0.241-0.018,0.241-0.039
			c0-0.022-0.107-0.04-0.241-0.04S338.41,132.352,338.41,132.374"/>
		<path clip-path="url(#SVGID_6_)" fill="#263238" d="M342.012,132.376c0.012,0.019,0.187-0.065,0.394-0.186
			c0.206-0.122,0.363-0.235,0.353-0.254c-0.012-0.018-0.187,0.065-0.393,0.186C342.158,132.244,342,132.357,342.012,132.376"/>
		<path clip-path="url(#SVGID_6_)" fill="#263238" d="M341.324,131.622c0.017,0.014,0.149-0.126,0.299-0.312
			c0.147-0.186,0.255-0.347,0.237-0.36c-0.017-0.014-0.15,0.126-0.3,0.312C341.413,131.447,341.306,131.609,341.324,131.622"/>
		<path clip-path="url(#SVGID_6_)" fill="#263238" d="M340.481,131.386c0.021,0.001,0.044-0.215,0.049-0.482
			c0.005-0.267-0.008-0.483-0.03-0.484c-0.021,0-0.043,0.216-0.048,0.483C340.447,131.168,340.46,131.386,340.481,131.386"/>
		<path clip-path="url(#SVGID_6_)" fill="#263238" d="M339.284,130.708c-0.02,0.012,0.074,0.193,0.209,0.405
			c0.134,0.212,0.257,0.374,0.274,0.363c0.019-0.012-0.075-0.193-0.209-0.405C339.426,130.859,339.303,130.696,339.284,130.708"/>
		<path clip-path="url(#SVGID_6_)" fill="#263238" d="M338.849,131.519c-0.016,0.016,0.077,0.122,0.206,0.235
			c0.129,0.115,0.243,0.194,0.259,0.177c0.014-0.016-0.078-0.121-0.207-0.235C338.979,131.582,338.862,131.503,338.849,131.519"/>
		<path clip-path="url(#SVGID_6_)" fill="#263238" d="M341.879,135.1c0.001,0.021,0.241,0.034,0.539,0.028
			c0.297-0.006,0.536-0.028,0.536-0.05c-0.001-0.021-0.241-0.034-0.539-0.028C342.118,135.056,341.879,135.078,341.879,135.1"/>
		<path clip-path="url(#SVGID_6_)" fill="#263238" d="M337.905,134.24c0,0.022,0.295,0.04,0.658,0.04s0.658-0.018,0.658-0.04
			c0-0.021-0.295-0.039-0.658-0.039S337.905,134.219,337.905,134.24"/>
		<path clip-path="url(#SVGID_6_)" fill="#263238" d="M338.564,135.03c0,0.021,0.098,0.039,0.219,0.039
			c0.122,0,0.219-0.018,0.219-0.039c0-0.022-0.097-0.04-0.219-0.04C338.662,134.99,338.564,135.008,338.564,135.03"/>
		<path clip-path="url(#SVGID_6_)" fill="#263238" d="M341.638,136.018c0,0.021,0.261,0.039,0.582,0.039
			c0.32,0,0.581-0.018,0.581-0.039s-0.261-0.039-0.581-0.039C341.898,135.979,341.638,135.997,341.638,136.018"/>
		<path clip-path="url(#SVGID_6_)" fill="#263238" d="M341.242,136.714c0,0.022,0.313,0.04,0.702,0.04
			c0.39,0,0.703-0.018,0.703-0.04c0-0.021-0.313-0.039-0.703-0.039C341.556,136.675,341.242,136.693,341.242,136.714"/>
		<path clip-path="url(#SVGID_6_)" fill="#263238" d="M338.097,136.305c0,0.021,0.229,0.039,0.512,0.039
			c0.282,0,0.511-0.018,0.511-0.039c0-0.022-0.229-0.04-0.511-0.04C338.325,136.265,338.097,136.283,338.097,136.305"/>
		<path clip-path="url(#SVGID_6_)" fill="#263238" d="M338.455,137.072c0,0.021,0.103,0.039,0.229,0.039s0.23-0.018,0.23-0.039
			c0-0.022-0.104-0.04-0.23-0.04S338.455,137.05,338.455,137.072"/>
		<path clip-path="url(#SVGID_6_)" fill="#263238" d="M341.881,137.788c0,0.021,0.2,0.039,0.447,0.039s0.448-0.018,0.448-0.039
			s-0.201-0.039-0.448-0.039S341.881,137.767,341.881,137.788"/>
		<path clip-path="url(#SVGID_6_)" fill="#263238" d="M341.855,138.479c0,0.021,0.144,0.039,0.319,0.039
			c0.177,0,0.32-0.018,0.32-0.039c0-0.022-0.144-0.04-0.32-0.04C341.999,138.438,341.855,138.457,341.855,138.479"/>
		<path clip-path="url(#SVGID_6_)" fill="#263238" d="M338.48,138.27c0.001,0.021,0.133,0.034,0.296,0.026
			c0.162-0.006,0.293-0.03,0.292-0.051c-0.001-0.022-0.133-0.034-0.296-0.027C338.61,138.224,338.479,138.247,338.48,138.27"/>
		<path clip-path="url(#SVGID_6_)" fill="#263238" d="M341.396,139.527c0,0.021,0.27,0.039,0.601,0.039
			c0.332,0,0.601-0.018,0.601-0.039c0-0.022-0.269-0.039-0.601-0.039C341.665,139.488,341.396,139.505,341.396,139.527"/>
		<path clip-path="url(#SVGID_6_)" fill="#263238" d="M338.25,139.783c0,0.021,0.24,0.039,0.536,0.039
			c0.298,0,0.537-0.018,0.537-0.039c0-0.022-0.239-0.04-0.537-0.04C338.49,139.743,338.25,139.761,338.25,139.783"/>
		<path clip-path="url(#SVGID_6_)" fill="#263238" d="M338.839,140.371c-0.017,0.015-0.012,0.045,0.01,0.066
			c0.021,0.021,0.051,0.026,0.065,0.011c0.017-0.015,0.012-0.045-0.011-0.066C338.884,140.359,338.854,140.355,338.839,140.371"/>
		<path clip-path="url(#SVGID_6_)" fill="#263238" d="M336.614,136.586c0.007,0.019,0.249-0.061,0.502-0.243
			c0.254-0.18,0.407-0.383,0.393-0.397c-0.017-0.015-0.193,0.159-0.438,0.333C336.826,136.455,336.604,136.565,336.614,136.586"/>
		<path clip-path="url(#SVGID_6_)" fill="#263238" d="M336.558,136.302c0.018,0.011,0.181-0.227,0.312-0.555
			c0.133-0.328,0.183-0.612,0.162-0.616c-0.021-0.006-0.104,0.265-0.235,0.587C336.667,136.039,336.537,136.291,336.558,136.302"/>
		<path clip-path="url(#SVGID_6_)" fill="#263238" d="M336.171,136.279c0.021,0,0.036-0.275,0.033-0.614s-0.022-0.614-0.045-0.614
			c-0.021,0.001-0.036,0.276-0.032,0.615C336.13,136.005,336.149,136.279,336.171,136.279"/>
		<path clip-path="url(#SVGID_6_)" fill="#263238" d="M335.104,135.104c-0.021,0.009,0.093,0.272,0.278,0.57
			c0.187,0.299,0.371,0.515,0.389,0.502c0.019-0.013-0.139-0.248-0.321-0.544C335.266,135.337,335.124,135.093,335.104,135.104"/>
		<path clip-path="url(#SVGID_6_)" fill="#263238" d="M334.568,136.101c-0.016,0.017,0.153,0.177,0.375,0.357
			c0.222,0.181,0.412,0.313,0.426,0.297c0.013-0.017-0.155-0.177-0.376-0.358C334.771,136.217,334.581,136.084,334.568,136.101"/>
		<path clip-path="url(#SVGID_6_)" fill="#263238" d="M334.514,137.08c-0.008,0.021,0.17,0.106,0.396,0.191
			c0.226,0.086,0.415,0.139,0.421,0.118c0.008-0.02-0.169-0.106-0.394-0.191C334.71,137.113,334.521,137.059,334.514,137.08"/>
		<path clip-path="url(#SVGID_6_)" fill="#263238" d="M334.671,137.89c-0.011,0.019,0.124,0.099,0.312,0.113
			c0.188,0.016,0.334-0.042,0.327-0.062c-0.005-0.022-0.148-0.001-0.321-0.016C334.816,137.912,334.68,137.869,334.671,137.89"/>
		<path clip-path="url(#SVGID_6_)" fill="#263238" d="M336.972,137.379c0.005,0.021,0.215-0.007,0.469-0.064
			c0.255-0.057,0.457-0.12,0.452-0.141s-0.215,0.008-0.47,0.064C337.168,137.295,336.967,137.358,336.972,137.379"/>
		<path clip-path="url(#SVGID_6_)" fill="#263238" d="M336.871,137.847c0.004,0.021,0.207,0.004,0.453-0.039
			c0.247-0.043,0.444-0.095,0.441-0.116c-0.004-0.022-0.208-0.004-0.455,0.039C337.063,137.772,336.866,137.826,336.871,137.847"/>
		<path clip-path="url(#SVGID_6_)" fill="#263238" d="M336.869,138.248c-0.004,0.021,0.13,0.067,0.299,0.103
			c0.17,0.035,0.31,0.046,0.314,0.025c0.004-0.021-0.13-0.067-0.299-0.102C337.015,138.238,336.874,138.227,336.869,138.248"/>
		<path clip-path="url(#SVGID_6_)" fill="#263238" d="M344.898,140.78c0.021,0.008,0.117-0.185,0.218-0.432
			c0.099-0.247,0.165-0.453,0.144-0.461c-0.02-0.008-0.116,0.185-0.217,0.432C344.943,140.564,344.878,140.771,344.898,140.78"/>
		<path clip-path="url(#SVGID_6_)" fill="#263238" d="M344.347,140.854c0.021-0.005-0.014-0.227-0.075-0.495
			c-0.064-0.269-0.131-0.482-0.153-0.477c-0.021,0.005,0.013,0.226,0.076,0.495C344.256,140.646,344.325,140.859,344.347,140.854"/>
		<path clip-path="url(#SVGID_6_)" fill="#263238" d="M345.358,141.265c0.014,0.017,0.208-0.119,0.434-0.302
			c0.225-0.184,0.398-0.346,0.384-0.363c-0.014-0.017-0.208,0.119-0.434,0.302C345.516,141.085,345.344,141.248,345.358,141.265"/>
		<path clip-path="url(#SVGID_6_)" fill="#263238" d="M345.436,141.57c0.003,0.021,0.199,0.01,0.439-0.025
			c0.241-0.036,0.433-0.082,0.43-0.103c-0.004-0.022-0.2-0.011-0.44,0.025C345.623,141.502,345.432,141.549,345.436,141.57"/>
		<path clip-path="url(#SVGID_6_)" fill="#263238" d="M345.486,142.236c0.003,0.021,0.183,0.017,0.4-0.01
			c0.221-0.027,0.396-0.066,0.393-0.088c-0.002-0.021-0.183-0.017-0.401,0.01C345.659,142.175,345.483,142.215,345.486,142.236"/>
		<path clip-path="url(#SVGID_6_)" fill="#263238" d="M345.461,142.967c0,0.022,0.144,0.038,0.319,0.037
			c0.178-0.002,0.32-0.02,0.32-0.042s-0.144-0.038-0.321-0.037C345.604,142.926,345.461,142.946,345.461,142.967"/>
		<path clip-path="url(#SVGID_6_)" fill="#263238" d="M343.263,142.855c0,0.021,0.145,0.034,0.319,0.027
			c0.178-0.006,0.32-0.029,0.319-0.051c-0.001-0.022-0.146-0.034-0.322-0.027C343.404,142.811,343.262,142.833,343.263,142.855"/>
		<path clip-path="url(#SVGID_6_)" fill="#263238" d="M343.16,142.175c0,0.021,0.147,0.039,0.332,0.038
			c0.184,0,0.333-0.019,0.332-0.04c0-0.022-0.148-0.039-0.332-0.039C343.308,142.135,343.16,142.154,343.16,142.175"/>
		<path clip-path="url(#SVGID_6_)" fill="#263238" d="M343.059,141.289c-0.011,0.02,0.154,0.116,0.366,0.215
			c0.212,0.098,0.392,0.163,0.4,0.143s-0.155-0.116-0.367-0.214C343.246,141.334,343.067,141.269,343.059,141.289"/>
		<path clip-path="url(#SVGID_6_)" fill="#263238" d="M343.308,140.633c-0.016,0.016,0.106,0.147,0.271,0.293
			c0.166,0.146,0.311,0.251,0.325,0.235c0.014-0.016-0.108-0.147-0.272-0.293S343.322,140.616,343.308,140.633"/>
		<path clip-path="url(#SVGID_6_)" fill="#263238" d="M341.625,140.321c-0.007,0.02,0.17,0.085,0.399,0.091
			c0.23,0.007,0.41-0.048,0.406-0.069c-0.005-0.022-0.185-0.002-0.404-0.009C341.808,140.328,341.63,140.299,341.625,140.321"/>
		<path clip-path="url(#SVGID_6_)" fill="#263238" d="M341.482,141.105c-0.005,0.021,0.25,0.091,0.573,0.122
			c0.323,0.031,0.587,0.01,0.587-0.011c0-0.022-0.261-0.036-0.579-0.068C341.745,141.119,341.486,141.083,341.482,141.105"/>
		<path clip-path="url(#SVGID_6_)" fill="#263238" d="M341.341,141.763c-0.003,0.021,0.273,0.083,0.621,0.137
			c0.347,0.055,0.63,0.081,0.634,0.06c0.003-0.021-0.276-0.083-0.621-0.137C341.628,141.768,341.344,141.742,341.341,141.763"/>
		<path clip-path="url(#SVGID_6_)" fill="#263238" d="M338.497,140.823c0.001,0.022,0.14,0.035,0.31,0.03
			c0.169-0.005,0.307-0.027,0.306-0.049c0-0.021-0.138-0.035-0.308-0.029C338.634,140.78,338.497,140.802,338.497,140.823"/>
		<path clip-path="url(#SVGID_6_)" fill="#263238" d="M338.402,141.178c-0.001,0.021,0.104,0.044,0.234,0.051
			c0.131,0.006,0.238-0.006,0.239-0.028s-0.104-0.044-0.236-0.051C338.51,141.144,338.403,141.156,338.402,141.178"/>
		<path clip-path="url(#SVGID_6_)" fill="#263238" d="M336.744,139.088c0,0.021,0.271,0.037,0.604-0.016
			c0.333-0.052,0.587-0.152,0.581-0.172c-0.007-0.022-0.267,0.043-0.593,0.094C337.012,139.046,336.744,139.065,336.744,139.088"/>
		<path clip-path="url(#SVGID_6_)" fill="#263238" d="M334.397,138.668c-0.003,0.022,0.19,0.065,0.434,0.098
			c0.242,0.032,0.44,0.04,0.443,0.019c0.003-0.022-0.191-0.065-0.435-0.097C334.598,138.655,334.4,138.647,334.397,138.668"/>
		<path clip-path="url(#SVGID_6_)" fill="#263238" d="M341.578,143.287c0.004,0.021,0.225-0.003,0.492-0.056
			c0.27-0.051,0.483-0.111,0.479-0.132s-0.225,0.003-0.493,0.055C341.788,143.206,341.574,143.266,341.578,143.287"/>
		<path clip-path="url(#SVGID_6_)" fill="#263238" d="M34.172,189.154c0.027-0.023,0.341,0.291,0.886,0.882
			c0.55,0.586,1.302,1.476,2.177,2.618c0.89,1.133,1.846,2.559,2.841,4.184c0.963,1.645,1.923,3.513,2.761,5.549
			c1.686,4.076,2.488,8.013,2.876,10.857c0.177,1.428,0.288,2.587,0.313,3.39c0.037,0.804,0.041,1.248,0.005,1.25
			c-0.093,0.007-0.225-1.764-0.683-4.585c-0.477-2.812-1.327-6.689-2.993-10.715c-0.829-2.011-1.763-3.863-2.693-5.504
			c-0.962-1.621-1.878-3.055-2.722-4.207c-0.831-1.162-1.536-2.082-2.037-2.706C34.407,189.538,34.145,189.178,34.172,189.154"/>
		<path clip-path="url(#SVGID_6_)" fill="#263238" d="M48.133,195.657c0.08,0.011-0.044,1.258-0.16,3.273
			c-0.118,2.016-0.194,4.804-0.043,7.877c0.156,3.075,0.509,5.842,0.826,7.836c0.316,1.994,0.563,3.222,0.485,3.241
			c-0.035,0.008-0.137-0.29-0.292-0.836c-0.158-0.546-0.35-1.345-0.555-2.34c-0.413-1.988-0.827-4.774-0.984-7.875
			c-0.152-3.099-0.017-5.912,0.196-7.932c0.105-1.01,0.216-1.825,0.32-2.383C48.026,195.959,48.097,195.652,48.133,195.657"/>
		<path clip-path="url(#SVGID_6_)" fill="#263238" d="M60.86,192.718c0.077,0.079-1.055,1.036-2.381,2.975
			c-0.69,0.95-1.327,2.201-1.973,3.607c-0.603,1.43-1.139,3.054-1.569,4.795c-0.839,3.494-1.114,6.757-1.257,9.113
			c-0.134,2.359-0.148,3.825-0.23,3.826c-0.036,0-0.072-0.365-0.107-1.028c-0.038-0.663-0.053-1.625-0.031-2.813
			c0.049-2.372,0.267-5.673,1.119-9.221c0.436-1.768,0.996-3.418,1.636-4.865c0.683-1.426,1.369-2.684,2.111-3.627
			c0.337-0.495,0.702-0.897,1.02-1.249c0.307-0.363,0.597-0.651,0.855-0.865C60.552,192.922,60.837,192.691,60.86,192.718"/>
		<path clip-path="url(#SVGID_6_)" fill="#263238" d="M142.743,167.923c0.032-0.042,0.729,0.392,1.637,1.352
			c0.902,0.96,1.94,2.504,2.656,4.384c0.726,1.876,1.098,3.651,1.348,4.926c0.243,1.279,0.357,2.075,0.287,2.091
			c-0.07,0.018-0.312-0.753-0.646-2.008c-0.341-1.252-0.767-2.993-1.474-4.819c-0.698-1.832-1.643-3.338-2.45-4.333
			C143.292,168.522,142.684,167.992,142.743,167.923"/>
		<path clip-path="url(#SVGID_6_)" fill="#263238" d="M149.037,166.11c0.144-0.011,0.489,2.947,0.772,6.605
			c0.283,3.66,0.395,6.635,0.252,6.646c-0.143,0.011-0.489-2.946-0.772-6.606C149.007,169.097,148.894,166.121,149.037,166.11"/>
		<path clip-path="url(#SVGID_6_)" fill="#263238" d="M157.141,157.639c0.074,0.086-1.011,0.798-2.079,2.507
			c-1.076,1.7-1.933,4.394-2.363,7.452c-0.435,3.062-0.532,5.878-0.62,7.912c-0.076,2.036-0.133,3.298-0.208,3.298
			c-0.068,0-0.142-1.261-0.16-3.304c-0.006-2.041,0.032-4.875,0.472-7.982c0.436-3.099,1.374-5.868,2.571-7.576
			c0.592-0.853,1.189-1.455,1.64-1.813C156.858,157.785,157.12,157.609,157.141,157.639"/>
		<path clip-path="url(#SVGID_6_)" fill="#263238" d="M88.701,166.116c-0.075,0.031-0.45-0.771-1.166-2.001
			c-0.709-1.234-1.783-2.882-3.113-4.598c-1.335-1.713-2.667-3.161-3.688-4.152c-1.015-0.997-1.7-1.559-1.652-1.624
			c0.036-0.051,0.806,0.411,1.901,1.353c1.099,0.935,2.497,2.367,3.85,4.103c1.348,1.74,2.391,3.448,3.027,4.744
			C88.502,165.234,88.76,166.094,88.701,166.116"/>
		<path clip-path="url(#SVGID_6_)" fill="#263238" d="M92.581,165.825c-0.072,0.025-0.458-0.9-1.091-2.388
			c-0.632-1.488-1.527-3.532-2.604-5.747c-1.081-2.215-2.139-4.179-2.922-5.594c-0.781-1.415-1.272-2.29-1.208-2.331
			c0.057-0.036,0.658,0.77,1.525,2.144c0.867,1.373,1.985,3.323,3.073,5.553c1.085,2.23,1.932,4.311,2.479,5.841
			C92.381,164.832,92.645,165.803,92.581,165.825"/>
		<path clip-path="url(#SVGID_6_)" fill="#263238" d="M94.762,165.825c-0.06,0.01-0.33-1.088-0.521-2.904
			c-0.19-1.813-0.264-4.36,0.174-7.129c0.23-1.382,0.577-2.675,0.979-3.821c0.422-1.139,0.889-2.133,1.363-2.919
			c0.468-0.788,0.897-1.396,1.236-1.78c0.332-0.39,0.526-0.594,0.554-0.571c0.076,0.059-0.631,0.938-1.468,2.529
			c-0.844,1.586-1.712,3.934-2.15,6.645c-0.428,2.712-0.416,5.216-0.321,7.018C94.703,164.696,94.844,165.812,94.762,165.825"/>
		<path clip-path="url(#SVGID_6_)" fill="#263238" d="M364.975,179.802c-0.123,0.075-1.688-2.247-3.491-5.186
			c-1.807-2.94-3.17-5.383-3.048-5.459c0.123-0.075,1.685,2.247,3.49,5.187C363.732,177.283,365.096,179.727,364.975,179.802"/>
		<path clip-path="url(#SVGID_6_)" fill="#263238" d="M368.186,178.768c-0.139,0.043-1.194-2.944-2.361-6.671
			c-1.167-3.728-2.001-6.784-1.865-6.827c0.139-0.043,1.195,2.943,2.362,6.671C367.488,175.668,368.322,178.725,368.186,178.768"/>
		<path clip-path="url(#SVGID_6_)" fill="#263238" d="M372.156,163.289c0.073,0.01,0.001,0.956-0.124,2.479s-0.29,3.626-0.407,5.953
			c-0.115,2.327-0.161,4.436-0.189,5.964c-0.026,1.528-0.05,2.476-0.124,2.479c-0.068,0.002-0.177-0.941-0.243-2.475
			c-0.067-1.532-0.079-3.654,0.036-5.995c0.117-2.339,0.343-4.449,0.563-5.967C371.885,164.208,372.088,163.279,372.156,163.289"/>
		<path clip-path="url(#SVGID_6_)" fill="#C77AFF" d="M459.903,201.912c1.558,0.676,2.704,2.117,3.278,3.715
			c0.575,1.598,0.627,3.345,0.437,5.033c-0.37,3.265-2.227,6.562-4.225,9.171c-2.75-2.399-3.383-6.586-3.569-8.731
			C455.527,207.712,457.049,201.407,459.903,201.912"/>
		<path clip-path="url(#SVGID_6_)" fill="#C77AFF" d="M462.591,225.222c-0.44-1.846,0.328-3.871,1.745-5.133
			c1.416-1.262,3.396-1.796,5.287-1.652c0.875,0.067,1.821,0.322,2.321,1.043c0.469,0.673,0.417,1.613,0.037,2.34
			c-0.381,0.727-1.038,1.27-1.733,1.706C467.865,225.021,465.284,226.03,462.591,225.222"/>
		<path clip-path="url(#SVGID_6_)" fill="#263238" d="M459.064,235.235c-0.018-0.003,0.021-0.242,0.098-0.67
			c0.087-0.472,0.198-1.081,0.333-1.814c0.303-1.515,0.693-3.686,1.871-5.793c1.162-2.103,2.789-3.651,4.158-4.419
			c0.68-0.394,1.274-0.628,1.694-0.75c0.208-0.07,0.377-0.096,0.489-0.124c0.112-0.024,0.172-0.032,0.174-0.024
			c0.021,0.053-0.953,0.228-2.271,1.042c-1.322,0.791-2.895,2.323-4.037,4.39c-1.155,2.064-1.57,4.204-1.914,5.712
			c-0.167,0.76-0.302,1.376-0.408,1.799C459.148,235.007,459.08,235.239,459.064,235.235"/>
		<path clip-path="url(#SVGID_6_)" fill="#263238" d="M459.168,206.816c0.008,0,0.02,0.101,0.032,0.292
			c0.014,0.218,0.029,0.497,0.051,0.842c0.039,0.732,0.082,1.79,0.124,3.098c0.085,2.617,0.15,6.234,0.135,10.229
			c-0.019,3.997-0.115,7.613-0.224,10.229c-0.054,1.309-0.104,2.367-0.15,3.097c-0.024,0.345-0.042,0.624-0.058,0.841
			c-0.016,0.193-0.027,0.293-0.036,0.293s-0.013-0.102-0.013-0.295c0.004-0.217,0.008-0.497,0.014-0.842
			c0.019-0.762,0.044-1.813,0.074-3.099c0.065-2.616,0.137-6.231,0.154-10.225c0.016-3.992-0.022-7.607-0.064-10.224
			c-0.02-1.286-0.036-2.337-0.05-3.098c-0.002-0.346-0.004-0.626-0.005-0.844C459.154,206.918,459.158,206.816,459.168,206.816"/>
		<path clip-path="url(#SVGID_6_)" fill="#C77AFF" d="M457.833,227.21c-0.626-3.952-3.289-7.524-6.897-9.252
			c-0.918-0.44-2.119-0.728-2.874-0.044c-0.757,0.684-0.587,1.913-0.217,2.864c1.54,3.957,5.677,6.75,9.923,6.701"/>
		<path clip-path="url(#SVGID_6_)" fill="#263238" d="M451.382,221.055c0.007-0.015,0.214,0.077,0.583,0.255
			c0.186,0.087,0.412,0.196,0.659,0.351c0.247,0.155,0.546,0.305,0.84,0.527c0.3,0.212,0.635,0.437,0.961,0.722
			c0.342,0.267,0.674,0.588,1.021,0.929c0.678,0.698,1.36,1.532,1.943,2.496c0.574,0.969,0.989,1.963,1.279,2.892
			c0.131,0.47,0.257,0.915,0.322,1.344c0.094,0.423,0.128,0.826,0.165,1.191c0.051,0.365,0.034,0.699,0.046,0.99
			c0.015,0.292-0.006,0.543-0.021,0.747c-0.029,0.41-0.055,0.635-0.07,0.633c-0.054-0.002,0.04-0.909-0.121-2.352
			c-0.047-0.36-0.091-0.756-0.19-1.171c-0.073-0.42-0.205-0.857-0.339-1.317c-0.299-0.909-0.712-1.883-1.274-2.835
			c-0.573-0.946-1.238-1.769-1.896-2.464c-0.338-0.34-0.659-0.663-0.991-0.931c-0.314-0.289-0.641-0.518-0.931-0.736
			C452.186,221.478,451.357,221.101,451.382,221.055"/>
		<path clip-path="url(#SVGID_6_)" fill="#9D54DD" d="M92.877,186.445c-1.191,1.453-3.24,0.786-4.137-0.225
			c-0.897-1.009-1.202-2.398-1.476-3.72c-0.626-3.022-1.248-6.19-0.387-9.153c0.258-0.886,0.663-1.758,1.347-2.378
			c0.683-0.62,1.686-0.943,2.558-0.641c1.032,0.359,1.607,1.439,2.006,2.456c1.17,2.989,1.663,6.241,1.43,9.442
			C94.109,183.721,93.814,185.274,92.877,186.445"/>
		<g opacity="0.2" clip-path="url(#SVGID_6_)">
			<g>
				<defs>
					<rect id="SVGID_7_" x="86.455" y="170.213" width="7.82" height="17.072"/>
				</defs>
				<clipPath id="SVGID_8_">
					<use xlink:href="#SVGID_7_"  overflow="visible"/>
				</clipPath>
				<path clip-path="url(#SVGID_8_)" fill="#C77AFF" d="M92.877,186.445c-1.191,1.453-3.24,0.786-4.137-0.225
					c-0.897-1.009-1.202-2.398-1.476-3.72c-0.626-3.022-1.248-6.19-0.387-9.153c0.258-0.886,0.663-1.758,1.347-2.378
					c0.683-0.62,1.686-0.943,2.558-0.641c1.032,0.359,1.607,1.439,2.006,2.456c1.17,2.989,1.663,6.241,1.43,9.442
					C94.109,183.721,93.814,185.274,92.877,186.445"/>
			</g>
		</g>
		<path clip-path="url(#SVGID_6_)" fill="#C77AFF" d="M88.261,193.908c-1.688-1.04-3.748-1.315-5.722-1.141
			c-1.061,0.093-2.177,0.324-2.95,1.057c-0.773,0.732-1.013,2.107-0.246,2.845c0.457,0.44,1.131,0.553,1.764,0.593
			c1.528,0.099,3.242-0.041,4.392,0.971c0.656,0.577,1.053,1.483,1.866,1.804c0.794,0.314,1.75-0.096,2.237-0.798
			c0.488-0.702,0.572-1.619,0.433-2.462C90.035,196.776,89.961,194.956,88.261,193.908"/>
		<path clip-path="url(#SVGID_6_)" fill="#C77AFF" d="M95.659,188.871c-1.061-1.473-1.128-3.509-0.478-5.203
			c0.651-1.695,1.936-3.081,3.379-4.182c1.691-1.292,3.637-2.249,5.693-2.801c0.809-0.216,1.656-0.372,2.482-0.23
			c0.825,0.143,1.63,0.632,1.962,1.401c0.49,1.138-0.161,2.422-0.838,3.459c-1.193,1.827-2.529,3.56-3.993,5.177
			c-1.178,1.301-2.511,2.572-4.193,3.072c-1.682,0.501-3.374,0.298-4.155-0.901"/>
		<path clip-path="url(#SVGID_6_)" fill="#263238" d="M91.189,209.593c-0.021,0-0.034-0.251-0.044-0.705
			c-0.011-0.511-0.025-1.152-0.041-1.916c-0.027-0.808-0.072-1.769-0.215-2.823c-0.143-1.052-0.405-2.2-0.764-3.371
			c-0.375-1.166-0.86-2.236-1.455-3.108c-0.59-0.876-1.304-1.531-1.992-1.93c-0.685-0.405-1.312-0.597-1.748-0.694
			c-0.442-0.079-0.688-0.133-0.687-0.153c0.002-0.02,0.252-0.004,0.708,0.043c0.45,0.065,1.106,0.23,1.83,0.628
			c0.727,0.391,1.486,1.059,2.107,1.954c0.627,0.891,1.13,1.986,1.512,3.173c0.365,1.192,0.621,2.35,0.752,3.423
			c0.131,1.072,0.155,2.042,0.157,2.854c-0.002,0.813-0.029,1.469-0.052,1.922C91.232,209.343,91.209,209.593,91.189,209.593"/>
		<path clip-path="url(#SVGID_6_)" fill="#263238" d="M91.169,208.119c-0.01-0.001-0.007-0.113,0.006-0.325
			c0.019-0.243,0.043-0.549,0.073-0.925c0.063-0.802,0.151-1.964,0.217-3.402c0.147-2.874,0.202-6.853,0.056-11.243
			c-0.149-4.391-0.488-8.356-0.855-11.211c-0.084-0.715-0.174-1.359-0.262-1.924c-0.081-0.566-0.151-1.054-0.224-1.449
			c-0.06-0.373-0.108-0.676-0.147-0.917c-0.031-0.209-0.042-0.321-0.032-0.323c0.009-0.002,0.04,0.106,0.089,0.312
			c0.053,0.239,0.119,0.538,0.201,0.907c0.09,0.394,0.175,0.879,0.273,1.444c0.103,0.564,0.208,1.208,0.304,1.923
			c0.42,2.854,0.792,6.828,0.942,11.228c0.146,4.399,0.059,8.387-0.141,11.265c-0.092,1.439-0.211,2.601-0.31,3.402
			c-0.051,0.374-0.093,0.678-0.127,0.92C91.201,208.011,91.179,208.12,91.169,208.119"/>
		<path clip-path="url(#SVGID_6_)" fill="#263238" d="M91.732,200.457c-0.02-0.002,0.01-0.345,0.081-0.966
			c0.083-0.618,0.236-1.509,0.495-2.595c0.269-1.083,0.627-2.366,1.141-3.75c0.495-1.391,1.144-2.883,1.939-4.392
			c1.562-3.037,3.554-5.466,5.239-6.937c0.398-0.394,0.83-0.667,1.18-0.941c0.179-0.129,0.34-0.261,0.501-0.362
			c0.161-0.094,0.311-0.181,0.45-0.262c0.541-0.313,0.844-0.477,0.853-0.459c0.041,0.066-1.212,0.681-2.848,2.176
			c-1.63,1.492-3.571,3.907-5.12,6.92c-0.788,1.495-1.439,2.973-1.944,4.349c-0.525,1.37-0.901,2.638-1.194,3.708
			c-0.282,1.073-0.465,1.953-0.582,2.563C91.82,200.121,91.752,200.459,91.732,200.457"/>
	</g>
	<g>
		<defs>
			<rect id="SVGID_9_" width="500" height="500"/>
		</defs>
		<clipPath id="SVGID_10_">
			<use xlink:href="#SVGID_9_"  overflow="visible"/>
		</clipPath>
		<path clip-path="url(#SVGID_10_)" fill="#263238" d="M249.515,37.31c-0.003,0.037-0.587,0.026-1.645,0.002
			c-1.057-0.012-2.591-0.029-4.477,0.139c-1.882,0.162-4.123,0.556-6.457,1.476c-1.16,0.469-2.342,1.057-3.507,1.777
			c-1.155,0.734-2.293,1.589-3.406,2.538l-0.206,0.176l-0.176-0.222c-0.241-0.303-0.499-0.629-0.758-0.957
			c-0.999-1.141-2.145-2.097-3.347-2.884c-1.223-0.75-2.466-1.378-3.708-1.84c-2.477-0.95-4.857-1.369-6.852-1.593
			c-2.001-0.208-3.637-0.213-4.763-0.162c-1.127,0.048-1.751,0.103-1.757,0.06c-0.002-0.018,0.151-0.052,0.447-0.099
			c0.295-0.039,0.73-0.127,1.297-0.163c1.13-0.114,2.781-0.166,4.812-0.003c2.023,0.18,4.445,0.566,6.984,1.51
			c1.273,0.46,2.553,1.093,3.815,1.86c1.241,0.803,2.431,1.79,3.467,2.975c0.27,0.341,0.538,0.68,0.787,0.995l-0.382-0.046
			c1.132-0.963,2.295-1.831,3.48-2.574c1.195-0.729,2.41-1.32,3.602-1.787c2.4-0.916,4.691-1.277,6.6-1.395
			c1.913-0.122,3.455-0.049,4.514,0.023c0.53,0.036,0.939,0.086,1.216,0.117C249.372,37.267,249.516,37.292,249.515,37.31"/>
		<path clip-path="url(#SVGID_10_)" fill="#263238" d="M195.736,56.032c-0.003,0.095-1.437-0.046-3.734,0.156
			c-1.145,0.108-2.504,0.355-3.917,0.917c-1.414,0.56-2.848,1.463-4.19,2.628l-0.205,0.177l-0.178-0.224
			c-0.145-0.183-0.301-0.379-0.458-0.576c-1.2-1.393-2.77-2.293-4.265-2.866c-1.502-0.581-2.947-0.843-4.16-0.988
			c-2.439-0.273-3.969-0.035-3.976-0.134c-0.005-0.031,0.371-0.12,1.062-0.2c0.691-0.081,1.703-0.124,2.949-0.033
			c1.242,0.101,2.73,0.331,4.293,0.907c1.555,0.567,3.214,1.492,4.493,2.975c0.166,0.21,0.332,0.42,0.487,0.615l-0.383-0.046
			c1.38-1.193,2.881-2.12,4.36-2.674c1.478-0.558,2.888-0.772,4.059-0.836c1.174-0.066,2.118-0.01,2.765,0.046
			C195.385,55.938,195.738,55.999,195.736,56.032"/>
	</g>
	<g>
		<defs>
			<rect id="SVGID_11_" width="500" height="500"/>
		</defs>
		<clipPath id="SVGID_12_">
			<use xlink:href="#SVGID_11_"  overflow="visible"/>
		</clipPath>
		<path clip-path="url(#SVGID_12_)" fill="#211D37" d="M246.143,144.281c0.062,0.13-53.521,25.729-119.664,57.171
			C60.313,232.905,6.643,258.289,6.581,258.159c-0.062-0.129,53.509-25.724,119.675-57.177
			C192.399,169.54,246.081,144.151,246.143,144.281"/>
		<path clip-path="url(#SVGID_12_)" fill="#211D37" d="M240.243,149.338c0.125,0.162-2.921,2.086-8.582,5.223
			c-5.654,3.156-13.898,7.61-24.12,13.046c-20.443,10.874-48.793,25.683-80.16,41.932c-31.379,16.254-59.829,30.877-80.438,41.428
			c-10.301,5.255-18.642,9.511-24.424,12.461c-2.878,1.454-5.116,2.584-6.654,3.362c-0.752,0.373-1.33,0.658-1.736,0.86
			c-0.393,0.191-0.6,0.278-0.6,0.278s0.191-0.118,0.575-0.325c0.402-0.213,0.972-0.515,1.713-0.908
			c1.528-0.797,3.751-1.957,6.61-3.447c5.764-2.985,14.078-7.29,24.347-12.608c20.579-10.643,48.985-25.333,80.367-41.563
			c31.367-16.249,59.743-31.006,80.228-41.796c10.242-5.394,18.512-9.797,24.194-12.898c2.842-1.55,5.036-2.775,6.506-3.635
			c0.735-0.43,1.293-0.765,1.65-1.013C240.094,149.507,240.223,149.326,240.243,149.338"/>
		<path clip-path="url(#SVGID_12_)" fill="#211D37" d="M252.298,141.491c0.062-0.13,53.743,25.259,119.887,56.701
			c66.166,31.453,119.737,57.047,119.675,57.177c-0.062,0.13-53.731-25.253-119.898-56.707
			C305.817,167.22,252.235,141.621,252.298,141.491"/>
		<path clip-path="url(#SVGID_12_)" fill="#211D37" d="M258.197,146.547c0.02-0.012,0.147,0.169,0.523,0.397
			c0.358,0.248,0.915,0.583,1.65,1.013c1.471,0.86,3.665,2.085,6.506,3.635c5.682,3.101,13.952,7.504,24.194,12.899
			c20.484,10.789,48.86,25.546,80.228,41.795c31.382,16.23,59.789,30.92,80.367,41.563c10.269,5.317,18.584,9.624,24.347,12.608
			c2.86,1.491,5.082,2.652,6.61,3.448c0.742,0.393,1.311,0.695,1.713,0.908c0.384,0.207,0.576,0.325,0.576,0.325
			s-0.207-0.087-0.601-0.278c-0.407-0.202-0.984-0.489-1.736-0.862c-1.537-0.775-3.775-1.907-6.654-3.361
			c-5.782-2.948-14.122-7.204-24.423-12.46c-20.61-10.551-49.061-25.174-80.439-41.428c-31.367-16.249-59.717-31.058-80.16-41.932
			c-10.222-5.436-18.466-9.89-24.119-13.046C261.119,148.633,258.072,146.709,258.197,146.547"/>
		<rect x="250.518" y="274.407" clip-path="url(#SVGID_12_)" fill="#E0E0E0" width="18.366" height="83.133"/>
		<path clip-path="url(#SVGID_12_)" fill="#263238" d="M140.222,285.796c0.102,0.103-11.78,12.147-26.535,26.903
			c-14.76,14.76-26.804,26.64-26.906,26.537c-0.102-0.102,11.777-12.146,26.538-26.905
			C128.074,297.575,140.12,285.693,140.222,285.796"/>
		<path clip-path="url(#SVGID_12_)" fill="#263238" d="M140.869,270.111c0.101,0.104-6.957,7.172-15.761,15.787
			c-8.807,8.618-16.026,15.521-16.126,15.416c-0.101-0.102,6.955-7.17,15.762-15.788
			C133.548,276.911,140.768,270.008,140.869,270.111"/>
		<path clip-path="url(#SVGID_12_)" fill="#263238" d="M383.016,279.16c-0.104,0.103-9.642-9.304-21.303-21.005
			c-11.665-11.705-21.035-21.272-20.933-21.375c0.101-0.101,9.637,9.302,21.302,21.007
			C373.744,269.488,383.117,279.059,383.016,279.16"/>
		<path clip-path="url(#SVGID_12_)" fill="#263238" d="M398.518,303.738c-0.103,0.103-8.172-7.779-18.021-17.604
			c-9.854-9.826-17.758-17.872-17.657-17.974c0.103-0.102,8.17,7.779,18.024,17.605C390.713,295.59,398.619,303.637,398.518,303.738
			"/>
	</g>
	<g>
		<defs>
			<rect id="SVGID_13_" width="500" height="500"/>
		</defs>
		<clipPath id="SVGID_14_">
			<use xlink:href="#SVGID_13_"  overflow="visible"/>
		</clipPath>
	</g>
	<g>
		<defs>
			<rect id="SVGID_15_" x="53" y="0" width="394" height="394"/>
		</defs>
		<clipPath id="SVGID_16_">
			<use xlink:href="#SVGID_15_"  overflow="visible"/>
		</clipPath>
		<path clip-path="url(#SVGID_16_)" fill="#FFBE9D" d="M281.514,170.751c0,0,2.806,8.075,7.27,7.534
			c3.48-0.423,5.221-2.69,6.09-4.853c0.793-1.967,0.89-4.143,0.455-6.22c-1.635-7.841-5.331-25.1-5.331-25.1l-12.71,2.098
			L281.514,170.751"/>
		<polygon clip-path="url(#SVGID_16_)" fill="#C77AFF" points="244.214,315.851 245.219,339.538 258.01,339.25 257.051,315.517 		
			"/>
		<path clip-path="url(#SVGID_16_)" fill="#263238" d="M251.499,338.502c0.106-0.004-0.092-5.192-0.443-11.583
			c-0.352-6.393-0.723-11.57-0.829-11.564c-0.106,0.005,0.092,5.191,0.443,11.585S251.393,338.51,251.499,338.502"/>
		<polygon clip-path="url(#SVGID_16_)" fill="#E0E0E0" points="245.149,337.905 257.941,337.576 258.008,339.25 245.219,339.538 		
			"/>
		<path clip-path="url(#SVGID_16_)" fill="#263238" d="M257.703,331.666c0.018-0.016-0.1-0.2-0.352-0.502
			c-0.252-0.304-0.648-0.717-1.196-1.167c-0.547-0.444-1.256-0.923-2.127-1.288c-0.866-0.371-1.909-0.61-3.011-0.551
			c-2.209,0.107-4.018,1.276-4.881,2.396c-0.451,0.556-0.721,1.069-0.871,1.435c-0.148,0.366-0.199,0.58-0.178,0.588
			c0.072,0.035,0.342-0.816,1.254-1.843c0.884-1.028,2.603-2.087,4.699-2.189c2.089-0.109,3.86,0.867,4.947,1.67
			C257.098,331.036,257.651,331.714,257.703,331.666"/>
		<g opacity="0.3" clip-path="url(#SVGID_16_)">
			<g>
				<defs>
					<rect id="SVGID_17_" x="244.523" y="322.271" width="12.906" height="2.84"/>
				</defs>
				<clipPath id="SVGID_18_">
					<use xlink:href="#SVGID_17_"  overflow="visible"/>
				</clipPath>
				<polygon clip-path="url(#SVGID_18_)" points="257.324,322.271 257.43,324.883 244.606,325.112 244.523,323.146 				"/>
			</g>
		</g>
		<path clip-path="url(#SVGID_16_)" fill="#FFBE9D" d="M246.43,118.769l17.61-0.226l-1.967-14.993c0,0,1.204-0.258,1.284-6.78
			c0.081-6.523,0.381-17.607,0.381-17.607c-7.553-3.245-16.268-2.149-22.781,2.864l-0.967,0.744L246.43,118.769z"/>
		<path clip-path="url(#SVGID_16_)" fill="#FFBE9D" d="M242.035,90.793c-0.111-0.048-4.482-1.325-4.34,3.134
			c0.143,4.459,4.59,3.397,4.595,3.269C242.293,97.067,242.035,90.793,242.035,90.793"/>
		<path clip-path="url(#SVGID_16_)" fill="#FFBE9D" d="M262.98,89.862c0.111-0.049,4.086-1.121,3.943,3.339
			c-0.143,4.459-4.59,3.396-4.594,3.269C262.326,96.342,262.98,89.862,262.98,89.862"/>
		<path clip-path="url(#SVGID_16_)" fill="#211D37" d="M267.984,76.98c0.07-0.809-0.23-1.676-0.889-2.151s-1.679-0.444-2.214,0.166
			c0.308-1.089-0.584-2.346-1.712-2.417c-1.064-0.068-1.972,0.736-3,1.018c-1.004,0.275-2.08,0.036-3.045-0.352
			c-0.967-0.389-1.867-0.925-2.846-1.282c-2.039-0.744-4.369-0.651-6.342,0.255s-3.563,2.612-4.327,4.643
			c-1.426-0.446-3.047,0.278-3.927,1.487c-0.879,1.208-1.105,2.795-0.93,4.28c0.117,1.003,0.408,1.972,0.745,2.926
			c0,0.084-0.009,0.167-0.007,0.25c0.067,3.587,1.938,14.922,3.467,14.946c2.668,0.04,0.568-12.108,0.568-12.108
			c3.273-1.265,2.053-6.169,2.872-6.913c0.817-0.744,2.53-2.473,9.384,1.03c2.662,1.36,6.199,1.317,8.131,0.879
			c0.057-0.011,0.113-0.02,0.171-0.035c0.011-0.003,0.027-0.004,0.04-0.007c0.021-0.006,0.035-0.017,0.057-0.023
			c0.615-0.16,1.209-0.398,1.756-0.745c0.621-0.393,1.186-0.924,1.449-1.611c0.264-0.686,0.164-1.542-0.373-2.042
			C267.519,78.539,267.914,77.788,267.984,76.98"/>
		<path clip-path="url(#SVGID_16_)" fill="#211D37" d="M240.59,90.296c0.666,3.736,0.534,5.7,1.15,8.196
			c0.977,3.95,2.938,6.978,6.495,8.95c3.56,1.973,8.372,1.938,11.429-0.748c2.119-1.864,3.623-3.969,3.938-6.774
			c0.315-2.806,0.631-7.774,0.65-10.597c0.036-5.092,0.377-9.959,0.377-9.959l-14.546-2.632l-8.278,4.922L240.59,90.296z"/>
		<path clip-path="url(#SVGID_16_)" fill="#263238" d="M255.595,109.694c0.021,0.103-1.124,0.387-2.55,0.225
			c-1.428-0.153-2.483-0.679-2.438-0.775c0.042-0.112,1.118,0.226,2.482,0.371C254.454,109.67,255.578,109.576,255.595,109.694"/>
		<path clip-path="url(#SVGID_16_)" fill="#455A64" d="M259.377,76.077c0,0-0.234,0.104-0.69,0.126
			c-0.454,0.021-1.128-0.08-1.862-0.434c-0.746-0.334-1.512-0.941-2.356-1.581c-0.841-0.64-1.854-1.272-3.074-1.417
			c-1.202-0.16-2.389,0.079-3.312,0.58c-0.933,0.493-1.594,1.219-2.018,1.889c-0.849,1.376-0.816,2.443-0.865,2.422
			c0,0-0.01-0.252,0.071-0.699c0.087-0.443,0.272-1.085,0.694-1.784c0.422-0.692,1.09-1.444,2.046-1.96
			c0.946-0.522,2.167-0.774,3.405-0.607c1.256,0.147,2.307,0.809,3.143,1.458c0.846,0.651,1.59,1.255,2.314,1.597
			c0.716,0.359,1.367,0.475,1.811,0.475C259.131,76.138,259.373,76.059,259.377,76.077"/>
		<path clip-path="url(#SVGID_16_)" fill="#455A64" d="M245.404,77.914c-0.018,0.03-0.373-0.237-1.046-0.392
			c-0.659-0.159-1.676-0.147-2.571,0.403c-0.892,0.557-1.354,1.465-1.504,2.124c-0.162,0.672-0.08,1.109-0.115,1.11
			c-0.008,0.001-0.035-0.105-0.053-0.301s-0.014-0.485,0.055-0.833c0.127-0.688,0.59-1.649,1.531-2.238
			c0.944-0.58,2.013-0.569,2.686-0.377c0.342,0.094,0.604,0.218,0.771,0.321C245.325,77.835,245.409,77.906,245.404,77.914"/>
		<path clip-path="url(#SVGID_16_)" fill="#455A64" d="M244.972,93.816c-0.103,0.044-0.648-0.979-1.22-2.286
			c-0.57-1.308-0.949-2.404-0.846-2.449c0.103-0.044,0.648,0.979,1.22,2.286C244.696,92.674,245.076,93.771,244.972,93.816"/>
		<path clip-path="url(#SVGID_16_)" fill="#455A64" d="M248.784,96.378c-0.06,0.085-1.169-0.682-2.06-2.057
			c-0.902-1.37-1.158-2.694-1.055-2.714c0.115-0.035,0.532,1.184,1.395,2.491C247.916,95.413,248.863,96.286,248.784,96.378"/>
		<path clip-path="url(#SVGID_16_)" fill="#455A64" d="M252.545,97.202c-0.057,0.093-0.886-0.325-1.74-1.073
			c-0.857-0.746-1.385-1.511-1.299-1.58c0.087-0.075,0.734,0.55,1.566,1.273C251.9,96.547,252.607,97.104,252.545,97.202"/>
		<path clip-path="url(#SVGID_16_)" fill="#455A64" d="M259.187,91.158c0.105,0.006,0.095,1.05-0.394,2.222
			c-0.482,1.175-1.215,1.921-1.294,1.849c-0.094-0.073,0.461-0.892,0.917-2.005C258.881,92.115,259.068,91.144,259.187,91.158"/>
		<path clip-path="url(#SVGID_16_)" fill="#455A64" d="M261.439,87.635c0.104-0.008,0.211,1.26-0.258,2.733
			c-0.457,1.477-1.271,2.456-1.352,2.39c-0.1-0.066,0.529-1.104,0.963-2.512C261.241,88.843,261.318,87.632,261.439,87.635"/>
		<path clip-path="url(#SVGID_16_)" fill="#455A64" d="M263.168,78.621c0,0-0.176,0.202-0.582,0.451
			c-0.403,0.25-1.063,0.517-1.916,0.59c-0.85,0.082-1.885-0.053-2.938-0.451c-1.061-0.385-2.136-1-3.26-1.625
			c-1.123-0.624-2.23-1.166-3.311-1.427c-1.074-0.276-2.098-0.23-2.896,0.014c-0.803,0.237-1.373,0.64-1.699,0.973
			c-0.33,0.332-0.457,0.566-0.472,0.556c0,0,0.104-0.247,0.427-0.601c0.318-0.352,0.893-0.781,1.711-1.039
			c0.813-0.265,1.868-0.325,2.966-0.049c1.103,0.258,2.226,0.804,3.353,1.429c1.127,0.627,2.191,1.241,3.234,1.627
			c1.035,0.4,2.041,0.543,2.875,0.478C262.365,79.428,263.158,78.566,263.168,78.621"/>
		<path clip-path="url(#SVGID_16_)" fill="#455A64" d="M264.462,80.735c0.005,0.009-0.079,0.065-0.237,0.157
			c-0.155,0.095-0.393,0.213-0.693,0.342c-0.6,0.258-1.476,0.523-2.473,0.616c-0.998,0.089-1.906-0.013-2.543-0.158
			c-0.319-0.072-0.573-0.146-0.744-0.21c-0.172-0.062-0.265-0.101-0.261-0.112c0.008-0.027,0.393,0.096,1.026,0.209
			c0.635,0.115,1.527,0.196,2.508,0.108c0.978-0.091,1.842-0.332,2.444-0.561C264.092,80.9,264.447,80.71,264.462,80.735"/>
		<path clip-path="url(#SVGID_16_)" fill="#FFBE9D" d="M235.437,149.476l-12.71-2.098c0,0-6.113,22.327-7.407,28.639
			c-1.295,6.312-2.435,26.534-2.435,26.534c-0.362,2.233-1.771,10.505-1.008,11.587c0.871,1.234,2.326,1.308,2.907,1.308
			c0,0,0.29,1.67,1.526,1.67c0,0,0.508,1.455,1.744,1.6c1.236,0.146,6.104,0,6.104,0s0.073-1.816-1.453-1.963
			c0,0-0.145-1.163-2.616-1.234c0,0,0.654-1.601-1.381-2.035l-0.802-0.411l1.385-3.304l0.653,0.622
			c0.653,0.622,1.235,3.818,2.034,3.891c0.799,0.074,1.816-0.58,1.816-0.58l-1.804-11.734l-1.575-1.872l8.205-25.28L235.437,149.476
			z"/>
		<path clip-path="url(#SVGID_16_)" fill="#EB996E" d="M215.062,212.281c0.032-0.043,0.584,0.385,1.679,0.489
			c0.537,0.072,1.207,0.072,1.949,0.291c0.369,0.112,0.754,0.305,1.068,0.606c0.314,0.298,0.574,0.726,0.578,1.233
			c-0.006,0.249-0.074,0.504-0.25,0.712c-0.176,0.215-0.479,0.297-0.693,0.291c-0.429-0.013-0.791-0.043-1.162-0.063
			c-0.689-0.051-1.338-0.097-1.941-0.142c-1.105-0.091-1.787-0.177-1.785-0.232c0.004-0.057,0.689-0.074,1.799-0.055
			c0.605,0.016,1.255,0.034,1.945,0.051c0.368,0.014,0.746,0.026,1.135,0.04c0.18-0.005,0.301-0.048,0.395-0.155
			c0.092-0.109,0.146-0.279,0.146-0.451c-0.014-0.729-0.719-1.276-1.35-1.475c-0.662-0.218-1.328-0.254-1.879-0.365
			C215.557,212.872,215.006,212.316,215.062,212.281"/>
		<path clip-path="url(#SVGID_16_)" fill="#EB996E" d="M222.553,216.498c-0.009-0.023,0.164-0.035,0.242,0.187
			c0.035,0.102,0.037,0.238-0.033,0.383c-0.076,0.152-0.24,0.255-0.415,0.303c-0.361,0.086-0.719,0.046-1.138,0.062
			c-0.447-0.005-0.889-0.011-1.351-0.016c-1.919-0.044-3.47-0.172-3.468-0.285c0.002-0.114,1.559-0.171,3.477-0.125
			c0.462,0.015,0.904,0.031,1.351,0.046c0.41,0.011,0.808,0.069,1.064,0.034c0.272-0.029,0.362-0.221,0.356-0.371
			C222.637,216.575,222.54,216.527,222.553,216.498"/>
		<path clip-path="url(#SVGID_16_)" fill="#EB996E" d="M215.021,209.469c0.113,0.012,0.142,0.6,0.064,1.313
			c-0.076,0.714-0.23,1.282-0.344,1.27c-0.112-0.011-0.141-0.599-0.064-1.313C214.756,210.024,214.909,209.457,215.021,209.469"/>
		<path clip-path="url(#SVGID_16_)" fill="#EB996E" d="M218.889,205.927c0.094,0.054-0.315,0.854-1.178,1.513
			c-0.859,0.665-1.737,0.854-1.766,0.751c-0.039-0.112,0.719-0.458,1.516-1.077C218.263,206.504,218.79,205.861,218.889,205.927"/>
		<path clip-path="url(#SVGID_16_)" fill="#EB996E" d="M219.318,209.478c-0.082,0.076-0.424-0.177-0.651-0.628
			c-0.229-0.449-0.229-0.873-0.12-0.896c0.111-0.026,0.281,0.311,0.486,0.711C219.234,209.065,219.406,209.401,219.318,209.478"/>
		<path clip-path="url(#SVGID_16_)" fill="#211D37" d="M282.086,192.181h-22.523l-26.852,3.626c0,0,2.151,38.42,2.816,50.182
			c0.666,11.76,1.049,31.732,1.049,31.732l5.031,46.517l17.421-1.859v-8.895c10.347-2.479,14.653,3.514,14.653,3.514
			s6.449-30.622,7.336-36.393c0.889-5.769,0-27.521,0-27.521L282.086,192.181z M259.028,277.516v-47.007l0.534-15.168v3.44
			l1.041,38.471L259.028,277.516z"/>
		<path clip-path="url(#SVGID_16_)" fill="#455A64" d="M249.967,253.049c-0.033,0.131-2.314-0.793-5.259-0.63
			c-2.948,0.124-5.126,1.264-5.175,1.138c-0.022-0.043,0.485-0.383,1.4-0.749c0.911-0.368,2.245-0.724,3.754-0.798
			c1.509-0.072,2.87,0.152,3.813,0.432C249.447,252.717,249.985,253.006,249.967,253.049"/>
		<path clip-path="url(#SVGID_16_)" fill="#455A64" d="M278.434,257.251c-0.018,0.063-0.898-0.156-2.336-0.413
			c-1.436-0.259-3.438-0.517-5.662-0.559c-2.227-0.035-4.236,0.154-5.681,0.363c-1.445,0.205-2.333,0.396-2.349,0.331
			c-0.012-0.045,0.853-0.336,2.301-0.619c1.445-0.283,3.48-0.521,5.734-0.486c2.254,0.043,4.279,0.352,5.713,0.686
			C277.594,256.886,278.448,257.206,278.434,257.251"/>
		<path clip-path="url(#SVGID_16_)" fill="#455A64" d="M278.809,253.052c-0.016,0.063-0.863-0.118-2.242-0.326
			c-1.379-0.209-3.295-0.409-5.42-0.408c-2.125,0.008-4.042,0.218-5.42,0.432s-2.225,0.398-2.24,0.335
			c-0.013-0.046,0.812-0.332,2.189-0.621c1.377-0.288,3.316-0.547,5.469-0.555c2.154-0.003,4.095,0.248,5.473,0.533
			C277.997,252.723,278.822,253.004,278.809,253.052"/>
		<path clip-path="url(#SVGID_16_)" fill="#455A64" d="M273.682,312.795c-0.054,0.053-0.682-0.68-1.947-1.539
			c-1.248-0.856-3.211-1.778-5.525-1.973c-2.317-0.19-4.405,0.396-5.777,1.036c-1.389,0.637-2.13,1.257-2.174,1.197
			c-0.018-0.021,0.152-0.194,0.491-0.468c0.337-0.272,0.862-0.632,1.556-0.991c1.373-0.724,3.529-1.383,5.938-1.184
			c2.406,0.201,4.426,1.206,5.66,2.146c0.625,0.469,1.082,0.909,1.371,1.235C273.564,312.58,273.7,312.78,273.682,312.795"/>
		<path clip-path="url(#SVGID_16_)" fill="#455A64" d="M241.02,200.706c-0.006-0.005,0.058-0.016,0.186-0.036
			c0.156-0.021,0.346-0.048,0.577-0.08c0.549-0.069,1.293-0.163,2.222-0.282c1.977-0.234,4.732-0.56,8.018-0.949l0.148-0.017
			l0.009,0.146c0.166,2.657,0.356,5.719,0.562,8.982l0.004,0.082l-0.066,0.051c-0.275,0.217-0.572,0.449-0.871,0.683
			c-1.533,1.194-3.018,2.35-4.426,3.448l-0.076,0.06l-0.089-0.042c-2.021-0.954-3.907-1.845-5.607-2.647l-0.071-0.034l-0.005-0.075
			c-0.165-2.792-0.304-5.116-0.404-6.783c-0.038-0.78-0.071-1.403-0.094-1.867C241.016,200.919,241.009,200.698,241.02,200.706
			c0.006,0.006,0.015,0.066,0.028,0.183c0.015,0.138,0.03,0.303,0.051,0.505c0.041,0.469,0.097,1.102,0.167,1.89
			c0.132,1.646,0.314,3.94,0.535,6.693l-0.076-0.111c1.706,0.791,3.598,1.67,5.627,2.612l-0.164,0.017
			c1.404-1.099,2.887-2.258,4.417-3.457c0.3-0.234,0.597-0.465,0.874-0.682l-0.063,0.134c-0.188-3.263-0.367-6.325-0.521-8.983
			l0.157,0.128c-3.255,0.329-5.985,0.605-7.944,0.802c-0.945,0.089-1.703,0.16-2.261,0.212c-0.243,0.02-0.443,0.037-0.606,0.049
			C241.101,200.708,241.025,200.711,241.02,200.706"/>
		<path clip-path="url(#SVGID_16_)" fill="#455A64" d="M264.26,198.396c-0.005-0.006,0.059-0.011,0.188-0.014
			c0.158-0.001,0.349-0.003,0.581-0.006c0.552,0,1.3-0.001,2.232-0.001c1.983,0.014,4.749,0.034,8.046,0.057l0.148,0.001
			l-0.011,0.146c-0.166,2.648-0.357,5.701-0.562,8.949l-0.005,0.082l-0.071,0.043c-0.301,0.18-0.623,0.373-0.948,0.566
			c-1.665,0.991-3.276,1.95-4.804,2.859l-0.084,0.049l-0.082-0.051c-1.881-1.197-3.635-2.312-5.216-3.315l-0.065-0.043l0.005-0.075
			c0.182-2.781,0.335-5.096,0.443-6.758c0.058-0.774,0.104-1.394,0.14-1.856C264.229,198.604,264.25,198.384,264.26,198.396
			c0.006,0.004,0.008,0.066,0.006,0.183c-0.004,0.138-0.008,0.305-0.014,0.504c-0.017,0.471-0.041,1.102-0.07,1.89
			c-0.073,1.644-0.177,3.936-0.302,6.684l-0.062-0.117c1.588,0.994,3.35,2.098,5.24,3.281l-0.166-0.003
			c1.524-0.913,3.135-1.875,4.797-2.869c0.325-0.194,0.648-0.385,0.949-0.565l-0.078,0.123c0.219-3.249,0.424-6.301,0.604-8.948
			l0.139,0.147c-3.26-0.082-5.995-0.147-7.955-0.195c-0.947-0.031-1.704-0.054-2.263-0.072c-0.243-0.011-0.442-0.019-0.606-0.026
			C264.34,198.408,264.266,198.4,264.26,198.396"/>
		<path clip-path="url(#SVGID_16_)" fill="#455A64" d="M259.563,218.774c-0.114,0.002-0.325-4.93-0.474-11.016
			c-0.147-6.088-0.175-11.024-0.062-11.026c0.113-0.003,0.324,4.929,0.473,11.017C259.646,213.835,259.676,218.772,259.563,218.774"
			/>
		<path clip-path="url(#SVGID_16_)" fill="#455A64" d="M258.958,215.765c0.022,0.043-0.653,0.479-1.833,1.025
			c-1.179,0.545-2.877,1.167-4.82,1.582c-1.946,0.41-3.75,0.529-5.049,0.51c-1.3-0.019-2.096-0.143-2.091-0.192
			c0.003-0.063,0.804-0.043,2.087-0.099c1.283-0.053,3.052-0.217,4.967-0.62c1.914-0.41,3.598-0.976,4.791-1.448
			C258.206,216.051,258.928,215.708,258.958,215.765"/>
		<path clip-path="url(#SVGID_16_)" fill="#455A64" d="M275.281,213.021c0.001,0.059-0.883,0.139-2.312,0.258
			c-1.427,0.122-3.398,0.296-5.569,0.537c-2.172,0.243-4.133,0.508-5.551,0.705c-1.421,0.195-2.3,0.314-2.312,0.255
			c-0.01-0.054,0.853-0.272,2.265-0.543c1.41-0.27,3.373-0.581,5.552-0.825c2.181-0.242,4.163-0.371,5.599-0.418
			S275.278,212.967,275.281,213.021"/>
		<path clip-path="url(#SVGID_16_)" fill="#455A64" d="M273.682,316.468c-0.005,0.008-0.096-0.054-0.269-0.181
			c-0.187-0.138-0.437-0.326-0.757-0.562c-0.166-0.128-0.351-0.265-0.553-0.419c-0.221-0.131-0.459-0.273-0.719-0.428
			c-0.26-0.155-0.541-0.321-0.838-0.497c-0.316-0.146-0.654-0.299-1.01-0.46c-1.431-0.62-3.305-1.165-5.529-1.205
			c-2.207-0.054-4.785,0.383-7.285,1.587l-0.248,0.12l0.027-0.27c1.064-9.995,2.318-23.563,3.034-38.517
			c0.775-15.69,0.801-29.918,0.567-40.207c-0.113-5.145-0.27-9.307-0.389-12.183c-0.057-1.419-0.102-2.53-0.135-3.312
			c-0.009-0.362-0.018-0.646-0.023-0.862c-0.004-0.194-0.002-0.294,0.006-0.294s0.02,0.098,0.037,0.293
			c0.016,0.213,0.037,0.498,0.064,0.857c0.049,0.781,0.119,1.893,0.211,3.31c0.168,2.874,0.367,7.036,0.518,12.183
			c0.309,10.293,0.331,24.532-0.447,40.233c-0.717,14.964-2.012,28.54-3.145,38.532l-0.221-0.149
			c2.586-1.224,5.186-1.633,7.434-1.56c2.26,0.062,4.154,0.641,5.591,1.288c0.356,0.171,0.694,0.331,1.011,0.483
			c0.297,0.185,0.576,0.359,0.836,0.521c0.258,0.161,0.494,0.31,0.713,0.448c0.199,0.158,0.381,0.305,0.545,0.437
			c0.309,0.251,0.552,0.449,0.732,0.598C273.604,316.391,273.686,316.463,273.682,316.468"/>
		<path clip-path="url(#SVGID_16_)" fill="#455A64" d="M279.262,248.606c0.014,0.025-0.188,0.166-0.568,0.398
			c-0.376,0.239-0.951,0.538-1.682,0.859c-1.457,0.646-3.602,1.295-6.041,1.482c-2.443,0.179-4.66-0.144-6.197-0.568
			c-0.769-0.209-1.382-0.417-1.789-0.599c-0.411-0.174-0.631-0.281-0.621-0.31c0.026-0.066,0.944,0.285,2.479,0.627
			c1.533,0.347,3.705,0.615,6.098,0.44c2.391-0.184,4.499-0.771,5.963-1.343C278.37,249.027,279.225,248.542,279.262,248.606"/>
		<path clip-path="url(#SVGID_16_)" fill="#455A64" d="M255.229,254.209c0.002,0.059-0.762,0.125-1.995,0.211
			c-1.378,0.101-3.011,0.216-4.813,0.347c-1.803,0.153-3.434,0.294-4.811,0.412c-1.23,0.108-1.995,0.163-2.002,0.104
			c-0.008-0.055,0.742-0.21,1.968-0.392c1.227-0.184,2.927-0.385,4.813-0.534c1.885-0.148,3.595-0.216,4.835-0.229
			C254.46,254.118,255.229,254.155,255.229,254.209"/>
		<path clip-path="url(#SVGID_16_)" fill="#C77AFF" d="M272.439,320.653l0.455-4.519c0,0-4.936-5.216-14.043-2.665l-2.55,12.487
			c0,0-2.364,3.091-3.865,6.215c-0.45,0.471-0.818,0.994-1.022,1.622c-0.465,1.44-0.495,4.895,0.482,6.051
			c0.977,1.155,0.921,1.543,2.231,2.299c1.86,1.076,6.022,0.731,8.052,0.027c1.646-0.572,2.682-2.168,3.539-3.686
			c2.303-4.08,4.239-8.366,5.778-12.791c0.237-0.685,0.467-1.387,0.643-2.098h0.001v-0.002
			C272.382,322.622,272.519,321.634,272.439,320.653"/>
		<g opacity="0.5" clip-path="url(#SVGID_16_)">
			<g>
				<defs>
					<rect id="SVGID_19_" x="251.102" y="314.646" width="21.361" height="28.185"/>
				</defs>
				<clipPath id="SVGID_20_">
					<use xlink:href="#SVGID_19_"  overflow="visible"/>
				</clipPath>
				<path clip-path="url(#SVGID_20_)" d="M264.92,314.742c-3.57-0.299-6.528,4.602-7.171,8.62c-0.25,1.57-0.338,2.949-0.896,4.436
					c-0.962,2.567-4.593,3.388-5.438,5.998c-0.465,1.438-0.495,4.893,0.482,6.049c0.977,1.155,0.921,1.543,2.231,2.299
					c1.86,1.076,6.022,0.731,8.052,0.027c1.646-0.572,2.684-2.168,3.539-3.686c2.303-4.08,4.239-8.366,5.778-12.791
					c0.643-1.849,1.224-3.818,0.847-5.741c-0.439-2.231-2.211-4.103-4.361-4.845c-2.15-0.743-3.941-0.607-5.92,0.514"/>
			</g>
		</g>
		<path clip-path="url(#SVGID_16_)" fill="#FAFAFA" d="M251.586,339.643c-0.029,0.016-0.13-0.143-0.297-0.463
			c-0.09-0.157-0.176-0.362-0.26-0.611c-0.1-0.246-0.18-0.54-0.248-0.877c-0.283-1.325-0.201-3.486,1.266-5.563l0.004-0.006
			l0.016-0.018c0.646-0.671,1.432-1.292,2.231-1.93c0.798-0.639,1.598-1.339,2.11-2.27c0.52-0.937,0.765-2.064,0.916-3.26
			c0.158-1.198,0.23-2.481,0.576-3.786c0.773-2.971,2.984-5.372,5.547-6.203c2.551-0.863,5.166-0.251,6.729,1.025
			c1.584,1.283,2.172,2.918,2.314,3.992c0.146,1.106-0.07,1.704-0.104,1.693c-0.076-0.007,0.023-0.609-0.209-1.635
			c-0.229-0.999-0.87-2.482-2.355-3.591c-1.452-1.097-3.833-1.59-6.13-0.77c-2.286,0.779-4.29,2.976-5,5.698
			c-0.317,1.195-0.397,2.451-0.567,3.683c-0.165,1.227-0.436,2.469-1.045,3.53c-0.614,1.071-1.523,1.821-2.342,2.45
			c-0.83,0.63-1.592,1.202-2.224,1.816l0.021-0.021c-0.67,0.874-1.09,1.881-1.283,2.764c-0.205,0.892-0.196,1.696-0.12,2.341
			C251.313,338.93,251.67,339.608,251.586,339.643"/>
		<path clip-path="url(#SVGID_16_)" fill="#263238" d="M268.051,332.097c0.01,0.014-0.156,0.155-0.471,0.403
			c-0.31,0.248-0.773,0.588-1.359,0.991c-1.172,0.807-2.856,1.833-4.816,2.771c-1.962,0.937-3.817,1.604-5.182,2.008
			c-0.682,0.205-1.238,0.352-1.625,0.438c-0.389,0.087-0.605,0.13-0.609,0.111c-0.004-0.016,0.204-0.088,0.584-0.205
			c0.38-0.113,0.926-0.287,1.599-0.511c1.344-0.444,3.177-1.133,5.128-2.063c1.946-0.933,3.634-1.927,4.825-2.695
			c0.596-0.382,1.073-0.7,1.401-0.923C267.854,332.2,268.04,332.083,268.051,332.097"/>
		<path clip-path="url(#SVGID_16_)" fill="#263238" d="M264.129,331.674c0.014,0.029-0.375,0.244-1.023,0.541
			c-0.65,0.298-1.564,0.671-2.6,1.02c-1.035,0.348-1.989,0.602-2.688,0.757c-0.697,0.155-1.136,0.219-1.143,0.187
			c-0.009-0.034,0.416-0.157,1.1-0.354c0.684-0.196,1.625-0.477,2.652-0.821c1.027-0.347,1.945-0.691,2.609-0.947
			C263.702,331.8,264.113,331.642,264.129,331.674"/>
		<path clip-path="url(#SVGID_16_)" fill="#263238" d="M261.622,338.795c-0.029,0.009-0.206-0.468-0.411-1.263
			c-0.207-0.791-0.428-1.906-0.555-3.151c-0.125-1.247-0.129-2.384-0.083-3.201c0.044-0.819,0.122-1.321,0.151-1.317
			c0.038,0.003,0.021,0.508,0.022,1.321c0,0.813,0.032,1.938,0.154,3.173c0.124,1.234,0.317,2.341,0.479,3.14
			C261.541,338.293,261.658,338.784,261.622,338.795"/>
		<path clip-path="url(#SVGID_16_)" fill="#263238" d="M268.519,321.232c0.022,0.064-1.269,0.572-2.882,1.135
			c-1.614,0.562-2.941,0.965-2.963,0.901c-0.023-0.064,1.268-0.572,2.881-1.134C267.17,321.572,268.496,321.169,268.519,321.232"/>
		<polygon clip-path="url(#SVGID_16_)" fill="#C77AFF" points="233.74,177.079 234.402,151.33 229.98,132.962 231.304,120.387 
			245.443,113.253 263.146,111.723 278.262,115.652 278.305,165.232 283.042,194.31 231.892,196.903 		"/>
		<path clip-path="url(#SVGID_16_)" fill="#263238" d="M271.912,172.716c0.021,0.018-0.25,0.348-0.764,0.933
			c-0.251,0.298-0.57,0.649-0.979,1.022c-0.405,0.376-0.841,0.833-1.395,1.257c-0.535,0.445-1.128,0.926-1.813,1.375
			c-0.659,0.49-1.423,0.918-2.216,1.389c-1.617,0.878-3.479,1.704-5.516,2.325c-2.045,0.597-4.053,0.927-5.889,1.079
			c-0.921,0.041-1.796,0.102-2.615,0.053c-0.82-0.001-1.578-0.078-2.27-0.157c-0.695-0.05-1.311-0.193-1.855-0.287
			c-0.545-0.087-1.006-0.207-1.379-0.317c-0.75-0.208-1.158-0.335-1.15-0.362c0.021-0.09,1.67,0.424,4.413,0.681
			c0.687,0.06,1.438,0.12,2.248,0.106c0.809,0.033,1.671-0.04,2.579-0.09c1.809-0.171,3.785-0.507,5.802-1.095
			c2.008-0.613,3.845-1.416,5.452-2.264c0.787-0.456,1.547-0.867,2.206-1.338c0.685-0.433,1.28-0.894,1.821-1.32
			C270.748,173.986,271.845,172.652,271.912,172.716"/>
		<path clip-path="url(#SVGID_16_)" fill="#C77AFF" d="M233.145,120.193c0,0-5.016-0.971-7.443,7.93s-6.197,23.833-6.197,23.833
			l16.811-0.626l-2.037-30.49"/>
		<path clip-path="url(#SVGID_16_)" fill="#C77AFF" d="M278.262,115.652c0,0,9.408,0.419,11.23,16.396
			c0.055,0.48,3.229,17.355,3.229,17.355h-16.609L278.262,115.652z"/>
		<path clip-path="url(#SVGID_16_)" fill="#263238" d="M232.71,131.575c0.028,0,0.071,0.316,0.124,0.891
			c0.059,0.662,0.132,1.474,0.217,2.432c0.18,2.151,0.414,4.942,0.672,8.029c0.249,3.138,0.449,5.982,0.553,8.043
			c0.052,1.031,0.079,1.866,0.087,2.444c0.003,0.578-0.009,0.898-0.037,0.898c-0.027,0.001-0.071-0.316-0.123-0.89
			c-0.06-0.663-0.131-1.475-0.217-2.433c-0.181-2.15-0.414-4.942-0.671-8.031c-0.25-3.138-0.45-5.98-0.555-8.042
			c-0.051-1.031-0.078-1.866-0.085-2.443C232.671,131.896,232.682,131.576,232.71,131.575"/>
		<path clip-path="url(#SVGID_16_)" fill="#263238" d="M279.664,130.832c0.027,0.001,0.038,0.308,0.031,0.86
			c-0.007,0.553-0.035,1.352-0.08,2.339c-0.095,1.974-0.282,4.697-0.51,7.7c-0.213,2.953-0.403,5.623-0.551,7.69
			c-0.061,0.914-0.114,1.692-0.156,2.333c-0.041,0.551-0.076,0.855-0.104,0.854c-0.028,0-0.048-0.307-0.056-0.859
			c-0.01-0.553-0.002-1.353,0.025-2.341c0.052-1.975,0.205-4.703,0.432-7.707c0.241-2.952,0.46-5.621,0.629-7.688
			c0.084-0.913,0.153-1.689,0.212-2.328C279.591,131.133,279.637,130.83,279.664,130.832"/>
		<path clip-path="url(#SVGID_16_)" fill="#263238" d="M278.461,115.918c0.1-0.042,0.631,1.057,0.895,2.527
			c0.271,1.469,0.16,2.685,0.051,2.68c-0.117,0-0.191-1.181-0.455-2.607C278.697,117.092,278.349,115.959,278.461,115.918"/>
		<path clip-path="url(#SVGID_16_)" fill="#263238" d="M261.647,172.476c0.021,0.048-0.675,0.429-1.849,0.946
			c-1.171,0.517-2.828,1.156-4.701,1.722c-1.873,0.564-3.607,0.948-4.869,1.166c-1.264,0.218-2.053,0.286-2.063,0.234
			c-0.01-0.06,0.764-0.229,2.005-0.518c1.241-0.29,2.948-0.714,4.81-1.274c1.858-0.562,3.517-1.152,4.711-1.598
			C260.885,172.708,261.623,172.421,261.647,172.476"/>
		<path clip-path="url(#SVGID_16_)" fill="#FAFAFA" d="M233.811,145.8c0.021,0.111-3.02,0.801-6.791,1.542
			c-3.773,0.74-6.851,1.249-6.871,1.138c-0.022-0.111,3.019-0.801,6.792-1.541C230.713,146.198,233.788,145.689,233.811,145.8"/>
		<path clip-path="url(#SVGID_16_)" fill="#FAFAFA" d="M232.488,137.973c-0.018,0.112-1.889-0.082-4.18-0.434
			c-2.292-0.352-4.135-0.728-4.117-0.84s1.888,0.082,4.18,0.435C230.661,137.485,232.505,137.861,232.488,137.973"/>
		<path clip-path="url(#SVGID_16_)" fill="#FAFAFA" d="M281.522,126.306c-0.001,0.113-11.936,0.055-26.651-0.129
			c-14.721-0.185-26.649-0.426-26.648-0.54c0.002-0.113,11.933-0.055,26.654,0.129C269.592,125.951,281.523,126.192,281.522,126.306
			"/>
		<path clip-path="url(#SVGID_16_)" fill="#FAFAFA" d="M276.827,115.233c0.002,0.014-0.136,0.045-0.398,0.091
			c-0.31,0.05-0.69,0.11-1.153,0.184c-1.002,0.152-2.455,0.351-4.254,0.58c-3.596,0.46-8.571,1.025-14.08,1.529
			c-5.51,0.503-10.507,0.849-14.126,1.047c-1.81,0.1-3.274,0.168-4.288,0.2c-0.467,0.012-0.854,0.021-1.167,0.028
			c-0.267,0.001-0.407-0.004-0.409-0.019c0-0.013,0.141-0.035,0.404-0.064c0.313-0.029,0.695-0.063,1.163-0.105
			c1.071-0.083,2.519-0.195,4.278-0.33c3.611-0.273,8.602-0.665,14.107-1.167c5.504-0.503,10.482-1.022,14.084-1.408
			c1.756-0.186,3.198-0.337,4.268-0.451c0.467-0.042,0.851-0.078,1.162-0.107C276.684,115.223,276.826,115.219,276.827,115.233"/>
		<path clip-path="url(#SVGID_16_)" fill="#FAFAFA" d="M279.748,138.506c0.007,0.114-10.219,0.82-22.836,1.578
			c-12.619,0.758-22.854,1.281-22.859,1.168c-0.008-0.113,10.215-0.82,22.836-1.578C269.506,138.916,279.74,138.393,279.748,138.506
			"/>
		<path clip-path="url(#SVGID_16_)" fill="#FAFAFA" d="M277.531,146.743c0.02,0.111-9.402,1.938-21.041,4.081
			c-11.645,2.143-21.097,3.789-21.117,3.677c-0.021-0.111,9.398-1.938,21.043-4.081
			C268.056,148.278,277.511,146.631,277.531,146.743"/>
		<path clip-path="url(#SVGID_16_)" fill="#FAFAFA" d="M276.598,161.73c-0.001,0.114-9.529,0.082-21.275-0.072
			c-11.754-0.153-21.275-0.369-21.273-0.483c0.001-0.113,9.526-0.081,21.279,0.072C267.075,161.4,276.599,161.617,276.598,161.73"/>
		<path clip-path="url(#SVGID_16_)" fill="#FAFAFA" d="M292.048,142.158c-0.001,0.113-2.86,0.163-6.385,0.111
			c-3.523-0.052-6.378-0.186-6.377-0.299c0.001-0.113,2.859-0.162,6.384-0.11C289.193,141.911,292.049,142.044,292.048,142.158"/>
		<path clip-path="url(#SVGID_16_)" fill="#FAFAFA" d="M288.904,133.495c0.021,0.11-2.112,0.626-4.765,1.15
			c-2.653,0.524-4.822,0.859-4.845,0.748c-0.021-0.111,2.11-0.626,4.766-1.151C286.713,133.718,288.883,133.384,288.904,133.495"/>
		<path clip-path="url(#SVGID_16_)" fill="#FAFAFA" d="M257.121,173.994c0.005,0.113-5.105,0.451-11.412,0.755
			c-6.309,0.303-11.427,0.458-11.432,0.345c-0.006-0.114,5.103-0.452,11.412-0.756C251.996,174.035,257.114,173.881,257.121,173.994
			"/>
		<path clip-path="url(#SVGID_16_)" fill="#FAFAFA" d="M278.598,169.732c0.018,0.112-3.525,0.774-7.91,1.479
			c-4.387,0.706-7.959,1.187-7.976,1.075c-0.019-0.112,3.522-0.774,7.911-1.479C275.008,170.101,278.58,169.62,278.598,169.732"/>
		<path clip-path="url(#SVGID_16_)" fill="#FAFAFA" d="M254.201,182.138c0.037,0.107-4.709,1.911-10.598,4.029
			c-5.893,2.12-10.699,3.751-10.738,3.644c-0.037-0.106,4.706-1.911,10.6-4.029C249.354,183.663,254.162,182.032,254.201,182.138"/>
		<path clip-path="url(#SVGID_16_)" fill="#FAFAFA" d="M278.141,175.518c0.02,0.112-2.671,0.704-6.009,1.321
			c-3.34,0.619-6.063,1.03-6.085,0.918c-0.02-0.111,2.67-0.703,6.01-1.321C275.396,175.817,278.12,175.407,278.141,175.518"/>
		<path clip-path="url(#SVGID_16_)" fill="#FAFAFA" d="M281.32,191.163c0.008,0.113-10.871,0.946-24.293,1.861
			c-13.428,0.916-24.315,1.566-24.322,1.453c-0.008-0.113,10.867-0.947,24.295-1.862C270.422,191.7,281.312,191.049,281.32,191.163"
			/>
		<g opacity="0.3" clip-path="url(#SVGID_16_)">
			<g>
				<defs>
					<rect id="SVGID_21_" x="245.564" y="171.567" width="24.367" height="10.422"/>
				</defs>
				<clipPath id="SVGID_22_">
					<use xlink:href="#SVGID_21_"  overflow="visible"/>
				</clipPath>
				<path clip-path="url(#SVGID_22_)" d="M245.984,181.574c-0.795-0.589-0.368-1.972,0.506-2.433c0.875-0.46,1.93-0.31,2.914-0.216
					c6.087,0.58,12.387-1.647,16.758-5.923c0.535-0.523,1.071-1.095,1.779-1.34c0.708-0.245,1.646-0.021,1.914,0.679
					c0.211,0.552-0.056,1.165-0.353,1.675c-2.181,3.747-6.204,6.154-10.411,7.198c-4.207,1.044-8.619,0.865-12.932,0.434"/>
			</g>
		</g>
		<g opacity="0.3" clip-path="url(#SVGID_16_)">
			<g>
				<defs>
					<rect id="SVGID_23_" x="228.971" y="133.2" width="5.432" height="18.45"/>
				</defs>
				<clipPath id="SVGID_24_">
					<use xlink:href="#SVGID_23_"  overflow="visible"/>
				</clipPath>
				<path clip-path="url(#SVGID_24_)" d="M232.764,133.2c-0.895,6.218-2.161,12.382-3.793,18.45l5.432-0.32L232.764,133.2z"/>
			</g>
		</g>
	</g>
</g>
</svg>
