<?xml version="1.0" encoding="utf-8"?>
<!-- Generator: Adobe Illustrator 16.0.0, SVG Export Plug-In . SVG Version: 6.00 Build 0)  -->
<!DOCTYPE svg PUBLIC "-//W3C//DTD SVG 1.1//EN" "http://www.w3.org/Graphics/SVG/1.1/DTD/svg11.dtd">
<svg version="1.1" xmlns="http://www.w3.org/2000/svg" xmlns:xlink="http://www.w3.org/1999/xlink" x="0px" y="0px" width="750px"
	 height="500px" viewBox="0 0 750 500" enable-background="new 0 0 750 500" xml:space="preserve">
<g id="BACKGROUND">
</g>
<g id="OBJECTS">
	<path id="XMLID_12_" fill="#CCE0ED" d="M69.128,379.772l591.633,3.25C660.761,383.022,376.128,436.117,69.128,379.772z"/>
	<g id="XMLID_63_">
		<rect id="XMLID_29_" x="551.059" y="102.522" fill="#666666" width="6.947" height="247.504"/>
		<polygon id="XMLID_26_" fill="#E8AD3A" points="600.032,124.852 511.718,124.852 540.031,41.227 572.025,41.227 		"/>
		<path id="XMLID_32_" fill="#D39933" d="M545.191,51.22l-14.716,66.418C530.475,117.639,527.799,68.532,545.191,51.22z"/>
		<path id="XMLID_41_" fill="#D39933" d="M566.056,51.707l18.569,65.445C584.625,117.152,584.428,67.974,566.056,51.707z"/>
		<path id="XMLID_45_" fill="#D39933" d="M554.476,45.044l1.554,68.011C556.03,113.056,568.179,65.401,554.476,45.044z"/>
	</g>
	<g id="XMLID_64_">
		<polygon id="XMLID_3_" fill="#7F4C28" points="581.074,349.318 576.9,384.617 566.987,384.617 565.129,349.015 		"/>
		<polygon id="XMLID_4_" fill="#7F4C28" points="149.881,349.318 154.055,384.617 163.968,384.617 165.826,349.015 		"/>
		<polygon id="XMLID_5_" fill="#325B6B" points="579.137,242.039 528.448,240.634 530.444,300.524 579.137,315.874 		"/>
		<polygon id="XMLID_6_" fill="#325B6B" points="148.101,241.469 198.791,240.064 196.794,299.955 148.101,315.303 		"/>
		<path id="XMLID_7_" fill="#48768C" d="M542.31,301.013l-16.402-72.641c-6.133-27.159-30.262-46.447-58.104-46.447h-208.43
			c-28.148,0-52.455,19.704-58.279,47.243l-15.193,71.845H542.31z"/>
		<path id="XMLID_8_" fill="#608EA0" d="M536.657,298.367H376.784h-25.475H191.436c-16.333,0-29.574,11.967-29.574,26.729v35.726
			h189.447h25.475H566.23v-35.726C566.23,310.333,552.99,298.367,536.657,298.367z"/>
		<path id="XMLID_9_" fill="#48768C" d="M175.888,361.391V259.683c0-10.059-8.116-18.214-18.128-18.214h-7.41
			c-10.012,0-18.128,8.155-18.128,18.214v101.708H175.888z"/>
		<path id="XMLID_10_" fill="#48768C" d="M551.35,361.391V260.167c0-10.011,8.116-18.127,18.128-18.127h7.409
			c10.012,0,18.128,8.116,18.128,18.127v101.225H551.35z"/>
		<ellipse id="XMLID_54_" fill="#325B6B" cx="154.055" cy="267.28" rx="7.078" ry="7.352"/>
		<path id="XMLID_53_" fill="#325B6B" d="M155.211,283v59.1C155.211,342.099,143.219,312.549,155.211,283z"/>
		<rect id="XMLID_11_" x="175.888" y="323.772" fill="#48768C" width="375.462" height="37.619"/>
		<path id="XMLID_48_" fill="#325B6B" d="M291.135,193.257v74.757C291.135,268.014,275.965,230.636,291.135,193.257z"/>
		<ellipse id="XMLID_27_" fill="#325B6B" cx="574.257" cy="264.501" rx="7.078" ry="7.353"/>
		<path id="XMLID_13_" fill="#325B6B" d="M432.059,195.626v74.757C432.059,270.383,447.229,233.005,432.059,195.626z"/>
		<path id="XMLID_51_" fill="#325B6B" d="M573.101,280.221v59.1C573.101,339.321,585.093,309.771,573.101,280.221z"/>
		<path id="XMLID_58_" fill="#325B6B" d="M182.233,339.321h365.732C547.965,339.321,422.904,355.362,182.233,339.321z"/>
	</g>
	<g id="XMLID_74_">
		<path id="XMLID_28_" fill="#DE8B2E" d="M513.997,242.028c0,0-14.484,37.788-13.855,44.085c0.63,6.298,5.039,13.965,7.978,13.965
			l49.546,0.372c0,0,5.715-1.11,8.63-10.558s12.362-45.346,12.362-46.395c0-1.05,1.259-7.098-4.409-11.736
			c-5.668-4.639-43.036-3.491-50.174-1.28C518.844,232.102,516.805,234.521,513.997,242.028z"/>
		<path id="XMLID_49_" fill="#BC7228" d="M568.557,234.678l-18.152,61.062C550.405,295.74,576.03,262.079,568.557,234.678z"/>
		<path id="XMLID_50_" fill="#BC7228" d="M535.9,253.173l19.975-17.646C555.875,235.527,537.757,242.493,535.9,253.173z"/>
		<path id="XMLID_52_" fill="#BC7228" d="M523.207,236.92l4.489,15.324C527.696,252.245,519.647,244.66,523.207,236.92z"/>
		<path id="XMLID_55_" fill="#BC7228" d="M530.482,265.208l8.967,22.482C539.449,287.691,540.698,270.434,530.482,265.208z"/>
		<path id="XMLID_57_" fill="#BC7228" d="M504.013,283.511l19.193-17.336C523.207,266.175,506.335,271.37,504.013,283.511z"/>
	</g>
	<g id="XMLID_2_">
		<g id="XMLID_61_">
			<path id="XMLID_56_" fill="#A38260" d="M674.518,289.565h-41.369h-0.801h-41.369c-3.509,0-6.354,1.877-6.354,4.192
				c0,2.316,2.845,4.193,6.354,4.193h39.312v79.882c-7.606,0.8-17.307,2.305-17.307,2.305v4.701h47.777v-4.701
				c0,0-9.282-1.471-16.657-2.276v-79.91h30.414c3.509,0,6.354-1.877,6.354-4.193C680.872,291.442,678.027,289.565,674.518,289.565z
				"/>
			<path id="XMLID_67_" fill="#8C6D51" d="M631.753,298.056h11.335C643.088,298.056,636.994,303.296,631.753,298.056z"/>
		</g>
		<g id="XMLID_38_">
			<path id="XMLID_40_" fill="#787C91" d="M605.264,266.916v5.881c0,3.955,2.937,7.217,6.746,7.746v8.129h-2.906v0.894h7.557v-0.894
				h-2.906v-8.078c4.016-0.335,7.172-3.695,7.172-7.797v-5.881H605.264z"/>
			<g id="XMLID_46_">
				<path id="XMLID_59_" fill="#91B0DC" d="M644.612,256.617h-2.945v-11.701h-5.729v11.701h-2.174c-3.399,0-6.154,2.755-6.154,6.154
					v26.794h23.157v-26.794C650.767,259.372,648.011,256.617,644.612,256.617z"/>
				<rect id="XMLID_60_" x="627.61" y="265.026" fill="#787C91" width="23.157" height="15.601"/>
				<rect id="XMLID_62_" x="634.428" y="242.039" fill="#A38260" width="8.457" height="4.298"/>
			</g>
		</g>
	</g>
	<g id="XMLID_75_">
		<path id="XMLID_66_" fill="#E8AD3A" d="M253.955,182.226c0,0-9.699-8.219-6.213-20.19c3.485-11.972,19.701-21.216,39.099-17.428
			c19.398,3.789,34.855,24.317,36.371,37.618H253.955z"/>
		<path id="XMLID_68_" fill="#9B6F17" d="M318.808,155.337c0,0,4.642-4.642,12.141-4.642l-2.976,12.26L318.808,155.337z"/>
		<path id="XMLID_70_" fill="#9B6F17" d="M308.096,155.784l-5.267-7.945c0,0-8.421,6.784-5.445,15.116
			C300.359,171.287,308.096,155.784,308.096,155.784z"/>
		<path id="XMLID_47_" fill="#E8AD3A" d="M299.288,158.313c0,0-10.474,7.736-9.403,16.068c1.071,8.332,12.617,9.843,28.923,9.028
			c16.307-0.815,13.926-11.766,13.331-14.979C331.544,165.216,319.879,142.364,299.288,158.313z"/>
		<path id="XMLID_71_" fill="#9B6F17" d="M300.742,163.699c0,0,1.104,3.563,5.791,3.804s4.615-3.438,4.615-3.438
			S306.287,169.182,300.742,163.699z"/>
		<path id="XMLID_72_" fill="#FFD068" d="M307.581,169.979c0,0,2.435-2.022,6.728-1.362c4.292,0.661,5.572,3.178,5.861,4.21
			c0.289,1.032-1.527,5.036-6.893,4.21C307.911,176.211,304.815,172.208,307.581,169.979z"/>
		<path id="XMLID_69_" fill="#9B6F17" d="M316.215,164.343c0,0,1.104,3.563,5.791,3.804s4.615-3.438,4.615-3.438
			S321.76,169.825,316.215,164.343z"/>
		<path id="XMLID_73_" fill="#9B6F17" d="M312.286,169.401c0,0,2.353-0.206,3.343,0.496c0.99,0.702-1.899,2.683-1.899,2.683
			S310.511,170.185,312.286,169.401z"/>
		<path id="XMLID_76_" fill="#CC9533" d="M295.355,161.901c0,0-13.921,12.707,2.913,20.325
			C298.269,182.226,287.125,175.634,295.355,161.901z"/>
		<path id="XMLID_77_" fill="#9B6F17" d="M272.52,179.312c10.961-1.556,13.942-3.182,15.382,1.137
			c1.439,4.319-25.081,10.451-33.946,1.778c-8.865-8.673-6.726-17.938-6.726-17.938S251.985,182.226,272.52,179.312z"/>
	</g>
	<path id="XMLID_83_" fill="#47436D" d="M372.193,258.027c0,0-2.833,31.528,5.667,42.028L372.193,258.027z"/>
	<g id="XMLID_97_">
		<g id="XMLID_65_">
			<g id="XMLID_85_">
				<path id="XMLID_95_" fill="#C45B51" d="M243.54,296.465c0,0-5.07,6.37-12.48,14.79c0,0,0,0.01-0.01,0.02
					c-0.63,0.71-1.28,1.44-1.94,2.181c-2.53,2.85-6.47,2.84-10.78,1.33c-5.49-1.931-11.59-6.29-16.16-10.28
					c-2.57-2.25-4.66-4.38-5.89-5.891c0-0.01-0.01-0.01-0.02-0.02c-2.29-2.41-2.9-6.46-2.9-6.46c-1.08-0.91-1.58-4.5,2.5-2.33
					c1.68,0.9,6.18,2.2,10.87,3.42c0,0,0,0,0.01,0.01c6.69,1.74,13.79,3.32,13.79,3.32c0.78,0.18,1.56,0.48,2.28,0.82l6.3-10.24
					L243.54,296.465z"/>
				<path id="XMLID_90_" fill="#A0433F" d="M202.17,304.505c-2.57-2.25-4.66-4.38-5.89-5.891c0-0.01-0.01-0.01-0.02-0.02
					c-2.29-2.41-2.9-6.46-2.9-6.46c-1.08-0.91-1.58-4.5,2.5-2.33c1.68,0.9,6.18,2.2,10.87,3.42c0,0,0,0,0.01,0.01
					C206.84,293.615,208.8,301.286,202.17,304.505z"/>
				<path id="XMLID_82_" fill="#A0433F" d="M225.709,292.663c0,0-0.433,1.643,1.942,2.435c2.375,0.791,3.458,1.583,3.875,2.5
					c0.417,0.916,1.958,2.208,3.5,2.416c1.542,0.209,3.375,1.626,3.208,2.896l1.21-1.446c0,0-0.126-1.991-2.543-2.866
					c-2.417-0.875-4.292-1.834-4.75-2.709c-0.458-0.875-2.417-2.208-3.875-2.25c-1.458-0.041-1.775-2.263-1.775-2.263
					L225.709,292.663z"/>
				<path id="XMLID_84_" fill="#B25454" d="M226.297,307.805c0,0,1.625-0.063,2.5-1.875s0.688-2.563,0.688-2.563
					S232.235,308.43,226.297,307.805z"/>
				<path id="XMLID_93_" fill="#A0433F" d="M231.06,311.255c0,0,0,0.01-0.01,0.02c-0.63,0.71-1.28,1.44-1.94,2.181
					c-2.53,2.85-6.47,2.84-10.78,1.33c0,0,2.47-4.48,6.15-4.671C228.17,309.935,231.06,311.255,231.06,311.255z"/>
				<path id="XMLID_20_" fill="#843131" d="M196.235,292.618l5.25,0.813C201.485,293.43,199.297,291.118,196.235,292.618z"/>
			</g>
			<path id="XMLID_24_" fill="#E2B288" d="M493.171,273.684c0,0-23.715,40.632-52.722,35.291
				c-29.006-5.34-34.113-85.674-34.113-85.674h13.233c0,0,12.074,46.668,22.522,50.383c10.447,3.715,23.914-10.892,23.914-10.892
				S486.438,255.341,493.171,273.684z"/>
			<path id="XMLID_23_" fill="#E2B288" d="M419.552,223.51c0,0,1.648-3.426,2.726-9.01c1.076-5.584-3.886-10.616-4.51-12.043
				c-0.625-1.427-3.122-0.714-1.249,5.441c1.873,6.156-2.677,1.963-5.71-2.409c-3.032-4.371-0.356-9.277-4.281-14.005
				c-3.926-4.728-3.479,3.925-2.854,6.869c0,0-2.142,1.16-2.588,3.925c-0.445,2.765,0,4.526,0,4.526s-1.427,1.54-1.248,3.949
				c0.178,2.408,0.803,2.854,0.803,2.854s-0.893,1.427-0.268,4.46c0.624,3.033,6.958,12.043,6.958,12.043L419.552,223.51z"/>
			<path id="XMLID_14_" fill="#E2B288" d="M493.175,228.574l-9.318,10.612c0,0,16.675,10.18,26.043,7.605l16.435-19.185
				C526.334,227.606,500.042,233.98,493.175,228.574z"/>
			<path id="XMLID_15_" fill="#F0CBA5" d="M531.131,217.496c-2.146-2.99-4.312-3.25-5.584-3.057
				c2.803-10.067,1.841-23.458-18.1-30.905c0,0-7.135,2.945-9.468,10.269s-11.646,7.514-11.646,7.514s-2.967,13.287-6.773,20.54
				c0,0,6.324,9.026,21.113,10.745s18.623-5.029,18.623-5.029C528.031,231.575,534.465,222.139,531.131,217.496z"/>
			<path id="XMLID_16_" fill="#3E3E44" d="M504.712,177.867c0,0-0.432,8.782,9.295,15.462c9.728,6.68,9.836,6.282,9.836,6.282
				s-7.554,6.664-5.805,12.79c0,0-3.384,4.552-1.068,6.725c0,0,5.336-4.728,9.423-4.729s8.021,8.156-0.059,13.209
				c0,0-5.313,1.027-7.11-0.28c0,0-2.736,1.48-2.979,3.703c-0.044,0.397,1.468,5.156,2.742,5.156c0,0,10.907-3.601,16.832-8.058
				c5.924-4.457,15.305-14.986,10.473-23.922c0,0-0.955-14.979-19.455-24.313C508.335,170.557,505.062,173.77,504.712,177.867z"/>
			<path id="XMLID_17_" fill="#47436D" d="M381.32,252.931l-199.985-25.927l-6.191,18.188c0,0,136.998,48.731,173.667,50.234
				S381.32,252.931,381.32,252.931z"/>
			<path id="XMLID_18_" fill="#D77062" d="M483.857,239.186c0,0,19.55,7.532,27.711,5.658c0,0-0.153,25.911-17.574,44.744
				c-17.421,18.832-38.435,20.111-74.188,19.721c-34.638-0.378-36.207-2.271-36.207-2.271l-4.65-54.107l59.283-5.032
				C438.232,247.899,468,239.667,483.857,239.186z"/>
			<path id="XMLID_31_" fill="none" stroke="#FFFFFF" stroke-linecap="round" stroke-miterlimit="10" d="M421.658,216.672
				c0,0,9.57,33.864,40.798,34.346c31.229,0.482,56.842-23.446,56.842-23.446"/>
			<path id="XMLID_21_" fill="#504977" d="M379.903,252.85c0,0-33.854-31.564-66.669-41.016s-87.524,74.53-87.524,74.53
				l20.122,11.575l60.832-46.324c0,0,20.292,50.093,76.936,55.423L379.903,252.85z"/>
			<path id="XMLID_22_" fill="#F0CBA5" d="M497.98,269.958c0,0-23.716,40.632-52.722,35.291
				c-29.006-5.34-34.114-85.674-34.114-85.674h13.234c0,0,12.073,46.668,22.521,50.383s23.915-10.892,23.915-10.892
				S491.247,251.616,497.98,269.958z"/>
			<path id="XMLID_25_" fill="#C45B51" d="M455.491,264.076l26.207,28.636c0,0,22.086-19.074,19.765-27.763
				C499.14,256.259,486.603,239.619,455.491,264.076z"/>
			<path id="XMLID_30_" fill="#666666" d="M420.385,211.094L420.385,211.094c-1.03,0.405-2.194-0.102-2.6-1.132l-14.401-36.617
				c-0.405-1.031,0.102-2.195,1.133-2.601l0,0c1.03-0.405,2.194,0.102,2.601,1.133l14.4,36.616
				C421.923,209.524,421.417,210.689,420.385,211.094z"/>
			<path id="XMLID_33_" fill="#F0CBA5" d="M424.36,219.784c0,0,1.649-3.426,2.726-9.01c1.077-5.584-3.885-10.616-4.51-12.043
				c-0.624-1.427-3.122-0.713-1.249,5.442c1.874,6.155-2.676,1.962-5.709-2.409s-0.356-9.278-4.282-14.006
				c-3.925-4.728-3.479,3.925-2.854,6.869c0,0-2.141,1.16-2.587,3.925c-0.446,2.765,0,4.526,0,4.526s-1.428,1.54-1.249,3.949
				s0.803,2.854,0.803,2.854s-0.892,1.428-0.268,4.46c0.625,3.033,6.958,12.043,6.958,12.043L424.36,219.784z"/>
			<path id="XMLID_34_" fill="#FFFFFF" d="M522.783,220.123c0,0-2.013,1.815-1.303,2.802c0.711,0.986-2.604,3.709-2.604,3.709
				s0.543,0.908,1.258,1.145c0,0,4.307-3,4.78-5.643c0.083-0.462,0.091-0.839,0.048-1.146
				C524.818,219.972,523.605,219.506,522.783,220.123L522.783,220.123z"/>
			<path id="XMLID_37_" fill="#666666" d="M500.882,195.312c0,0,2.103-0.755,4.911,1.451c2.809,2.206,2.344,4.992,2.344,4.992
				S504.829,196.24,500.882,195.312z"/>
			
				<ellipse id="XMLID_35_" transform="matrix(0.8072 0.5903 -0.5903 0.8072 214.9943 -256.4596)" fill="#666666" cx="500.086" cy="200.884" rx="1.074" ry="3.251"/>
			<path id="XMLID_42_" fill="#C6826D" d="M485.209,211.99c0,0,5.341,3.715,9.133,3.25
				C494.342,215.24,486.834,219.11,485.209,211.99z"/>
			<path id="XMLID_43_" fill="#47436D" d="M307.687,236.485v12.332C307.687,248.817,314.343,242.522,307.687,236.485z"/>
			<path id="XMLID_44_" fill="#E2B288" d="M447.885,271.704l1.664,11.76C449.549,283.463,454.124,277.551,447.885,271.704z"/>
			<g id="XMLID_86_">
				<path id="XMLID_101_" fill="#C45B51" d="M180.69,229.055l-2.74,16.97c0,0-7.87-2.08-18.56-5.48c0,0-0.01,0-0.02,0
					c-0.91-0.3-1.84-0.6-2.78-0.9c-3.63-1.18-5.2-4.79-5.55-9.34c-0.35-4.67,0.58-10.34,1.9-15.4c0.32-1.22,0.66-2.4,1.01-3.53
					c1.03-3.26,2.14-6.03,3.03-7.76v-0.01c0.02-0.19,0.03-0.37,0.05-0.55c0.33-4.54,4.25-6.08,4.75-4.67
					c0.29,0.84,0.46,2.32,0.55,3.39c0.5,0.25,1.02,0.58,1.28,0.99c0.58,0.91,2.02,3.83,2.22,4.33c0.12,0.3,0.09,1.76,0.05,2.86
					c0.1,0.36,0.18,0.72,0.24,1.06c0,0,0,0-0.01,0.01c0.21,1.3,0.43,2.61,0.65,3.88c0.02,0.1,0.04,0.21,0.05,0.31
					c0.92,5.27,1.8,9.78,1.8,9.78c0.15,0.78,0.19,1.62,0.17,2.41L180.69,229.055z"/>
				<path id="XMLID_89_" fill="#A0433F" d="M174.261,228.168c0,0-1.678,0.264-1.448,2.757c0.23,2.493-0.06,3.803-0.731,4.553
					c-0.672,0.75-1.235,2.681-0.806,4.176c0.429,1.496-0.132,3.744-1.362,4.102l1.81,0.526c0,0,1.773-0.917,1.603-3.481
					c-0.17-2.565-0.047-4.667,0.57-5.438c0.617-0.771,1.05-3.101,0.502-4.453c-0.548-1.352,1.358-2.536,1.358-2.536L174.261,228.168
					z"/>
				<path id="XMLID_88_" fill="#B25454" d="M160.632,234.794c0,0,0.711,1.462,2.722,1.535c2.011,0.072,2.623-0.401,2.623-0.401
					S162.447,240.482,160.632,234.794z"/>
				<path id="XMLID_87_" fill="#A0433F" d="M159.388,240.542c0,0-0.009,0.004-0.022-0.001c-0.903-0.291-1.833-0.593-2.776-0.899
					c-3.626-1.171-5.201-4.783-5.552-9.336c0,0,5.095,0.46,6.749,3.753C159.435,237.365,159.388,240.542,159.388,240.542z"/>
				<path id="XMLID_99_" fill="#A0433F" d="M166.81,215.215c-6.935-4.077-11.034-1.494-13.87-0.31c0.32-1.22,0.66-2.4,1.01-3.53
					c1.03-3.26,2.14-6.03,3.03-7.76v-0.01c0.02-0.19,0.03-0.37,0.05-0.55c0.33-4.54,4.25-6.08,4.75-4.67
					c0.29,0.84,0.46,2.32,0.55,3.39c0.5,0.25,1.02,0.58,1.28,0.99c0.58,0.91,2.02,3.83,2.22,4.33c0.12,0.3,0.09,1.76,0.05,2.86
					c0.1,0.36,0.18,0.72,0.24,1.06c0,0,0,0-0.01,0.01c0.21,1.3,0.43,2.61,0.65,3.88C166.78,215.005,166.8,215.115,166.81,215.215z"
					/>
				<path id="XMLID_19_" fill="#843131" d="M162.235,202.889v4.917C162.235,207.805,163.86,204.889,162.235,202.889z"/>
			</g>
		</g>
		<path id="XMLID_1_" fill="#5D5984" d="M241.11,283.055l61.312-43.869c0,0-39.603,33.678-59.499,44.119
			C241.421,284.093,241.516,283.305,241.11,283.055z"/>
		<path id="XMLID_39_" fill="#5D5984" d="M304.654,237.722c0,0,1.289-3.083,3.789-2.75c2.5,0.333,3.417,2.083,3.417,2.083l63.667,45
			c0,0-54.75-42.14-62.583-45.57C312.943,236.485,307.366,230.139,304.654,237.722z"/>
		<path id="XMLID_78_" fill="#5D5984" d="M234.86,276.805l19.5,13C254.36,289.805,238.61,285.638,234.86,276.805z"/>
		<path id="XMLID_79_" fill="#5D5984" d="M228.276,285.972l6.167-7.417C234.443,278.555,231.61,286.222,228.276,285.972z"/>
		<path id="XMLID_80_" fill="#5D5984" d="M236.276,289.472l3.917-3.834C240.193,285.638,239.776,289.222,236.276,289.472z"/>
		<path id="XMLID_81_" fill="#5D5984" d="M243.542,293.138l5.651-3.666C249.193,289.472,248.641,294.138,243.542,293.138z"/>
		<path id="XMLID_91_" fill="#3A3859" d="M191.026,230.636l-3.667,16.585C187.36,247.222,185.886,232.345,191.026,230.636z"/>
		<path id="XMLID_92_" fill="#3A3859" d="M182.547,228.168l7.375,1.575C189.922,229.743,185.485,231.218,182.547,228.168z"/>
		<path id="XMLID_94_" fill="#3A3859" d="M180.69,236.224l5.92,1.43C186.61,237.654,182.895,239.393,180.69,236.224z"/>
		<path id="XMLID_96_" fill="#3A3859" d="M179.985,243.493l6.25,1.563C186.235,245.055,181.985,245.993,179.985,243.493z"/>
	</g>
</g>
</svg>
